M48
; DRILL file {KiCad (6.0.9)} date Fri Feb  3 02:11:28 2023
; FORMAT={-:-/ absolute / metric / decimal}
; #@! TF.CreationDate,2023-02-03T02:11:28-05:00
; #@! TF.GenerationSoftware,Kicad,Pcbnew,(6.0.9)
; #@! TF.FileFunction,NonPlated,1,2,NPTH
FMAT,2
METRIC
; #@! TA.AperFunction,NonPlated,NPTH,ComponentDrill
T1C0.600
; #@! TA.AperFunction,NonPlated,NPTH,ComponentDrill
T2C1.500
%
G90
G05
T1
X112.46Y-52.155
X112.46Y-103.155
X113.73Y-52.155
X113.73Y-103.155
X115.0Y-52.155
X115.0Y-103.155
X116.27Y-52.155
X116.27Y-103.155
X117.54Y-52.155
X117.54Y-103.155
T2
X148.5Y-58.5
X148.5Y-62.0
X148.5Y-65.5
X148.5Y-69.0
X148.5Y-72.5
X148.5Y-76.0
X148.5Y-79.5
X148.5Y-83.0
X148.5Y-86.5
X148.5Y-90.0
X148.5Y-109.5
X148.5Y-113.0
X148.5Y-116.5
X148.5Y-120.0
X148.5Y-123.5
X148.5Y-127.0
X148.5Y-130.5
X148.5Y-134.0
X148.5Y-137.5
X148.5Y-141.0
X152.0Y-58.5
X152.0Y-62.0
X152.0Y-65.5
X152.0Y-69.0
X152.0Y-72.5
X152.0Y-76.0
X152.0Y-79.5
X152.0Y-83.0
X152.0Y-86.5
X152.0Y-90.0
X152.0Y-109.5
X152.0Y-113.0
X152.0Y-116.5
X152.0Y-120.0
X152.0Y-123.5
X152.0Y-127.0
X152.0Y-130.5
X152.0Y-134.0
X152.0Y-137.5
X152.0Y-141.0
X155.5Y-58.5
X155.5Y-62.0
X155.5Y-65.5
X155.5Y-69.0
X155.5Y-72.5
X155.5Y-76.0
X155.5Y-79.5
X155.5Y-83.0
X155.5Y-86.5
X155.5Y-90.0
X155.5Y-109.5
X155.5Y-113.0
X155.5Y-116.5
X155.5Y-120.0
X155.5Y-123.5
X155.5Y-127.0
X155.5Y-130.5
X155.5Y-134.0
X155.5Y-137.5
X155.5Y-141.0
X159.0Y-58.5
X159.0Y-62.0
X159.0Y-65.5
X159.0Y-69.0
X159.0Y-72.5
X159.0Y-76.0
X159.0Y-79.5
X159.0Y-83.0
X159.0Y-86.5
X159.0Y-90.0
X159.0Y-109.5
X159.0Y-113.0
X159.0Y-116.5
X159.0Y-120.0
X159.0Y-123.5
X159.0Y-127.0
X159.0Y-130.5
X159.0Y-134.0
X159.0Y-137.5
X159.0Y-141.0
X162.5Y-58.5
X162.5Y-62.0
X162.5Y-65.5
X162.5Y-69.0
X162.5Y-72.5
X162.5Y-76.0
X162.5Y-79.5
X162.5Y-83.0
X162.5Y-86.5
X162.5Y-90.0
X162.5Y-109.5
X162.5Y-113.0
X162.5Y-116.5
X162.5Y-120.0
X162.5Y-123.5
X162.5Y-127.0
X162.5Y-130.5
X162.5Y-134.0
X162.5Y-137.5
X162.5Y-141.0
X166.0Y-58.5
X166.0Y-62.0
X166.0Y-65.5
X166.0Y-69.0
X166.0Y-72.5
X166.0Y-76.0
X166.0Y-79.5
X166.0Y-83.0
X166.0Y-86.5
X166.0Y-90.0
X166.0Y-109.5
X166.0Y-113.0
X166.0Y-116.5
X166.0Y-120.0
X166.0Y-123.5
X166.0Y-127.0
X166.0Y-130.5
X166.0Y-134.0
X166.0Y-137.5
X166.0Y-141.0
X169.5Y-58.5
X169.5Y-62.0
X169.5Y-65.5
X169.5Y-69.0
X169.5Y-72.5
X169.5Y-76.0
X169.5Y-79.5
X169.5Y-83.0
X169.5Y-86.5
X169.5Y-90.0
X169.5Y-109.5
X169.5Y-113.0
X169.5Y-116.5
X169.5Y-120.0
X169.5Y-123.5
X169.5Y-127.0
X169.5Y-130.5
X169.5Y-134.0
X169.5Y-137.5
X169.5Y-141.0
X173.0Y-58.5
X173.0Y-62.0
X173.0Y-65.5
X173.0Y-69.0
X173.0Y-72.5
X173.0Y-76.0
X173.0Y-79.5
X173.0Y-83.0
X173.0Y-86.5
X173.0Y-90.0
X173.0Y-109.5
X173.0Y-113.0
X173.0Y-116.5
X173.0Y-120.0
X173.0Y-123.5
X173.0Y-127.0
X173.0Y-130.5
X173.0Y-134.0
X173.0Y-137.5
X173.0Y-141.0
X176.5Y-58.5
X176.5Y-62.0
X176.5Y-65.5
X176.5Y-69.0
X176.5Y-72.5
X176.5Y-76.0
X176.5Y-79.5
X176.5Y-83.0
X176.5Y-86.5
X176.5Y-90.0
X176.5Y-109.5
X176.5Y-113.0
X176.5Y-116.5
X176.5Y-120.0
X176.5Y-123.5
X176.5Y-127.0
X176.5Y-130.5
X176.5Y-134.0
X176.5Y-137.5
X176.5Y-141.0
X180.0Y-58.5
X180.0Y-62.0
X180.0Y-65.5
X180.0Y-69.0
X180.0Y-72.5
X180.0Y-76.0
X180.0Y-79.5
X180.0Y-83.0
X180.0Y-86.5
X180.0Y-90.0
X180.0Y-109.5
X180.0Y-113.0
X180.0Y-116.5
X180.0Y-120.0
X180.0Y-123.5
X180.0Y-127.0
X180.0Y-130.5
X180.0Y-134.0
X180.0Y-137.5
X180.0Y-141.0
X183.5Y-58.5
X183.5Y-62.0
X183.5Y-65.5
X183.5Y-69.0
X183.5Y-72.5
X183.5Y-76.0
X183.5Y-79.5
X183.5Y-83.0
X183.5Y-86.5
X183.5Y-90.0
X183.5Y-109.5
X183.5Y-113.0
X183.5Y-116.5
X183.5Y-120.0
X183.5Y-123.5
X183.5Y-127.0
X183.5Y-130.5
X183.5Y-134.0
X183.5Y-137.5
X183.5Y-141.0
T0
M30
