%TF.GenerationSoftware,KiCad,Pcbnew,(6.0.9)*%
%TF.CreationDate,2023-02-03T02:11:28-05:00*%
%TF.ProjectId,businesscard_panel,62757369-6e65-4737-9363-6172645f7061,rev?*%
%TF.SameCoordinates,Original*%
%TF.FileFunction,Drillmap*%
%TF.FilePolarity,Positive*%
%FSLAX45Y45*%
G04 Gerber Fmt 4.5, Leading zero omitted, Abs format (unit mm)*
G04 Created by KiCad (PCBNEW (6.0.9)) date 2023-02-03 02:11:28*
%MOMM*%
%LPD*%
G01*
G04 APERTURE LIST*
%ADD10C,0.050000*%
%ADD11C,0.200000*%
%ADD12C,0.030000*%
G04 APERTURE END LIST*
D10*
X18750000Y-5000000D02*
X10000000Y-5000000D01*
X10000000Y-5000000D02*
X10000000Y-15000000D01*
X10000000Y-15000000D02*
X18750000Y-15000000D01*
X18750000Y-15000000D02*
X18750000Y-5000000D01*
X10500000Y-10100000D02*
X12500001Y-10100000D01*
X18250002Y-10100000D02*
G75*
G03*
X18250002Y-9900000I-2J100000D01*
G01*
X13900000Y-9900000D02*
G75*
G03*
X13900000Y-10100000I0J-100000D01*
G01*
X12500001Y-9900000D02*
X10500000Y-9900000D01*
X18250002Y-9900000D02*
X13900000Y-9900000D01*
X13900000Y-10100000D02*
X18250002Y-10100000D01*
X12500001Y-10100000D02*
G75*
G03*
X12500001Y-9900000I-1J100000D01*
G01*
X10500000Y-9900000D02*
G75*
G03*
X10500000Y-10100000I0J-100000D01*
G01*
D11*
D12*
X10245000Y-6620000D02*
X10275000Y-6650000D01*
X10275000Y-6620000D02*
X10245000Y-6650000D01*
X10245000Y-11720000D02*
X10275000Y-11750000D01*
X10275000Y-11720000D02*
X10245000Y-11750000D01*
X10360000Y-7110000D02*
X10390000Y-7140000D01*
X10390000Y-7110000D02*
X10360000Y-7140000D01*
X10360000Y-12210000D02*
X10390000Y-12240000D01*
X10390000Y-12210000D02*
X10360000Y-12240000D01*
X10605000Y-5600000D02*
X10635000Y-5630000D01*
X10635000Y-5600000D02*
X10605000Y-5630000D01*
X10605000Y-10700000D02*
X10635000Y-10730000D01*
X10635000Y-10700000D02*
X10605000Y-10730000D01*
X10635000Y-7010000D02*
X10665000Y-7040000D01*
X10665000Y-7010000D02*
X10635000Y-7040000D01*
X10635000Y-12110000D02*
X10665000Y-12140000D01*
X10665000Y-12110000D02*
X10635000Y-12140000D01*
X10665000Y-5660000D02*
X10695000Y-5690000D01*
X10695000Y-5660000D02*
X10665000Y-5690000D01*
X10665000Y-10760000D02*
X10695000Y-10790000D01*
X10695000Y-10760000D02*
X10665000Y-10790000D01*
X10705000Y-6940000D02*
X10735000Y-6970000D01*
X10735000Y-6940000D02*
X10705000Y-6970000D01*
X10705000Y-12040000D02*
X10735000Y-12070000D01*
X10735000Y-12040000D02*
X10705000Y-12070000D01*
X10725000Y-5720000D02*
X10755000Y-5750000D01*
X10755000Y-5720000D02*
X10725000Y-5750000D01*
X10725000Y-10820000D02*
X10755000Y-10850000D01*
X10755000Y-10820000D02*
X10725000Y-10850000D01*
X10785000Y-6880000D02*
X10815000Y-6910000D01*
X10815000Y-6880000D02*
X10785000Y-6910000D01*
X10785000Y-11980000D02*
X10815000Y-12010000D01*
X10815000Y-11980000D02*
X10785000Y-12010000D01*
X10845000Y-5500000D02*
X10875000Y-5530000D01*
X10875000Y-5500000D02*
X10845000Y-5530000D01*
X10845000Y-5600000D02*
X10875000Y-5630000D01*
X10875000Y-5600000D02*
X10845000Y-5630000D01*
X10845000Y-5700000D02*
X10875000Y-5730000D01*
X10875000Y-5700000D02*
X10845000Y-5730000D01*
X10845000Y-10600000D02*
X10875000Y-10630000D01*
X10875000Y-10600000D02*
X10845000Y-10630000D01*
X10845000Y-10700000D02*
X10875000Y-10730000D01*
X10875000Y-10700000D02*
X10845000Y-10730000D01*
X10845000Y-10800000D02*
X10875000Y-10830000D01*
X10875000Y-10800000D02*
X10845000Y-10830000D01*
X10905000Y-5280000D02*
X10935000Y-5310000D01*
X10935000Y-5280000D02*
X10905000Y-5310000D01*
X10905000Y-10380000D02*
X10935000Y-10410000D01*
X10935000Y-10380000D02*
X10905000Y-10410000D01*
X10982500Y-6842500D02*
X11012500Y-6872500D01*
X11012500Y-6842500D02*
X10982500Y-6872500D01*
X10982500Y-11942500D02*
X11012500Y-11972500D01*
X11012500Y-11942500D02*
X10982500Y-11972500D01*
X11110000Y-7110000D02*
X11140000Y-7140000D01*
X11140000Y-7110000D02*
X11110000Y-7140000D01*
X11110000Y-12210000D02*
X11140000Y-12240000D01*
X11140000Y-12210000D02*
X11110000Y-12240000D01*
X11275000Y-5810000D02*
X11305000Y-5840000D01*
X11305000Y-5810000D02*
X11275000Y-5840000D01*
X11275000Y-10910000D02*
X11305000Y-10940000D01*
X11305000Y-10910000D02*
X11275000Y-10940000D01*
X11445000Y-5660000D02*
X11475000Y-5690000D01*
X11475000Y-5660000D02*
X11445000Y-5690000D01*
X11445000Y-10760000D02*
X11475000Y-10790000D01*
X11475000Y-10760000D02*
X11445000Y-10790000D01*
X11545000Y-5380000D02*
X11575000Y-5410000D01*
X11575000Y-5380000D02*
X11545000Y-5410000D01*
X11545000Y-10480000D02*
X11575000Y-10510000D01*
X11575000Y-10480000D02*
X11545000Y-10510000D01*
X11835000Y-5090000D02*
X11865000Y-5120000D01*
X11865000Y-5090000D02*
X11835000Y-5120000D01*
X11835000Y-10190000D02*
X11865000Y-10220000D01*
X11865000Y-10190000D02*
X11835000Y-10220000D01*
X12005000Y-5300000D02*
X12035000Y-5330000D01*
X12035000Y-5300000D02*
X12005000Y-5330000D01*
X12005000Y-10400000D02*
X12035000Y-10430000D01*
X12035000Y-10400000D02*
X12005000Y-10430000D01*
X12260000Y-5835000D02*
X12290000Y-5865000D01*
X12290000Y-5835000D02*
X12260000Y-5865000D01*
X12260000Y-10935000D02*
X12290000Y-10965000D01*
X12290000Y-10935000D02*
X12260000Y-10965000D01*
X12360000Y-5735000D02*
X12390000Y-5765000D01*
X12390000Y-5735000D02*
X12360000Y-5765000D01*
X12360000Y-10835000D02*
X12390000Y-10865000D01*
X12390000Y-10835000D02*
X12360000Y-10865000D01*
X12505000Y-9540000D02*
X12535000Y-9570000D01*
X12535000Y-9540000D02*
X12505000Y-9570000D01*
X12505000Y-9660000D02*
X12535000Y-9690000D01*
X12535000Y-9660000D02*
X12505000Y-9690000D01*
X12505000Y-14640000D02*
X12535000Y-14670000D01*
X12535000Y-14640000D02*
X12505000Y-14670000D01*
X12505000Y-14760000D02*
X12535000Y-14790000D01*
X12535000Y-14760000D02*
X12505000Y-14790000D01*
X12565000Y-9480000D02*
X12595000Y-9510000D01*
X12595000Y-9480000D02*
X12565000Y-9510000D01*
X12565000Y-9600000D02*
X12595000Y-9630000D01*
X12595000Y-9600000D02*
X12565000Y-9630000D01*
X12565000Y-9720000D02*
X12595000Y-9750000D01*
X12595000Y-9720000D02*
X12565000Y-9750000D01*
X12565000Y-14580000D02*
X12595000Y-14610000D01*
X12595000Y-14580000D02*
X12565000Y-14610000D01*
X12565000Y-14700000D02*
X12595000Y-14730000D01*
X12595000Y-14700000D02*
X12565000Y-14730000D01*
X12565000Y-14820000D02*
X12595000Y-14850000D01*
X12595000Y-14820000D02*
X12565000Y-14850000D01*
X12845000Y-7960000D02*
X12875000Y-7990000D01*
X12875000Y-7960000D02*
X12845000Y-7990000D01*
X12845000Y-13060000D02*
X12875000Y-13090000D01*
X12875000Y-13060000D02*
X12845000Y-13090000D01*
X13045000Y-8860000D02*
X13075000Y-8890000D01*
X13075000Y-8860000D02*
X13045000Y-8890000D01*
X13045000Y-13960000D02*
X13075000Y-13990000D01*
X13075000Y-13960000D02*
X13045000Y-13990000D01*
X15010000Y-5835000D02*
X15040000Y-5865000D01*
X15040000Y-5835000D02*
X15010000Y-5865000D01*
X15010000Y-6185000D02*
X15040000Y-6215000D01*
X15040000Y-6185000D02*
X15010000Y-6215000D01*
X15010000Y-6535000D02*
X15040000Y-6565000D01*
X15040000Y-6535000D02*
X15010000Y-6565000D01*
X15010000Y-6885000D02*
X15040000Y-6915000D01*
X15040000Y-6885000D02*
X15010000Y-6915000D01*
X15010000Y-7235000D02*
X15040000Y-7265000D01*
X15040000Y-7235000D02*
X15010000Y-7265000D01*
X15010000Y-7585000D02*
X15040000Y-7615000D01*
X15040000Y-7585000D02*
X15010000Y-7615000D01*
X15010000Y-7935000D02*
X15040000Y-7965000D01*
X15040000Y-7935000D02*
X15010000Y-7965000D01*
X15010000Y-8285000D02*
X15040000Y-8315000D01*
X15040000Y-8285000D02*
X15010000Y-8315000D01*
X15010000Y-8635000D02*
X15040000Y-8665000D01*
X15040000Y-8635000D02*
X15010000Y-8665000D01*
X15010000Y-8985000D02*
X15040000Y-9015000D01*
X15040000Y-8985000D02*
X15010000Y-9015000D01*
X15010000Y-10935000D02*
X15040000Y-10965000D01*
X15040000Y-10935000D02*
X15010000Y-10965000D01*
X15010000Y-11285000D02*
X15040000Y-11315000D01*
X15040000Y-11285000D02*
X15010000Y-11315000D01*
X15010000Y-11635000D02*
X15040000Y-11665000D01*
X15040000Y-11635000D02*
X15010000Y-11665000D01*
X15010000Y-11985000D02*
X15040000Y-12015000D01*
X15040000Y-11985000D02*
X15010000Y-12015000D01*
X15010000Y-12335000D02*
X15040000Y-12365000D01*
X15040000Y-12335000D02*
X15010000Y-12365000D01*
X15010000Y-12685000D02*
X15040000Y-12715000D01*
X15040000Y-12685000D02*
X15010000Y-12715000D01*
X15010000Y-13035000D02*
X15040000Y-13065000D01*
X15040000Y-13035000D02*
X15010000Y-13065000D01*
X15010000Y-13385000D02*
X15040000Y-13415000D01*
X15040000Y-13385000D02*
X15010000Y-13415000D01*
X15010000Y-13735000D02*
X15040000Y-13765000D01*
X15040000Y-13735000D02*
X15010000Y-13765000D01*
X15010000Y-14085000D02*
X15040000Y-14115000D01*
X15040000Y-14085000D02*
X15010000Y-14115000D01*
X15360000Y-5835000D02*
X15390000Y-5865000D01*
X15390000Y-5835000D02*
X15360000Y-5865000D01*
X15360000Y-6185000D02*
X15390000Y-6215000D01*
X15390000Y-6185000D02*
X15360000Y-6215000D01*
X15360000Y-6535000D02*
X15390000Y-6565000D01*
X15390000Y-6535000D02*
X15360000Y-6565000D01*
X15360000Y-6885000D02*
X15390000Y-6915000D01*
X15390000Y-6885000D02*
X15360000Y-6915000D01*
X15360000Y-7235000D02*
X15390000Y-7265000D01*
X15390000Y-7235000D02*
X15360000Y-7265000D01*
X15360000Y-7585000D02*
X15390000Y-7615000D01*
X15390000Y-7585000D02*
X15360000Y-7615000D01*
X15360000Y-7935000D02*
X15390000Y-7965000D01*
X15390000Y-7935000D02*
X15360000Y-7965000D01*
X15360000Y-8285000D02*
X15390000Y-8315000D01*
X15390000Y-8285000D02*
X15360000Y-8315000D01*
X15360000Y-8635000D02*
X15390000Y-8665000D01*
X15390000Y-8635000D02*
X15360000Y-8665000D01*
X15360000Y-8985000D02*
X15390000Y-9015000D01*
X15390000Y-8985000D02*
X15360000Y-9015000D01*
X15360000Y-10935000D02*
X15390000Y-10965000D01*
X15390000Y-10935000D02*
X15360000Y-10965000D01*
X15360000Y-11285000D02*
X15390000Y-11315000D01*
X15390000Y-11285000D02*
X15360000Y-11315000D01*
X15360000Y-11635000D02*
X15390000Y-11665000D01*
X15390000Y-11635000D02*
X15360000Y-11665000D01*
X15360000Y-11985000D02*
X15390000Y-12015000D01*
X15390000Y-11985000D02*
X15360000Y-12015000D01*
X15360000Y-12335000D02*
X15390000Y-12365000D01*
X15390000Y-12335000D02*
X15360000Y-12365000D01*
X15360000Y-12685000D02*
X15390000Y-12715000D01*
X15390000Y-12685000D02*
X15360000Y-12715000D01*
X15360000Y-13035000D02*
X15390000Y-13065000D01*
X15390000Y-13035000D02*
X15360000Y-13065000D01*
X15360000Y-13385000D02*
X15390000Y-13415000D01*
X15390000Y-13385000D02*
X15360000Y-13415000D01*
X15360000Y-13735000D02*
X15390000Y-13765000D01*
X15390000Y-13735000D02*
X15360000Y-13765000D01*
X15360000Y-14085000D02*
X15390000Y-14115000D01*
X15390000Y-14085000D02*
X15360000Y-14115000D01*
X15710000Y-5835000D02*
X15740000Y-5865000D01*
X15740000Y-5835000D02*
X15710000Y-5865000D01*
X15710000Y-6185000D02*
X15740000Y-6215000D01*
X15740000Y-6185000D02*
X15710000Y-6215000D01*
X15710000Y-6535000D02*
X15740000Y-6565000D01*
X15740000Y-6535000D02*
X15710000Y-6565000D01*
X15710000Y-6885000D02*
X15740000Y-6915000D01*
X15740000Y-6885000D02*
X15710000Y-6915000D01*
X15710000Y-7235000D02*
X15740000Y-7265000D01*
X15740000Y-7235000D02*
X15710000Y-7265000D01*
X15710000Y-7585000D02*
X15740000Y-7615000D01*
X15740000Y-7585000D02*
X15710000Y-7615000D01*
X15710000Y-7935000D02*
X15740000Y-7965000D01*
X15740000Y-7935000D02*
X15710000Y-7965000D01*
X15710000Y-8285000D02*
X15740000Y-8315000D01*
X15740000Y-8285000D02*
X15710000Y-8315000D01*
X15710000Y-8635000D02*
X15740000Y-8665000D01*
X15740000Y-8635000D02*
X15710000Y-8665000D01*
X15710000Y-8985000D02*
X15740000Y-9015000D01*
X15740000Y-8985000D02*
X15710000Y-9015000D01*
X15710000Y-10935000D02*
X15740000Y-10965000D01*
X15740000Y-10935000D02*
X15710000Y-10965000D01*
X15710000Y-11285000D02*
X15740000Y-11315000D01*
X15740000Y-11285000D02*
X15710000Y-11315000D01*
X15710000Y-11635000D02*
X15740000Y-11665000D01*
X15740000Y-11635000D02*
X15710000Y-11665000D01*
X15710000Y-11985000D02*
X15740000Y-12015000D01*
X15740000Y-11985000D02*
X15710000Y-12015000D01*
X15710000Y-12335000D02*
X15740000Y-12365000D01*
X15740000Y-12335000D02*
X15710000Y-12365000D01*
X15710000Y-12685000D02*
X15740000Y-12715000D01*
X15740000Y-12685000D02*
X15710000Y-12715000D01*
X15710000Y-13035000D02*
X15740000Y-13065000D01*
X15740000Y-13035000D02*
X15710000Y-13065000D01*
X15710000Y-13385000D02*
X15740000Y-13415000D01*
X15740000Y-13385000D02*
X15710000Y-13415000D01*
X15710000Y-13735000D02*
X15740000Y-13765000D01*
X15740000Y-13735000D02*
X15710000Y-13765000D01*
X15710000Y-14085000D02*
X15740000Y-14115000D01*
X15740000Y-14085000D02*
X15710000Y-14115000D01*
X16060000Y-5835000D02*
X16090000Y-5865000D01*
X16090000Y-5835000D02*
X16060000Y-5865000D01*
X16060000Y-6185000D02*
X16090000Y-6215000D01*
X16090000Y-6185000D02*
X16060000Y-6215000D01*
X16060000Y-6535000D02*
X16090000Y-6565000D01*
X16090000Y-6535000D02*
X16060000Y-6565000D01*
X16060000Y-6885000D02*
X16090000Y-6915000D01*
X16090000Y-6885000D02*
X16060000Y-6915000D01*
X16060000Y-7235000D02*
X16090000Y-7265000D01*
X16090000Y-7235000D02*
X16060000Y-7265000D01*
X16060000Y-7585000D02*
X16090000Y-7615000D01*
X16090000Y-7585000D02*
X16060000Y-7615000D01*
X16060000Y-7935000D02*
X16090000Y-7965000D01*
X16090000Y-7935000D02*
X16060000Y-7965000D01*
X16060000Y-8285000D02*
X16090000Y-8315000D01*
X16090000Y-8285000D02*
X16060000Y-8315000D01*
X16060000Y-8635000D02*
X16090000Y-8665000D01*
X16090000Y-8635000D02*
X16060000Y-8665000D01*
X16060000Y-8985000D02*
X16090000Y-9015000D01*
X16090000Y-8985000D02*
X16060000Y-9015000D01*
X16060000Y-10935000D02*
X16090000Y-10965000D01*
X16090000Y-10935000D02*
X16060000Y-10965000D01*
X16060000Y-11285000D02*
X16090000Y-11315000D01*
X16090000Y-11285000D02*
X16060000Y-11315000D01*
X16060000Y-11635000D02*
X16090000Y-11665000D01*
X16090000Y-11635000D02*
X16060000Y-11665000D01*
X16060000Y-11985000D02*
X16090000Y-12015000D01*
X16090000Y-11985000D02*
X16060000Y-12015000D01*
X16060000Y-12335000D02*
X16090000Y-12365000D01*
X16090000Y-12335000D02*
X16060000Y-12365000D01*
X16060000Y-12685000D02*
X16090000Y-12715000D01*
X16090000Y-12685000D02*
X16060000Y-12715000D01*
X16060000Y-13035000D02*
X16090000Y-13065000D01*
X16090000Y-13035000D02*
X16060000Y-13065000D01*
X16060000Y-13385000D02*
X16090000Y-13415000D01*
X16090000Y-13385000D02*
X16060000Y-13415000D01*
X16060000Y-13735000D02*
X16090000Y-13765000D01*
X16090000Y-13735000D02*
X16060000Y-13765000D01*
X16060000Y-14085000D02*
X16090000Y-14115000D01*
X16090000Y-14085000D02*
X16060000Y-14115000D01*
X16410000Y-5835000D02*
X16440000Y-5865000D01*
X16440000Y-5835000D02*
X16410000Y-5865000D01*
X16410000Y-6185000D02*
X16440000Y-6215000D01*
X16440000Y-6185000D02*
X16410000Y-6215000D01*
X16410000Y-6535000D02*
X16440000Y-6565000D01*
X16440000Y-6535000D02*
X16410000Y-6565000D01*
X16410000Y-6885000D02*
X16440000Y-6915000D01*
X16440000Y-6885000D02*
X16410000Y-6915000D01*
X16410000Y-7235000D02*
X16440000Y-7265000D01*
X16440000Y-7235000D02*
X16410000Y-7265000D01*
X16410000Y-7585000D02*
X16440000Y-7615000D01*
X16440000Y-7585000D02*
X16410000Y-7615000D01*
X16410000Y-7935000D02*
X16440000Y-7965000D01*
X16440000Y-7935000D02*
X16410000Y-7965000D01*
X16410000Y-8285000D02*
X16440000Y-8315000D01*
X16440000Y-8285000D02*
X16410000Y-8315000D01*
X16410000Y-8635000D02*
X16440000Y-8665000D01*
X16440000Y-8635000D02*
X16410000Y-8665000D01*
X16410000Y-8985000D02*
X16440000Y-9015000D01*
X16440000Y-8985000D02*
X16410000Y-9015000D01*
X16410000Y-10935000D02*
X16440000Y-10965000D01*
X16440000Y-10935000D02*
X16410000Y-10965000D01*
X16410000Y-11285000D02*
X16440000Y-11315000D01*
X16440000Y-11285000D02*
X16410000Y-11315000D01*
X16410000Y-11635000D02*
X16440000Y-11665000D01*
X16440000Y-11635000D02*
X16410000Y-11665000D01*
X16410000Y-11985000D02*
X16440000Y-12015000D01*
X16440000Y-11985000D02*
X16410000Y-12015000D01*
X16410000Y-12335000D02*
X16440000Y-12365000D01*
X16440000Y-12335000D02*
X16410000Y-12365000D01*
X16410000Y-12685000D02*
X16440000Y-12715000D01*
X16440000Y-12685000D02*
X16410000Y-12715000D01*
X16410000Y-13035000D02*
X16440000Y-13065000D01*
X16440000Y-13035000D02*
X16410000Y-13065000D01*
X16410000Y-13385000D02*
X16440000Y-13415000D01*
X16440000Y-13385000D02*
X16410000Y-13415000D01*
X16410000Y-13735000D02*
X16440000Y-13765000D01*
X16440000Y-13735000D02*
X16410000Y-13765000D01*
X16410000Y-14085000D02*
X16440000Y-14115000D01*
X16440000Y-14085000D02*
X16410000Y-14115000D01*
X16760000Y-5835000D02*
X16790000Y-5865000D01*
X16790000Y-5835000D02*
X16760000Y-5865000D01*
X16760000Y-6185000D02*
X16790000Y-6215000D01*
X16790000Y-6185000D02*
X16760000Y-6215000D01*
X16760000Y-6535000D02*
X16790000Y-6565000D01*
X16790000Y-6535000D02*
X16760000Y-6565000D01*
X16760000Y-6885000D02*
X16790000Y-6915000D01*
X16790000Y-6885000D02*
X16760000Y-6915000D01*
X16760000Y-7235000D02*
X16790000Y-7265000D01*
X16790000Y-7235000D02*
X16760000Y-7265000D01*
X16760000Y-7585000D02*
X16790000Y-7615000D01*
X16790000Y-7585000D02*
X16760000Y-7615000D01*
X16760000Y-7935000D02*
X16790000Y-7965000D01*
X16790000Y-7935000D02*
X16760000Y-7965000D01*
X16760000Y-8285000D02*
X16790000Y-8315000D01*
X16790000Y-8285000D02*
X16760000Y-8315000D01*
X16760000Y-8635000D02*
X16790000Y-8665000D01*
X16790000Y-8635000D02*
X16760000Y-8665000D01*
X16760000Y-8985000D02*
X16790000Y-9015000D01*
X16790000Y-8985000D02*
X16760000Y-9015000D01*
X16760000Y-10935000D02*
X16790000Y-10965000D01*
X16790000Y-10935000D02*
X16760000Y-10965000D01*
X16760000Y-11285000D02*
X16790000Y-11315000D01*
X16790000Y-11285000D02*
X16760000Y-11315000D01*
X16760000Y-11635000D02*
X16790000Y-11665000D01*
X16790000Y-11635000D02*
X16760000Y-11665000D01*
X16760000Y-11985000D02*
X16790000Y-12015000D01*
X16790000Y-11985000D02*
X16760000Y-12015000D01*
X16760000Y-12335000D02*
X16790000Y-12365000D01*
X16790000Y-12335000D02*
X16760000Y-12365000D01*
X16760000Y-12685000D02*
X16790000Y-12715000D01*
X16790000Y-12685000D02*
X16760000Y-12715000D01*
X16760000Y-13035000D02*
X16790000Y-13065000D01*
X16790000Y-13035000D02*
X16760000Y-13065000D01*
X16760000Y-13385000D02*
X16790000Y-13415000D01*
X16790000Y-13385000D02*
X16760000Y-13415000D01*
X16760000Y-13735000D02*
X16790000Y-13765000D01*
X16790000Y-13735000D02*
X16760000Y-13765000D01*
X16760000Y-14085000D02*
X16790000Y-14115000D01*
X16790000Y-14085000D02*
X16760000Y-14115000D01*
X16884750Y-9480000D02*
X16914750Y-9510000D01*
X16914750Y-9480000D02*
X16884750Y-9510000D01*
X16884750Y-14580000D02*
X16914750Y-14610000D01*
X16914750Y-14580000D02*
X16884750Y-14610000D01*
X17110000Y-5835000D02*
X17140000Y-5865000D01*
X17140000Y-5835000D02*
X17110000Y-5865000D01*
X17110000Y-6185000D02*
X17140000Y-6215000D01*
X17140000Y-6185000D02*
X17110000Y-6215000D01*
X17110000Y-6535000D02*
X17140000Y-6565000D01*
X17140000Y-6535000D02*
X17110000Y-6565000D01*
X17110000Y-6885000D02*
X17140000Y-6915000D01*
X17140000Y-6885000D02*
X17110000Y-6915000D01*
X17110000Y-7235000D02*
X17140000Y-7265000D01*
X17140000Y-7235000D02*
X17110000Y-7265000D01*
X17110000Y-7585000D02*
X17140000Y-7615000D01*
X17140000Y-7585000D02*
X17110000Y-7615000D01*
X17110000Y-7935000D02*
X17140000Y-7965000D01*
X17140000Y-7935000D02*
X17110000Y-7965000D01*
X17110000Y-8285000D02*
X17140000Y-8315000D01*
X17140000Y-8285000D02*
X17110000Y-8315000D01*
X17110000Y-8635000D02*
X17140000Y-8665000D01*
X17140000Y-8635000D02*
X17110000Y-8665000D01*
X17110000Y-8985000D02*
X17140000Y-9015000D01*
X17140000Y-8985000D02*
X17110000Y-9015000D01*
X17110000Y-10935000D02*
X17140000Y-10965000D01*
X17140000Y-10935000D02*
X17110000Y-10965000D01*
X17110000Y-11285000D02*
X17140000Y-11315000D01*
X17140000Y-11285000D02*
X17110000Y-11315000D01*
X17110000Y-11635000D02*
X17140000Y-11665000D01*
X17140000Y-11635000D02*
X17110000Y-11665000D01*
X17110000Y-11985000D02*
X17140000Y-12015000D01*
X17140000Y-11985000D02*
X17110000Y-12015000D01*
X17110000Y-12335000D02*
X17140000Y-12365000D01*
X17140000Y-12335000D02*
X17110000Y-12365000D01*
X17110000Y-12685000D02*
X17140000Y-12715000D01*
X17140000Y-12685000D02*
X17110000Y-12715000D01*
X17110000Y-13035000D02*
X17140000Y-13065000D01*
X17140000Y-13035000D02*
X17110000Y-13065000D01*
X17110000Y-13385000D02*
X17140000Y-13415000D01*
X17140000Y-13385000D02*
X17110000Y-13415000D01*
X17110000Y-13735000D02*
X17140000Y-13765000D01*
X17140000Y-13735000D02*
X17110000Y-13765000D01*
X17110000Y-14085000D02*
X17140000Y-14115000D01*
X17140000Y-14085000D02*
X17110000Y-14115000D01*
X17174750Y-9540000D02*
X17204750Y-9570000D01*
X17204750Y-9540000D02*
X17174750Y-9570000D01*
X17174750Y-14640000D02*
X17204750Y-14670000D01*
X17204750Y-14640000D02*
X17174750Y-14670000D01*
X17460000Y-5835000D02*
X17490000Y-5865000D01*
X17490000Y-5835000D02*
X17460000Y-5865000D01*
X17460000Y-6185000D02*
X17490000Y-6215000D01*
X17490000Y-6185000D02*
X17460000Y-6215000D01*
X17460000Y-6535000D02*
X17490000Y-6565000D01*
X17490000Y-6535000D02*
X17460000Y-6565000D01*
X17460000Y-6885000D02*
X17490000Y-6915000D01*
X17490000Y-6885000D02*
X17460000Y-6915000D01*
X17460000Y-7235000D02*
X17490000Y-7265000D01*
X17490000Y-7235000D02*
X17460000Y-7265000D01*
X17460000Y-7585000D02*
X17490000Y-7615000D01*
X17490000Y-7585000D02*
X17460000Y-7615000D01*
X17460000Y-7935000D02*
X17490000Y-7965000D01*
X17490000Y-7935000D02*
X17460000Y-7965000D01*
X17460000Y-8285000D02*
X17490000Y-8315000D01*
X17490000Y-8285000D02*
X17460000Y-8315000D01*
X17460000Y-8635000D02*
X17490000Y-8665000D01*
X17490000Y-8635000D02*
X17460000Y-8665000D01*
X17460000Y-8985000D02*
X17490000Y-9015000D01*
X17490000Y-8985000D02*
X17460000Y-9015000D01*
X17460000Y-10935000D02*
X17490000Y-10965000D01*
X17490000Y-10935000D02*
X17460000Y-10965000D01*
X17460000Y-11285000D02*
X17490000Y-11315000D01*
X17490000Y-11285000D02*
X17460000Y-11315000D01*
X17460000Y-11635000D02*
X17490000Y-11665000D01*
X17490000Y-11635000D02*
X17460000Y-11665000D01*
X17460000Y-11985000D02*
X17490000Y-12015000D01*
X17490000Y-11985000D02*
X17460000Y-12015000D01*
X17460000Y-12335000D02*
X17490000Y-12365000D01*
X17490000Y-12335000D02*
X17460000Y-12365000D01*
X17460000Y-12685000D02*
X17490000Y-12715000D01*
X17490000Y-12685000D02*
X17460000Y-12715000D01*
X17460000Y-13035000D02*
X17490000Y-13065000D01*
X17490000Y-13035000D02*
X17460000Y-13065000D01*
X17460000Y-13385000D02*
X17490000Y-13415000D01*
X17490000Y-13385000D02*
X17460000Y-13415000D01*
X17460000Y-13735000D02*
X17490000Y-13765000D01*
X17490000Y-13735000D02*
X17460000Y-13765000D01*
X17460000Y-14085000D02*
X17490000Y-14115000D01*
X17490000Y-14085000D02*
X17460000Y-14115000D01*
X17465000Y-9600000D02*
X17495000Y-9630000D01*
X17495000Y-9600000D02*
X17465000Y-9630000D01*
X17465000Y-14700000D02*
X17495000Y-14730000D01*
X17495000Y-14700000D02*
X17465000Y-14730000D01*
X17754750Y-9660000D02*
X17784750Y-9690000D01*
X17784750Y-9660000D02*
X17754750Y-9690000D01*
X17754750Y-14760000D02*
X17784750Y-14790000D01*
X17784750Y-14760000D02*
X17754750Y-14790000D01*
X17810000Y-5835000D02*
X17840000Y-5865000D01*
X17840000Y-5835000D02*
X17810000Y-5865000D01*
X17810000Y-6185000D02*
X17840000Y-6215000D01*
X17840000Y-6185000D02*
X17810000Y-6215000D01*
X17810000Y-6535000D02*
X17840000Y-6565000D01*
X17840000Y-6535000D02*
X17810000Y-6565000D01*
X17810000Y-6885000D02*
X17840000Y-6915000D01*
X17840000Y-6885000D02*
X17810000Y-6915000D01*
X17810000Y-7235000D02*
X17840000Y-7265000D01*
X17840000Y-7235000D02*
X17810000Y-7265000D01*
X17810000Y-7585000D02*
X17840000Y-7615000D01*
X17840000Y-7585000D02*
X17810000Y-7615000D01*
X17810000Y-7935000D02*
X17840000Y-7965000D01*
X17840000Y-7935000D02*
X17810000Y-7965000D01*
X17810000Y-8285000D02*
X17840000Y-8315000D01*
X17840000Y-8285000D02*
X17810000Y-8315000D01*
X17810000Y-8635000D02*
X17840000Y-8665000D01*
X17840000Y-8635000D02*
X17810000Y-8665000D01*
X17810000Y-8985000D02*
X17840000Y-9015000D01*
X17840000Y-8985000D02*
X17810000Y-9015000D01*
X17810000Y-10935000D02*
X17840000Y-10965000D01*
X17840000Y-10935000D02*
X17810000Y-10965000D01*
X17810000Y-11285000D02*
X17840000Y-11315000D01*
X17840000Y-11285000D02*
X17810000Y-11315000D01*
X17810000Y-11635000D02*
X17840000Y-11665000D01*
X17840000Y-11635000D02*
X17810000Y-11665000D01*
X17810000Y-11985000D02*
X17840000Y-12015000D01*
X17840000Y-11985000D02*
X17810000Y-12015000D01*
X17810000Y-12335000D02*
X17840000Y-12365000D01*
X17840000Y-12335000D02*
X17810000Y-12365000D01*
X17810000Y-12685000D02*
X17840000Y-12715000D01*
X17840000Y-12685000D02*
X17810000Y-12715000D01*
X17810000Y-13035000D02*
X17840000Y-13065000D01*
X17840000Y-13035000D02*
X17810000Y-13065000D01*
X17810000Y-13385000D02*
X17840000Y-13415000D01*
X17840000Y-13385000D02*
X17810000Y-13415000D01*
X17810000Y-13735000D02*
X17840000Y-13765000D01*
X17840000Y-13735000D02*
X17810000Y-13765000D01*
X17810000Y-14085000D02*
X17840000Y-14115000D01*
X17840000Y-14085000D02*
X17810000Y-14115000D01*
X18045000Y-9720000D02*
X18075000Y-9750000D01*
X18075000Y-9720000D02*
X18045000Y-9750000D01*
X18045000Y-14820000D02*
X18075000Y-14850000D01*
X18075000Y-14820000D02*
X18045000Y-14850000D01*
X18060000Y-5710000D02*
X18090000Y-5740000D01*
X18090000Y-5710000D02*
X18060000Y-5740000D01*
X18060000Y-10810000D02*
X18090000Y-10840000D01*
X18090000Y-10810000D02*
X18060000Y-10840000D01*
X18160000Y-5835000D02*
X18190000Y-5865000D01*
X18190000Y-5835000D02*
X18160000Y-5865000D01*
X18160000Y-6185000D02*
X18190000Y-6215000D01*
X18190000Y-6185000D02*
X18160000Y-6215000D01*
X18160000Y-6535000D02*
X18190000Y-6565000D01*
X18190000Y-6535000D02*
X18160000Y-6565000D01*
X18160000Y-6885000D02*
X18190000Y-6915000D01*
X18190000Y-6885000D02*
X18160000Y-6915000D01*
X18160000Y-7235000D02*
X18190000Y-7265000D01*
X18190000Y-7235000D02*
X18160000Y-7265000D01*
X18160000Y-7585000D02*
X18190000Y-7615000D01*
X18190000Y-7585000D02*
X18160000Y-7615000D01*
X18160000Y-7935000D02*
X18190000Y-7965000D01*
X18190000Y-7935000D02*
X18160000Y-7965000D01*
X18160000Y-8285000D02*
X18190000Y-8315000D01*
X18190000Y-8285000D02*
X18160000Y-8315000D01*
X18160000Y-8635000D02*
X18190000Y-8665000D01*
X18190000Y-8635000D02*
X18160000Y-8665000D01*
X18160000Y-8985000D02*
X18190000Y-9015000D01*
X18190000Y-8985000D02*
X18160000Y-9015000D01*
X18160000Y-10935000D02*
X18190000Y-10965000D01*
X18190000Y-10935000D02*
X18160000Y-10965000D01*
X18160000Y-11285000D02*
X18190000Y-11315000D01*
X18190000Y-11285000D02*
X18160000Y-11315000D01*
X18160000Y-11635000D02*
X18190000Y-11665000D01*
X18190000Y-11635000D02*
X18160000Y-11665000D01*
X18160000Y-11985000D02*
X18190000Y-12015000D01*
X18190000Y-11985000D02*
X18160000Y-12015000D01*
X18160000Y-12335000D02*
X18190000Y-12365000D01*
X18190000Y-12335000D02*
X18160000Y-12365000D01*
X18160000Y-12685000D02*
X18190000Y-12715000D01*
X18190000Y-12685000D02*
X18160000Y-12715000D01*
X18160000Y-13035000D02*
X18190000Y-13065000D01*
X18190000Y-13035000D02*
X18160000Y-13065000D01*
X18160000Y-13385000D02*
X18190000Y-13415000D01*
X18190000Y-13385000D02*
X18160000Y-13415000D01*
X18160000Y-13735000D02*
X18190000Y-13765000D01*
X18190000Y-13735000D02*
X18160000Y-13765000D01*
X18160000Y-14085000D02*
X18190000Y-14115000D01*
X18190000Y-14085000D02*
X18160000Y-14115000D01*
X18510000Y-5835000D02*
X18540000Y-5865000D01*
X18540000Y-5835000D02*
X18510000Y-5865000D01*
X18510000Y-6185000D02*
X18540000Y-6215000D01*
X18540000Y-6185000D02*
X18510000Y-6215000D01*
X18510000Y-6535000D02*
X18540000Y-6565000D01*
X18540000Y-6535000D02*
X18510000Y-6565000D01*
X18510000Y-6885000D02*
X18540000Y-6915000D01*
X18540000Y-6885000D02*
X18510000Y-6915000D01*
X18510000Y-7235000D02*
X18540000Y-7265000D01*
X18540000Y-7235000D02*
X18510000Y-7265000D01*
X18510000Y-7585000D02*
X18540000Y-7615000D01*
X18540000Y-7585000D02*
X18510000Y-7615000D01*
X18510000Y-7935000D02*
X18540000Y-7965000D01*
X18540000Y-7935000D02*
X18510000Y-7965000D01*
X18510000Y-8285000D02*
X18540000Y-8315000D01*
X18540000Y-8285000D02*
X18510000Y-8315000D01*
X18510000Y-8635000D02*
X18540000Y-8665000D01*
X18540000Y-8635000D02*
X18510000Y-8665000D01*
X18510000Y-8985000D02*
X18540000Y-9015000D01*
X18540000Y-8985000D02*
X18510000Y-9015000D01*
X18510000Y-10935000D02*
X18540000Y-10965000D01*
X18540000Y-10935000D02*
X18510000Y-10965000D01*
X18510000Y-11285000D02*
X18540000Y-11315000D01*
X18540000Y-11285000D02*
X18510000Y-11315000D01*
X18510000Y-11635000D02*
X18540000Y-11665000D01*
X18540000Y-11635000D02*
X18510000Y-11665000D01*
X18510000Y-11985000D02*
X18540000Y-12015000D01*
X18540000Y-11985000D02*
X18510000Y-12015000D01*
X18510000Y-12335000D02*
X18540000Y-12365000D01*
X18540000Y-12335000D02*
X18510000Y-12365000D01*
X18510000Y-12685000D02*
X18540000Y-12715000D01*
X18540000Y-12685000D02*
X18510000Y-12715000D01*
X18510000Y-13035000D02*
X18540000Y-13065000D01*
X18540000Y-13035000D02*
X18510000Y-13065000D01*
X18510000Y-13385000D02*
X18540000Y-13415000D01*
X18540000Y-13385000D02*
X18510000Y-13415000D01*
X18510000Y-13735000D02*
X18540000Y-13765000D01*
X18540000Y-13735000D02*
X18510000Y-13765000D01*
X18510000Y-14085000D02*
X18540000Y-14115000D01*
X18540000Y-14085000D02*
X18510000Y-14115000D01*
D11*
X10255119Y-15312976D02*
X10255119Y-15112976D01*
X10302738Y-15112976D01*
X10331310Y-15122500D01*
X10350357Y-15141548D01*
X10359881Y-15160595D01*
X10369405Y-15198690D01*
X10369405Y-15227262D01*
X10359881Y-15265357D01*
X10350357Y-15284405D01*
X10331310Y-15303452D01*
X10302738Y-15312976D01*
X10255119Y-15312976D01*
X10455119Y-15312976D02*
X10455119Y-15179643D01*
X10455119Y-15217738D02*
X10464643Y-15198690D01*
X10474167Y-15189167D01*
X10493214Y-15179643D01*
X10512262Y-15179643D01*
X10578929Y-15312976D02*
X10578929Y-15179643D01*
X10578929Y-15112976D02*
X10569405Y-15122500D01*
X10578929Y-15132024D01*
X10588452Y-15122500D01*
X10578929Y-15112976D01*
X10578929Y-15132024D01*
X10702738Y-15312976D02*
X10683690Y-15303452D01*
X10674167Y-15284405D01*
X10674167Y-15112976D01*
X10807500Y-15312976D02*
X10788452Y-15303452D01*
X10778929Y-15284405D01*
X10778929Y-15112976D01*
X11036071Y-15312976D02*
X11036071Y-15112976D01*
X11102738Y-15255833D01*
X11169405Y-15112976D01*
X11169405Y-15312976D01*
X11350357Y-15312976D02*
X11350357Y-15208214D01*
X11340833Y-15189167D01*
X11321786Y-15179643D01*
X11283690Y-15179643D01*
X11264643Y-15189167D01*
X11350357Y-15303452D02*
X11331309Y-15312976D01*
X11283690Y-15312976D01*
X11264643Y-15303452D01*
X11255119Y-15284405D01*
X11255119Y-15265357D01*
X11264643Y-15246309D01*
X11283690Y-15236786D01*
X11331309Y-15236786D01*
X11350357Y-15227262D01*
X11445595Y-15179643D02*
X11445595Y-15379643D01*
X11445595Y-15189167D02*
X11464643Y-15179643D01*
X11502738Y-15179643D01*
X11521786Y-15189167D01*
X11531309Y-15198690D01*
X11540833Y-15217738D01*
X11540833Y-15274881D01*
X11531309Y-15293928D01*
X11521786Y-15303452D01*
X11502738Y-15312976D01*
X11464643Y-15312976D01*
X11445595Y-15303452D01*
X11626548Y-15293928D02*
X11636071Y-15303452D01*
X11626548Y-15312976D01*
X11617024Y-15303452D01*
X11626548Y-15293928D01*
X11626548Y-15312976D01*
X11626548Y-15189167D02*
X11636071Y-15198690D01*
X11626548Y-15208214D01*
X11617024Y-15198690D01*
X11626548Y-15189167D01*
X11626548Y-15208214D01*
D12*
X9967500Y-15627500D02*
X9997500Y-15657500D01*
X9997500Y-15627500D02*
X9967500Y-15657500D01*
D11*
X10293214Y-15532976D02*
X10312262Y-15532976D01*
X10331310Y-15542500D01*
X10340833Y-15552024D01*
X10350357Y-15571071D01*
X10359881Y-15609167D01*
X10359881Y-15656786D01*
X10350357Y-15694881D01*
X10340833Y-15713928D01*
X10331310Y-15723452D01*
X10312262Y-15732976D01*
X10293214Y-15732976D01*
X10274167Y-15723452D01*
X10264643Y-15713928D01*
X10255119Y-15694881D01*
X10245595Y-15656786D01*
X10245595Y-15609167D01*
X10255119Y-15571071D01*
X10264643Y-15552024D01*
X10274167Y-15542500D01*
X10293214Y-15532976D01*
X10445595Y-15713928D02*
X10455119Y-15723452D01*
X10445595Y-15732976D01*
X10436071Y-15723452D01*
X10445595Y-15713928D01*
X10445595Y-15732976D01*
X10521786Y-15532976D02*
X10645595Y-15532976D01*
X10578929Y-15609167D01*
X10607500Y-15609167D01*
X10626548Y-15618690D01*
X10636071Y-15628214D01*
X10645595Y-15647262D01*
X10645595Y-15694881D01*
X10636071Y-15713928D01*
X10626548Y-15723452D01*
X10607500Y-15732976D01*
X10550357Y-15732976D01*
X10531310Y-15723452D01*
X10521786Y-15713928D01*
X10769405Y-15532976D02*
X10788452Y-15532976D01*
X10807500Y-15542500D01*
X10817024Y-15552024D01*
X10826548Y-15571071D01*
X10836071Y-15609167D01*
X10836071Y-15656786D01*
X10826548Y-15694881D01*
X10817024Y-15713928D01*
X10807500Y-15723452D01*
X10788452Y-15732976D01*
X10769405Y-15732976D01*
X10750357Y-15723452D01*
X10740833Y-15713928D01*
X10731310Y-15694881D01*
X10721786Y-15656786D01*
X10721786Y-15609167D01*
X10731310Y-15571071D01*
X10740833Y-15552024D01*
X10750357Y-15542500D01*
X10769405Y-15532976D01*
X10959881Y-15532976D02*
X10978929Y-15532976D01*
X10997976Y-15542500D01*
X11007500Y-15552024D01*
X11017024Y-15571071D01*
X11026548Y-15609167D01*
X11026548Y-15656786D01*
X11017024Y-15694881D01*
X11007500Y-15713928D01*
X10997976Y-15723452D01*
X10978929Y-15732976D01*
X10959881Y-15732976D01*
X10940833Y-15723452D01*
X10931310Y-15713928D01*
X10921786Y-15694881D01*
X10912262Y-15656786D01*
X10912262Y-15609167D01*
X10921786Y-15571071D01*
X10931310Y-15552024D01*
X10940833Y-15542500D01*
X10959881Y-15532976D01*
X11112262Y-15732976D02*
X11112262Y-15599643D01*
X11112262Y-15618690D02*
X11121786Y-15609167D01*
X11140833Y-15599643D01*
X11169405Y-15599643D01*
X11188452Y-15609167D01*
X11197976Y-15628214D01*
X11197976Y-15732976D01*
X11197976Y-15628214D02*
X11207500Y-15609167D01*
X11226548Y-15599643D01*
X11255119Y-15599643D01*
X11274167Y-15609167D01*
X11283690Y-15628214D01*
X11283690Y-15732976D01*
X11378928Y-15732976D02*
X11378928Y-15599643D01*
X11378928Y-15618690D02*
X11388452Y-15609167D01*
X11407500Y-15599643D01*
X11436071Y-15599643D01*
X11455119Y-15609167D01*
X11464643Y-15628214D01*
X11464643Y-15732976D01*
X11464643Y-15628214D02*
X11474167Y-15609167D01*
X11493214Y-15599643D01*
X11521786Y-15599643D01*
X11540833Y-15609167D01*
X11550357Y-15628214D01*
X11550357Y-15732976D01*
X11940833Y-15523452D02*
X11769405Y-15780595D01*
X12197976Y-15532976D02*
X12217024Y-15532976D01*
X12236071Y-15542500D01*
X12245595Y-15552024D01*
X12255119Y-15571071D01*
X12264643Y-15609167D01*
X12264643Y-15656786D01*
X12255119Y-15694881D01*
X12245595Y-15713928D01*
X12236071Y-15723452D01*
X12217024Y-15732976D01*
X12197976Y-15732976D01*
X12178928Y-15723452D01*
X12169405Y-15713928D01*
X12159881Y-15694881D01*
X12150357Y-15656786D01*
X12150357Y-15609167D01*
X12159881Y-15571071D01*
X12169405Y-15552024D01*
X12178928Y-15542500D01*
X12197976Y-15532976D01*
X12350357Y-15713928D02*
X12359881Y-15723452D01*
X12350357Y-15732976D01*
X12340833Y-15723452D01*
X12350357Y-15713928D01*
X12350357Y-15732976D01*
X12483690Y-15532976D02*
X12502738Y-15532976D01*
X12521786Y-15542500D01*
X12531309Y-15552024D01*
X12540833Y-15571071D01*
X12550357Y-15609167D01*
X12550357Y-15656786D01*
X12540833Y-15694881D01*
X12531309Y-15713928D01*
X12521786Y-15723452D01*
X12502738Y-15732976D01*
X12483690Y-15732976D01*
X12464643Y-15723452D01*
X12455119Y-15713928D01*
X12445595Y-15694881D01*
X12436071Y-15656786D01*
X12436071Y-15609167D01*
X12445595Y-15571071D01*
X12455119Y-15552024D01*
X12464643Y-15542500D01*
X12483690Y-15532976D01*
X12740833Y-15732976D02*
X12626548Y-15732976D01*
X12683690Y-15732976D02*
X12683690Y-15532976D01*
X12664643Y-15561548D01*
X12645595Y-15580595D01*
X12626548Y-15590119D01*
X12931309Y-15732976D02*
X12817024Y-15732976D01*
X12874167Y-15732976D02*
X12874167Y-15532976D01*
X12855119Y-15561548D01*
X12836071Y-15580595D01*
X12817024Y-15590119D01*
X13045595Y-15618690D02*
X13026548Y-15609167D01*
X13017024Y-15599643D01*
X13007500Y-15580595D01*
X13007500Y-15571071D01*
X13017024Y-15552024D01*
X13026548Y-15542500D01*
X13045595Y-15532976D01*
X13083690Y-15532976D01*
X13102738Y-15542500D01*
X13112262Y-15552024D01*
X13121786Y-15571071D01*
X13121786Y-15580595D01*
X13112262Y-15599643D01*
X13102738Y-15609167D01*
X13083690Y-15618690D01*
X13045595Y-15618690D01*
X13026548Y-15628214D01*
X13017024Y-15637738D01*
X13007500Y-15656786D01*
X13007500Y-15694881D01*
X13017024Y-15713928D01*
X13026548Y-15723452D01*
X13045595Y-15732976D01*
X13083690Y-15732976D01*
X13102738Y-15723452D01*
X13112262Y-15713928D01*
X13121786Y-15694881D01*
X13121786Y-15656786D01*
X13112262Y-15637738D01*
X13102738Y-15628214D01*
X13083690Y-15618690D01*
X13197976Y-15532976D02*
X13197976Y-15571071D01*
X13274167Y-15532976D02*
X13274167Y-15571071D01*
X13569405Y-15809167D02*
X13559881Y-15799643D01*
X13540833Y-15771071D01*
X13531309Y-15752024D01*
X13521786Y-15723452D01*
X13512262Y-15675833D01*
X13512262Y-15637738D01*
X13521786Y-15590119D01*
X13531309Y-15561548D01*
X13540833Y-15542500D01*
X13559881Y-15513928D01*
X13569405Y-15504405D01*
X13636071Y-15552024D02*
X13645595Y-15542500D01*
X13664643Y-15532976D01*
X13712262Y-15532976D01*
X13731309Y-15542500D01*
X13740833Y-15552024D01*
X13750357Y-15571071D01*
X13750357Y-15590119D01*
X13740833Y-15618690D01*
X13626548Y-15732976D01*
X13750357Y-15732976D01*
X13864643Y-15618690D02*
X13845595Y-15609167D01*
X13836071Y-15599643D01*
X13826548Y-15580595D01*
X13826548Y-15571071D01*
X13836071Y-15552024D01*
X13845595Y-15542500D01*
X13864643Y-15532976D01*
X13902738Y-15532976D01*
X13921786Y-15542500D01*
X13931309Y-15552024D01*
X13940833Y-15571071D01*
X13940833Y-15580595D01*
X13931309Y-15599643D01*
X13921786Y-15609167D01*
X13902738Y-15618690D01*
X13864643Y-15618690D01*
X13845595Y-15628214D01*
X13836071Y-15637738D01*
X13826548Y-15656786D01*
X13826548Y-15694881D01*
X13836071Y-15713928D01*
X13845595Y-15723452D01*
X13864643Y-15732976D01*
X13902738Y-15732976D01*
X13921786Y-15723452D01*
X13931309Y-15713928D01*
X13940833Y-15694881D01*
X13940833Y-15656786D01*
X13931309Y-15637738D01*
X13921786Y-15628214D01*
X13902738Y-15618690D01*
X14055119Y-15618690D02*
X14036071Y-15609167D01*
X14026548Y-15599643D01*
X14017024Y-15580595D01*
X14017024Y-15571071D01*
X14026548Y-15552024D01*
X14036071Y-15542500D01*
X14055119Y-15532976D01*
X14093214Y-15532976D01*
X14112262Y-15542500D01*
X14121786Y-15552024D01*
X14131309Y-15571071D01*
X14131309Y-15580595D01*
X14121786Y-15599643D01*
X14112262Y-15609167D01*
X14093214Y-15618690D01*
X14055119Y-15618690D01*
X14036071Y-15628214D01*
X14026548Y-15637738D01*
X14017024Y-15656786D01*
X14017024Y-15694881D01*
X14026548Y-15713928D01*
X14036071Y-15723452D01*
X14055119Y-15732976D01*
X14093214Y-15732976D01*
X14112262Y-15723452D01*
X14121786Y-15713928D01*
X14131309Y-15694881D01*
X14131309Y-15656786D01*
X14121786Y-15637738D01*
X14112262Y-15628214D01*
X14093214Y-15618690D01*
X14369405Y-15732976D02*
X14369405Y-15532976D01*
X14455119Y-15732976D02*
X14455119Y-15628214D01*
X14445595Y-15609167D01*
X14426548Y-15599643D01*
X14397976Y-15599643D01*
X14378928Y-15609167D01*
X14369405Y-15618690D01*
X14578928Y-15732976D02*
X14559881Y-15723452D01*
X14550357Y-15713928D01*
X14540833Y-15694881D01*
X14540833Y-15637738D01*
X14550357Y-15618690D01*
X14559881Y-15609167D01*
X14578928Y-15599643D01*
X14607500Y-15599643D01*
X14626548Y-15609167D01*
X14636071Y-15618690D01*
X14645595Y-15637738D01*
X14645595Y-15694881D01*
X14636071Y-15713928D01*
X14626548Y-15723452D01*
X14607500Y-15732976D01*
X14578928Y-15732976D01*
X14759881Y-15732976D02*
X14740833Y-15723452D01*
X14731309Y-15704405D01*
X14731309Y-15532976D01*
X14912262Y-15723452D02*
X14893214Y-15732976D01*
X14855119Y-15732976D01*
X14836071Y-15723452D01*
X14826548Y-15704405D01*
X14826548Y-15628214D01*
X14836071Y-15609167D01*
X14855119Y-15599643D01*
X14893214Y-15599643D01*
X14912262Y-15609167D01*
X14921786Y-15628214D01*
X14921786Y-15647262D01*
X14826548Y-15666309D01*
X14997976Y-15723452D02*
X15017024Y-15732976D01*
X15055119Y-15732976D01*
X15074167Y-15723452D01*
X15083690Y-15704405D01*
X15083690Y-15694881D01*
X15074167Y-15675833D01*
X15055119Y-15666309D01*
X15026548Y-15666309D01*
X15007500Y-15656786D01*
X14997976Y-15637738D01*
X14997976Y-15628214D01*
X15007500Y-15609167D01*
X15026548Y-15599643D01*
X15055119Y-15599643D01*
X15074167Y-15609167D01*
X15150357Y-15809167D02*
X15159881Y-15799643D01*
X15178928Y-15771071D01*
X15188452Y-15752024D01*
X15197976Y-15723452D01*
X15207500Y-15675833D01*
X15207500Y-15637738D01*
X15197976Y-15590119D01*
X15188452Y-15561548D01*
X15178928Y-15542500D01*
X15159881Y-15513928D01*
X15150357Y-15504405D01*
M02*
