G04 #@! TF.GenerationSoftware,KiCad,Pcbnew,(6.0.9)*
G04 #@! TF.CreationDate,2023-02-03T02:11:26-05:00*
G04 #@! TF.ProjectId,businesscard_panel,62757369-6e65-4737-9363-6172645f7061,rev?*
G04 #@! TF.SameCoordinates,Original*
G04 #@! TF.FileFunction,Legend,Bot*
G04 #@! TF.FilePolarity,Positive*
%FSLAX46Y46*%
G04 Gerber Fmt 4.6, Leading zero omitted, Abs format (unit mm)*
G04 Created by KiCad (PCBNEW (6.0.9)) date 2023-02-03 02:11:26*
%MOMM*%
%LPD*%
G01*
G04 APERTURE LIST*
G04 Aperture macros list*
%AMRoundRect*
0 Rectangle with rounded corners*
0 $1 Rounding radius*
0 $2 $3 $4 $5 $6 $7 $8 $9 X,Y pos of 4 corners*
0 Add a 4 corners polygon primitive as box body*
4,1,4,$2,$3,$4,$5,$6,$7,$8,$9,$2,$3,0*
0 Add four circle primitives for the rounded corners*
1,1,$1+$1,$2,$3*
1,1,$1+$1,$4,$5*
1,1,$1+$1,$6,$7*
1,1,$1+$1,$8,$9*
0 Add four rect primitives between the rounded corners*
20,1,$1+$1,$2,$3,$4,$5,0*
20,1,$1+$1,$4,$5,$6,$7,0*
20,1,$1+$1,$6,$7,$8,$9,0*
20,1,$1+$1,$8,$9,$2,$3,0*%
%AMRotRect*
0 Rectangle, with rotation*
0 The origin of the aperture is its center*
0 $1 length*
0 $2 width*
0 $3 Rotation angle, in degrees counterclockwise*
0 Add horizontal line*
21,1,$1,$2,0,0,$3*%
%AMFreePoly0*
4,1,15,-1.143000,0.750000,1.143000,0.750000,1.143000,-0.375000,1.127371,-0.482133,1.073293,-0.592764,0.986296,-0.679914,0.875760,-0.734183,0.768000,-0.750000,-0.768000,-0.750000,-0.875133,-0.734371,-0.985764,-0.680293,-1.072913,-0.593297,-1.127183,-0.482760,-1.143000,-0.375000,-1.143000,0.750000,-1.143000,0.750000,$1*%
%AMFreePoly1*
4,1,15,-1.143000,0.375000,-1.127371,0.482133,-1.073293,0.592764,-0.986296,0.679914,-0.875760,0.734183,-0.768000,0.750000,0.768000,0.750000,0.875133,0.734371,0.985764,0.680293,1.072913,0.593297,1.127183,0.482760,1.143000,0.375000,1.143000,-0.750000,-1.143000,-0.750000,-1.143000,0.375000,-1.143000,0.375000,$1*%
G04 Aperture macros list end*
%ADD10C,0.150000*%
%ADD11C,0.120000*%
%ADD12C,1.500000*%
%ADD13RoundRect,0.237500X-0.618718X0.282843X0.282843X-0.618718X0.618718X-0.282843X-0.282843X0.618718X0*%
%ADD14C,0.600000*%
%ADD15O,0.800000X1.500000*%
%ADD16RotRect,1.700000X1.500000X315.000000*%
%ADD17RotRect,1.700000X1.500000X45.000000*%
%ADD18RoundRect,0.100000X0.100000X-1.337500X0.100000X1.337500X-0.100000X1.337500X-0.100000X-1.337500X0*%
%ADD19RotRect,3.000000X6.000000X45.000000*%
%ADD20FreePoly0,135.000000*%
%ADD21FreePoly1,135.000000*%
%ADD22RotRect,1.700000X1.500000X225.000000*%
%ADD23R,1.700000X1.500000*%
%ADD24RotRect,1.700000X1.500000X135.000000*%
%ADD25RoundRect,0.160000X0.160000X-0.197500X0.160000X0.197500X-0.160000X0.197500X-0.160000X-0.197500X0*%
%ADD26RoundRect,0.160000X-0.026517X-0.252791X0.252791X0.026517X0.026517X0.252791X-0.252791X-0.026517X0*%
%ADD27RoundRect,0.155000X0.212500X0.155000X-0.212500X0.155000X-0.212500X-0.155000X0.212500X-0.155000X0*%
%ADD28RoundRect,0.160000X-0.252791X0.026517X0.026517X-0.252791X0.252791X-0.026517X-0.026517X0.252791X0*%
%ADD29RoundRect,0.160000X0.026517X0.252791X-0.252791X-0.026517X-0.026517X-0.252791X0.252791X0.026517X0*%
%ADD30RoundRect,0.160000X0.252791X-0.026517X-0.026517X0.252791X-0.252791X0.026517X0.026517X-0.252791X0*%
%ADD31RoundRect,0.155000X0.155000X-0.212500X0.155000X0.212500X-0.155000X0.212500X-0.155000X-0.212500X0*%
G04 APERTURE END LIST*
D10*
X127380952Y-99452380D02*
X127380952Y-100166666D01*
X127333333Y-100309523D01*
X127238095Y-100404761D01*
X127095238Y-100452380D01*
X127000000Y-100452380D01*
X128333333Y-100452380D02*
X127857142Y-100452380D01*
X127857142Y-99452380D01*
X129238095Y-100357142D02*
X129190476Y-100404761D01*
X129047619Y-100452380D01*
X128952380Y-100452380D01*
X128809523Y-100404761D01*
X128714285Y-100309523D01*
X128666666Y-100214285D01*
X128619047Y-100023809D01*
X128619047Y-99880952D01*
X128666666Y-99690476D01*
X128714285Y-99595238D01*
X128809523Y-99500000D01*
X128952380Y-99452380D01*
X129047619Y-99452380D01*
X129190476Y-99500000D01*
X129238095Y-99547619D01*
X129952380Y-99452380D02*
X129952380Y-100166666D01*
X129904761Y-100309523D01*
X129809523Y-100404761D01*
X129666666Y-100452380D01*
X129571428Y-100452380D01*
X130904761Y-100452380D02*
X130428571Y-100452380D01*
X130428571Y-99452380D01*
X131809523Y-100357142D02*
X131761904Y-100404761D01*
X131619047Y-100452380D01*
X131523809Y-100452380D01*
X131380952Y-100404761D01*
X131285714Y-100309523D01*
X131238095Y-100214285D01*
X131190476Y-100023809D01*
X131190476Y-99880952D01*
X131238095Y-99690476D01*
X131285714Y-99595238D01*
X131380952Y-99500000D01*
X131523809Y-99452380D01*
X131619047Y-99452380D01*
X131761904Y-99500000D01*
X131809523Y-99547619D01*
X132523809Y-99452380D02*
X132523809Y-100166666D01*
X132476190Y-100309523D01*
X132380952Y-100404761D01*
X132238095Y-100452380D01*
X132142857Y-100452380D01*
X133476190Y-100452380D02*
X133000000Y-100452380D01*
X133000000Y-99452380D01*
X134380952Y-100357142D02*
X134333333Y-100404761D01*
X134190476Y-100452380D01*
X134095238Y-100452380D01*
X133952380Y-100404761D01*
X133857142Y-100309523D01*
X133809523Y-100214285D01*
X133761904Y-100023809D01*
X133761904Y-99880952D01*
X133809523Y-99690476D01*
X133857142Y-99595238D01*
X133952380Y-99500000D01*
X134095238Y-99452380D01*
X134190476Y-99452380D01*
X134333333Y-99500000D01*
X134380952Y-99547619D01*
X135095238Y-99452380D02*
X135095238Y-100166666D01*
X135047619Y-100309523D01*
X134952380Y-100404761D01*
X134809523Y-100452380D01*
X134714285Y-100452380D01*
X136047619Y-100452380D02*
X135571428Y-100452380D01*
X135571428Y-99452380D01*
X136952380Y-100357142D02*
X136904761Y-100404761D01*
X136761904Y-100452380D01*
X136666666Y-100452380D01*
X136523809Y-100404761D01*
X136428571Y-100309523D01*
X136380952Y-100214285D01*
X136333333Y-100023809D01*
X136333333Y-99880952D01*
X136380952Y-99690476D01*
X136428571Y-99595238D01*
X136523809Y-99500000D01*
X136666666Y-99452380D01*
X136761904Y-99452380D01*
X136904761Y-99500000D01*
X136952380Y-99547619D01*
D11*
X168464089Y-56424642D02*
X167424642Y-57464089D01*
X170606622Y-58567175D02*
X168464089Y-56424642D01*
X167424642Y-57464089D02*
X169567175Y-59606622D01*
X171964089Y-135424642D02*
X170924642Y-136464089D01*
X174106622Y-137567175D02*
X171964089Y-135424642D01*
X170924642Y-136464089D02*
X173067175Y-138606622D01*
X182464089Y-56424642D02*
X181424642Y-57464089D01*
X181424642Y-57464089D02*
X183567175Y-59606622D01*
X184606622Y-58567175D02*
X182464089Y-56424642D01*
X181106622Y-79567175D02*
X178964089Y-77424642D01*
X177924642Y-78464089D02*
X180067175Y-80606622D01*
X178964089Y-77424642D02*
X177924642Y-78464089D01*
X167106622Y-58567175D02*
X164964089Y-56424642D01*
X163924642Y-57464089D02*
X166067175Y-59606622D01*
X164964089Y-56424642D02*
X163924642Y-57464089D01*
X153424642Y-122464089D02*
X155567175Y-124606622D01*
X154464089Y-121424642D02*
X153424642Y-122464089D01*
X156606622Y-123567175D02*
X154464089Y-121424642D01*
X171964089Y-80924642D02*
X170924642Y-81964089D01*
X174106622Y-83067175D02*
X171964089Y-80924642D01*
X170924642Y-81964089D02*
X173067175Y-84106622D01*
X164964089Y-124924642D02*
X163924642Y-125964089D01*
X163924642Y-125964089D02*
X166067175Y-128106622D01*
X167106622Y-127067175D02*
X164964089Y-124924642D01*
X160106622Y-113067175D02*
X157964089Y-110924642D01*
X156924642Y-111964089D02*
X159067175Y-114106622D01*
X157964089Y-110924642D02*
X156924642Y-111964089D01*
X154464089Y-124924642D02*
X153424642Y-125964089D01*
X153424642Y-125964089D02*
X155567175Y-128106622D01*
X156606622Y-127067175D02*
X154464089Y-124924642D01*
X181106622Y-120067175D02*
X178964089Y-117924642D01*
X177924642Y-118964089D02*
X180067175Y-121106622D01*
X178964089Y-117924642D02*
X177924642Y-118964089D01*
X170924642Y-125964089D02*
X173067175Y-128106622D01*
X174106622Y-127067175D02*
X171964089Y-124924642D01*
X171964089Y-124924642D02*
X170924642Y-125964089D01*
X161464089Y-87924642D02*
X160424642Y-88964089D01*
X160424642Y-88964089D02*
X162567175Y-91106622D01*
X163606622Y-90067175D02*
X161464089Y-87924642D01*
X178964089Y-73924642D02*
X177924642Y-74964089D01*
X181106622Y-76067175D02*
X178964089Y-73924642D01*
X177924642Y-74964089D02*
X180067175Y-77106622D01*
X163924642Y-115464089D02*
X166067175Y-117606622D01*
X164964089Y-114424642D02*
X163924642Y-115464089D01*
X167106622Y-116567175D02*
X164964089Y-114424642D01*
X174106622Y-141067175D02*
X171964089Y-138924642D01*
X170924642Y-139964089D02*
X173067175Y-142106622D01*
X171964089Y-138924642D02*
X170924642Y-139964089D01*
X175464089Y-107424642D02*
X174424642Y-108464089D01*
X177606622Y-109567175D02*
X175464089Y-107424642D01*
X174424642Y-108464089D02*
X176567175Y-110606622D01*
X146424642Y-85464089D02*
X148567175Y-87606622D01*
X149606622Y-86567175D02*
X147464089Y-84424642D01*
X147464089Y-84424642D02*
X146424642Y-85464089D01*
X149924642Y-88964089D02*
X152067175Y-91106622D01*
X150964089Y-87924642D02*
X149924642Y-88964089D01*
X153106622Y-90067175D02*
X150964089Y-87924642D01*
X163606622Y-72567175D02*
X161464089Y-70424642D01*
X161464089Y-70424642D02*
X160424642Y-71464089D01*
X160424642Y-71464089D02*
X162567175Y-73606622D01*
X153424642Y-118964089D02*
X155567175Y-121106622D01*
X156606622Y-120067175D02*
X154464089Y-117924642D01*
X154464089Y-117924642D02*
X153424642Y-118964089D01*
X177924642Y-139964089D02*
X180067175Y-142106622D01*
X181106622Y-141067175D02*
X178964089Y-138924642D01*
X178964089Y-138924642D02*
X177924642Y-139964089D01*
X163606622Y-58567175D02*
X161464089Y-56424642D01*
X161464089Y-56424642D02*
X160424642Y-57464089D01*
X160424642Y-57464089D02*
X162567175Y-59606622D01*
X175464089Y-70424642D02*
X174424642Y-71464089D01*
X174424642Y-71464089D02*
X176567175Y-73606622D01*
X177606622Y-72567175D02*
X175464089Y-70424642D01*
X163606622Y-62067175D02*
X161464089Y-59924642D01*
X161464089Y-59924642D02*
X160424642Y-60964089D01*
X160424642Y-60964089D02*
X162567175Y-63106622D01*
X160106622Y-62067175D02*
X157964089Y-59924642D01*
X156924642Y-60964089D02*
X159067175Y-63106622D01*
X157964089Y-59924642D02*
X156924642Y-60964089D01*
X181424642Y-129464089D02*
X183567175Y-131606622D01*
X184606622Y-130567175D02*
X182464089Y-128424642D01*
X182464089Y-128424642D02*
X181424642Y-129464089D01*
X170606622Y-134067175D02*
X168464089Y-131924642D01*
X167424642Y-132964089D02*
X169567175Y-135106622D01*
X168464089Y-131924642D02*
X167424642Y-132964089D01*
X181424642Y-118964089D02*
X183567175Y-121106622D01*
X182464089Y-117924642D02*
X181424642Y-118964089D01*
X184606622Y-120067175D02*
X182464089Y-117924642D01*
X171964089Y-70424642D02*
X170924642Y-71464089D01*
X174106622Y-72567175D02*
X171964089Y-70424642D01*
X170924642Y-71464089D02*
X173067175Y-73606622D01*
X164964089Y-80924642D02*
X163924642Y-81964089D01*
X167106622Y-83067175D02*
X164964089Y-80924642D01*
X163924642Y-81964089D02*
X166067175Y-84106622D01*
X170924642Y-57464089D02*
X173067175Y-59606622D01*
X174106622Y-58567175D02*
X171964089Y-56424642D01*
X171964089Y-56424642D02*
X170924642Y-57464089D01*
X149924642Y-71464089D02*
X152067175Y-73606622D01*
X150964089Y-70424642D02*
X149924642Y-71464089D01*
X153106622Y-72567175D02*
X150964089Y-70424642D01*
X168464089Y-66924642D02*
X167424642Y-67964089D01*
X167424642Y-67964089D02*
X169567175Y-70106622D01*
X170606622Y-69067175D02*
X168464089Y-66924642D01*
X163606622Y-137567175D02*
X161464089Y-135424642D01*
X160424642Y-136464089D02*
X162567175Y-138606622D01*
X161464089Y-135424642D02*
X160424642Y-136464089D01*
X174424642Y-74964089D02*
X176567175Y-77106622D01*
X175464089Y-73924642D02*
X174424642Y-74964089D01*
X177606622Y-76067175D02*
X175464089Y-73924642D01*
X164964089Y-84424642D02*
X163924642Y-85464089D01*
X167106622Y-86567175D02*
X164964089Y-84424642D01*
X163924642Y-85464089D02*
X166067175Y-87606622D01*
X164964089Y-128424642D02*
X163924642Y-129464089D01*
X167106622Y-130567175D02*
X164964089Y-128424642D01*
X163924642Y-129464089D02*
X166067175Y-131606622D01*
X177606622Y-62067175D02*
X175464089Y-59924642D01*
X175464089Y-59924642D02*
X174424642Y-60964089D01*
X174424642Y-60964089D02*
X176567175Y-63106622D01*
X160424642Y-81964089D02*
X162567175Y-84106622D01*
X161464089Y-80924642D02*
X160424642Y-81964089D01*
X163606622Y-83067175D02*
X161464089Y-80924642D01*
X154464089Y-63424642D02*
X153424642Y-64464089D01*
X153424642Y-64464089D02*
X155567175Y-66606622D01*
X156606622Y-65567175D02*
X154464089Y-63424642D01*
X174106622Y-116567175D02*
X171964089Y-114424642D01*
X171964089Y-114424642D02*
X170924642Y-115464089D01*
X170924642Y-115464089D02*
X173067175Y-117606622D01*
X160106622Y-120067175D02*
X157964089Y-117924642D01*
X156924642Y-118964089D02*
X159067175Y-121106622D01*
X157964089Y-117924642D02*
X156924642Y-118964089D01*
X182464089Y-114424642D02*
X181424642Y-115464089D01*
X181424642Y-115464089D02*
X183567175Y-117606622D01*
X184606622Y-116567175D02*
X182464089Y-114424642D01*
X167424642Y-136464089D02*
X169567175Y-138606622D01*
X170606622Y-137567175D02*
X168464089Y-135424642D01*
X168464089Y-135424642D02*
X167424642Y-136464089D01*
X167106622Y-109567175D02*
X164964089Y-107424642D01*
X163924642Y-108464089D02*
X166067175Y-110606622D01*
X164964089Y-107424642D02*
X163924642Y-108464089D01*
X153424642Y-111964089D02*
X155567175Y-114106622D01*
X154464089Y-110924642D02*
X153424642Y-111964089D01*
X156606622Y-113067175D02*
X154464089Y-110924642D01*
X146424642Y-81964089D02*
X148567175Y-84106622D01*
X147464089Y-80924642D02*
X146424642Y-81964089D01*
X149606622Y-83067175D02*
X147464089Y-80924642D01*
X154464089Y-84424642D02*
X153424642Y-85464089D01*
X156606622Y-86567175D02*
X154464089Y-84424642D01*
X153424642Y-85464089D02*
X155567175Y-87606622D01*
X182464089Y-124924642D02*
X181424642Y-125964089D01*
X184606622Y-127067175D02*
X182464089Y-124924642D01*
X181424642Y-125964089D02*
X183567175Y-128106622D01*
X163606622Y-86567175D02*
X161464089Y-84424642D01*
X160424642Y-85464089D02*
X162567175Y-87606622D01*
X161464089Y-84424642D02*
X160424642Y-85464089D01*
X167106622Y-123567175D02*
X164964089Y-121424642D01*
X164964089Y-121424642D02*
X163924642Y-122464089D01*
X163924642Y-122464089D02*
X166067175Y-124606622D01*
X177924642Y-60964089D02*
X180067175Y-63106622D01*
X178964089Y-59924642D02*
X177924642Y-60964089D01*
X181106622Y-62067175D02*
X178964089Y-59924642D01*
X146424642Y-122464089D02*
X148567175Y-124606622D01*
X147464089Y-121424642D02*
X146424642Y-122464089D01*
X149606622Y-123567175D02*
X147464089Y-121424642D01*
X105615000Y-117750000D02*
X105615000Y-117000000D01*
X149924642Y-132964089D02*
X152067175Y-135106622D01*
X153106622Y-134067175D02*
X150964089Y-131924642D01*
X150964089Y-131924642D02*
X149924642Y-132964089D01*
X181424642Y-122464089D02*
X183567175Y-124606622D01*
X184606622Y-123567175D02*
X182464089Y-121424642D01*
X182464089Y-121424642D02*
X181424642Y-122464089D01*
X160106622Y-79567175D02*
X157964089Y-77424642D01*
X156924642Y-78464089D02*
X159067175Y-80606622D01*
X157964089Y-77424642D02*
X156924642Y-78464089D01*
X163924642Y-64464089D02*
X166067175Y-66606622D01*
X164964089Y-63424642D02*
X163924642Y-64464089D01*
X167106622Y-65567175D02*
X164964089Y-63424642D01*
X153106622Y-109567175D02*
X150964089Y-107424642D01*
X149924642Y-108464089D02*
X152067175Y-110606622D01*
X150964089Y-107424642D02*
X149924642Y-108464089D01*
X181424642Y-78464089D02*
X183567175Y-80606622D01*
X184606622Y-79567175D02*
X182464089Y-77424642D01*
X182464089Y-77424642D02*
X181424642Y-78464089D01*
X156924642Y-122464089D02*
X159067175Y-124606622D01*
X160106622Y-123567175D02*
X157964089Y-121424642D01*
X157964089Y-121424642D02*
X156924642Y-122464089D01*
X181106622Y-69067175D02*
X178964089Y-66924642D01*
X177924642Y-67964089D02*
X180067175Y-70106622D01*
X178964089Y-66924642D02*
X177924642Y-67964089D01*
X168464089Y-107424642D02*
X167424642Y-108464089D01*
X170606622Y-109567175D02*
X168464089Y-107424642D01*
X167424642Y-108464089D02*
X169567175Y-110606622D01*
X171964089Y-110924642D02*
X170924642Y-111964089D01*
X170924642Y-111964089D02*
X173067175Y-114106622D01*
X174106622Y-113067175D02*
X171964089Y-110924642D01*
X174106622Y-65567175D02*
X171964089Y-63424642D01*
X171964089Y-63424642D02*
X170924642Y-64464089D01*
X170924642Y-64464089D02*
X173067175Y-66606622D01*
X156924642Y-71464089D02*
X159067175Y-73606622D01*
X160106622Y-72567175D02*
X157964089Y-70424642D01*
X157964089Y-70424642D02*
X156924642Y-71464089D01*
X160106622Y-69067175D02*
X157964089Y-66924642D01*
X156924642Y-67964089D02*
X159067175Y-70106622D01*
X157964089Y-66924642D02*
X156924642Y-67964089D01*
X163924642Y-111964089D02*
X166067175Y-114106622D01*
X164964089Y-110924642D02*
X163924642Y-111964089D01*
X167106622Y-113067175D02*
X164964089Y-110924642D01*
X153424642Y-78464089D02*
X155567175Y-80606622D01*
X154464089Y-77424642D02*
X153424642Y-78464089D01*
X156606622Y-79567175D02*
X154464089Y-77424642D01*
X153424642Y-67964089D02*
X155567175Y-70106622D01*
X156606622Y-69067175D02*
X154464089Y-66924642D01*
X154464089Y-66924642D02*
X153424642Y-67964089D01*
X154464089Y-56424642D02*
X153424642Y-57464089D01*
X156606622Y-58567175D02*
X154464089Y-56424642D01*
X153424642Y-57464089D02*
X155567175Y-59606622D01*
X146424642Y-71464089D02*
X148567175Y-73606622D01*
X147464089Y-70424642D02*
X146424642Y-71464089D01*
X149606622Y-72567175D02*
X147464089Y-70424642D01*
X161464089Y-124924642D02*
X160424642Y-125964089D01*
X160424642Y-125964089D02*
X162567175Y-128106622D01*
X163606622Y-127067175D02*
X161464089Y-124924642D01*
X153424642Y-60964089D02*
X155567175Y-63106622D01*
X154464089Y-59924642D02*
X153424642Y-60964089D01*
X156606622Y-62067175D02*
X154464089Y-59924642D01*
X161464089Y-138924642D02*
X160424642Y-139964089D01*
X160424642Y-139964089D02*
X162567175Y-142106622D01*
X163606622Y-141067175D02*
X161464089Y-138924642D01*
X167106622Y-72567175D02*
X164964089Y-70424642D01*
X164964089Y-70424642D02*
X163924642Y-71464089D01*
X163924642Y-71464089D02*
X166067175Y-73606622D01*
X149606622Y-65567175D02*
X147464089Y-63424642D01*
X147464089Y-63424642D02*
X146424642Y-64464089D01*
X146424642Y-64464089D02*
X148567175Y-66606622D01*
X147464089Y-56424642D02*
X146424642Y-57464089D01*
X149606622Y-58567175D02*
X147464089Y-56424642D01*
X146424642Y-57464089D02*
X148567175Y-59606622D01*
X149924642Y-125964089D02*
X152067175Y-128106622D01*
X150964089Y-124924642D02*
X149924642Y-125964089D01*
X153106622Y-127067175D02*
X150964089Y-124924642D01*
X146424642Y-136464089D02*
X148567175Y-138606622D01*
X149606622Y-137567175D02*
X147464089Y-135424642D01*
X147464089Y-135424642D02*
X146424642Y-136464089D01*
X170606622Y-127067175D02*
X168464089Y-124924642D01*
X168464089Y-124924642D02*
X167424642Y-125964089D01*
X167424642Y-125964089D02*
X169567175Y-128106622D01*
X181424642Y-71464089D02*
X183567175Y-73606622D01*
X184606622Y-72567175D02*
X182464089Y-70424642D01*
X182464089Y-70424642D02*
X181424642Y-71464089D01*
X177924642Y-57464089D02*
X180067175Y-59606622D01*
X181106622Y-58567175D02*
X178964089Y-56424642D01*
X178964089Y-56424642D02*
X177924642Y-57464089D01*
X182464089Y-63424642D02*
X181424642Y-64464089D01*
X181424642Y-64464089D02*
X183567175Y-66606622D01*
X184606622Y-65567175D02*
X182464089Y-63424642D01*
X181106622Y-65567175D02*
X178964089Y-63424642D01*
X178964089Y-63424642D02*
X177924642Y-64464089D01*
X177924642Y-64464089D02*
X180067175Y-66606622D01*
X171964089Y-84424642D02*
X170924642Y-85464089D01*
X174106622Y-86567175D02*
X171964089Y-84424642D01*
X170924642Y-85464089D02*
X173067175Y-87606622D01*
X149924642Y-122464089D02*
X152067175Y-124606622D01*
X150964089Y-121424642D02*
X149924642Y-122464089D01*
X153106622Y-123567175D02*
X150964089Y-121424642D01*
X150964089Y-128424642D02*
X149924642Y-129464089D01*
X149924642Y-129464089D02*
X152067175Y-131606622D01*
X153106622Y-130567175D02*
X150964089Y-128424642D01*
X167424642Y-85464089D02*
X169567175Y-87606622D01*
X170606622Y-86567175D02*
X168464089Y-84424642D01*
X168464089Y-84424642D02*
X167424642Y-85464089D01*
X178964089Y-131924642D02*
X177924642Y-132964089D01*
X181106622Y-134067175D02*
X178964089Y-131924642D01*
X177924642Y-132964089D02*
X180067175Y-135106622D01*
X164964089Y-117924642D02*
X163924642Y-118964089D01*
X163924642Y-118964089D02*
X166067175Y-121106622D01*
X167106622Y-120067175D02*
X164964089Y-117924642D01*
X171964089Y-117924642D02*
X170924642Y-118964089D01*
X170924642Y-118964089D02*
X173067175Y-121106622D01*
X174106622Y-120067175D02*
X171964089Y-117924642D01*
X170606622Y-62067175D02*
X168464089Y-59924642D01*
X168464089Y-59924642D02*
X167424642Y-60964089D01*
X167424642Y-60964089D02*
X169567175Y-63106622D01*
X177606622Y-113067175D02*
X175464089Y-110924642D01*
X175464089Y-110924642D02*
X174424642Y-111964089D01*
X174424642Y-111964089D02*
X176567175Y-114106622D01*
X163606622Y-116567175D02*
X161464089Y-114424642D01*
X161464089Y-114424642D02*
X160424642Y-115464089D01*
X160424642Y-115464089D02*
X162567175Y-117606622D01*
X182464089Y-110924642D02*
X181424642Y-111964089D01*
X181424642Y-111964089D02*
X183567175Y-114106622D01*
X184606622Y-113067175D02*
X182464089Y-110924642D01*
X174424642Y-125964089D02*
X176567175Y-128106622D01*
X175464089Y-124924642D02*
X174424642Y-125964089D01*
X177606622Y-127067175D02*
X175464089Y-124924642D01*
X178964089Y-80924642D02*
X177924642Y-81964089D01*
X181106622Y-83067175D02*
X178964089Y-80924642D01*
X177924642Y-81964089D02*
X180067175Y-84106622D01*
X168464089Y-63424642D02*
X167424642Y-64464089D01*
X167424642Y-64464089D02*
X169567175Y-66606622D01*
X170606622Y-65567175D02*
X168464089Y-63424642D01*
X146424642Y-60964089D02*
X148567175Y-63106622D01*
X149606622Y-62067175D02*
X147464089Y-59924642D01*
X147464089Y-59924642D02*
X146424642Y-60964089D01*
X163606622Y-109567175D02*
X161464089Y-107424642D01*
X161464089Y-107424642D02*
X160424642Y-108464089D01*
X160424642Y-108464089D02*
X162567175Y-110606622D01*
X147464089Y-73924642D02*
X146424642Y-74964089D01*
X149606622Y-76067175D02*
X147464089Y-73924642D01*
X146424642Y-74964089D02*
X148567175Y-77106622D01*
X154464089Y-135424642D02*
X153424642Y-136464089D01*
X156606622Y-137567175D02*
X154464089Y-135424642D01*
X153424642Y-136464089D02*
X155567175Y-138606622D01*
X160106622Y-130567175D02*
X157964089Y-128424642D01*
X156924642Y-129464089D02*
X159067175Y-131606622D01*
X157964089Y-128424642D02*
X156924642Y-129464089D01*
X164964089Y-73924642D02*
X163924642Y-74964089D01*
X163924642Y-74964089D02*
X166067175Y-77106622D01*
X167106622Y-76067175D02*
X164964089Y-73924642D01*
X160424642Y-78464089D02*
X162567175Y-80606622D01*
X161464089Y-77424642D02*
X160424642Y-78464089D01*
X163606622Y-79567175D02*
X161464089Y-77424642D01*
X171964089Y-59924642D02*
X170924642Y-60964089D01*
X170924642Y-60964089D02*
X173067175Y-63106622D01*
X174106622Y-62067175D02*
X171964089Y-59924642D01*
X175464089Y-121424642D02*
X174424642Y-122464089D01*
X174424642Y-122464089D02*
X176567175Y-124606622D01*
X177606622Y-123567175D02*
X175464089Y-121424642D01*
X182464089Y-87924642D02*
X181424642Y-88964089D01*
X181424642Y-88964089D02*
X183567175Y-91106622D01*
X184606622Y-90067175D02*
X182464089Y-87924642D01*
X105615000Y-66750000D02*
X105615000Y-66000000D01*
X167424642Y-129464089D02*
X169567175Y-131606622D01*
X170606622Y-130567175D02*
X168464089Y-128424642D01*
X168464089Y-128424642D02*
X167424642Y-129464089D01*
X168464089Y-117924642D02*
X167424642Y-118964089D01*
X167424642Y-118964089D02*
X169567175Y-121106622D01*
X170606622Y-120067175D02*
X168464089Y-117924642D01*
X154464089Y-114424642D02*
X153424642Y-115464089D01*
X153424642Y-115464089D02*
X155567175Y-117606622D01*
X156606622Y-116567175D02*
X154464089Y-114424642D01*
X164964089Y-131924642D02*
X163924642Y-132964089D01*
X167106622Y-134067175D02*
X164964089Y-131924642D01*
X163924642Y-132964089D02*
X166067175Y-135106622D01*
X175464089Y-117924642D02*
X174424642Y-118964089D01*
X174424642Y-118964089D02*
X176567175Y-121106622D01*
X177606622Y-120067175D02*
X175464089Y-117924642D01*
X147464089Y-117924642D02*
X146424642Y-118964089D01*
X149606622Y-120067175D02*
X147464089Y-117924642D01*
X146424642Y-118964089D02*
X148567175Y-121106622D01*
X150964089Y-135424642D02*
X149924642Y-136464089D01*
X153106622Y-137567175D02*
X150964089Y-135424642D01*
X149924642Y-136464089D02*
X152067175Y-138606622D01*
X156924642Y-139964089D02*
X159067175Y-142106622D01*
X160106622Y-141067175D02*
X157964089Y-138924642D01*
X157964089Y-138924642D02*
X156924642Y-139964089D01*
X167424642Y-78464089D02*
X169567175Y-80606622D01*
X170606622Y-79567175D02*
X168464089Y-77424642D01*
X168464089Y-77424642D02*
X167424642Y-78464089D01*
X156606622Y-141067175D02*
X154464089Y-138924642D01*
X154464089Y-138924642D02*
X153424642Y-139964089D01*
X153424642Y-139964089D02*
X155567175Y-142106622D01*
X163606622Y-120067175D02*
X161464089Y-117924642D01*
X160424642Y-118964089D02*
X162567175Y-121106622D01*
X161464089Y-117924642D02*
X160424642Y-118964089D01*
X170606622Y-141067175D02*
X168464089Y-138924642D01*
X168464089Y-138924642D02*
X167424642Y-139964089D01*
X167424642Y-139964089D02*
X169567175Y-142106622D01*
X182464089Y-131924642D02*
X181424642Y-132964089D01*
X184606622Y-134067175D02*
X182464089Y-131924642D01*
X181424642Y-132964089D02*
X183567175Y-135106622D01*
X157964089Y-107424642D02*
X156924642Y-108464089D01*
X160106622Y-109567175D02*
X157964089Y-107424642D01*
X156924642Y-108464089D02*
X159067175Y-110606622D01*
X170606622Y-113067175D02*
X168464089Y-110924642D01*
X168464089Y-110924642D02*
X167424642Y-111964089D01*
X167424642Y-111964089D02*
X169567175Y-114106622D01*
X154464089Y-73924642D02*
X153424642Y-74964089D01*
X153424642Y-74964089D02*
X155567175Y-77106622D01*
X156606622Y-76067175D02*
X154464089Y-73924642D01*
X156606622Y-134067175D02*
X154464089Y-131924642D01*
X153424642Y-132964089D02*
X155567175Y-135106622D01*
X154464089Y-131924642D02*
X153424642Y-132964089D01*
X160424642Y-132964089D02*
X162567175Y-135106622D01*
X161464089Y-131924642D02*
X160424642Y-132964089D01*
X163606622Y-134067175D02*
X161464089Y-131924642D01*
X170924642Y-74964089D02*
X173067175Y-77106622D01*
X174106622Y-76067175D02*
X171964089Y-73924642D01*
X171964089Y-73924642D02*
X170924642Y-74964089D01*
X177606622Y-116567175D02*
X175464089Y-114424642D01*
X175464089Y-114424642D02*
X174424642Y-115464089D01*
X174424642Y-115464089D02*
X176567175Y-117606622D01*
X167106622Y-141067175D02*
X164964089Y-138924642D01*
X164964089Y-138924642D02*
X163924642Y-139964089D01*
X163924642Y-139964089D02*
X166067175Y-142106622D01*
X164964089Y-135424642D02*
X163924642Y-136464089D01*
X167106622Y-137567175D02*
X164964089Y-135424642D01*
X163924642Y-136464089D02*
X166067175Y-138606622D01*
X175464089Y-77424642D02*
X174424642Y-78464089D01*
X177606622Y-79567175D02*
X175464089Y-77424642D01*
X174424642Y-78464089D02*
X176567175Y-80606622D01*
X170606622Y-90067175D02*
X168464089Y-87924642D01*
X168464089Y-87924642D02*
X167424642Y-88964089D01*
X167424642Y-88964089D02*
X169567175Y-91106622D01*
X175464089Y-84424642D02*
X174424642Y-85464089D01*
X174424642Y-85464089D02*
X176567175Y-87606622D01*
X177606622Y-86567175D02*
X175464089Y-84424642D01*
X149606622Y-116567175D02*
X147464089Y-114424642D01*
X147464089Y-114424642D02*
X146424642Y-115464089D01*
X146424642Y-115464089D02*
X148567175Y-117606622D01*
X149606622Y-90067175D02*
X147464089Y-87924642D01*
X147464089Y-87924642D02*
X146424642Y-88964089D01*
X146424642Y-88964089D02*
X148567175Y-91106622D01*
X160424642Y-129464089D02*
X162567175Y-131606622D01*
X161464089Y-128424642D02*
X160424642Y-129464089D01*
X163606622Y-130567175D02*
X161464089Y-128424642D01*
X149924642Y-81964089D02*
X152067175Y-84106622D01*
X153106622Y-83067175D02*
X150964089Y-80924642D01*
X150964089Y-80924642D02*
X149924642Y-81964089D01*
X163606622Y-113067175D02*
X161464089Y-110924642D01*
X161464089Y-110924642D02*
X160424642Y-111964089D01*
X160424642Y-111964089D02*
X162567175Y-114106622D01*
X170924642Y-108464089D02*
X173067175Y-110606622D01*
X174106622Y-109567175D02*
X171964089Y-107424642D01*
X171964089Y-107424642D02*
X170924642Y-108464089D01*
X160106622Y-116567175D02*
X157964089Y-114424642D01*
X157964089Y-114424642D02*
X156924642Y-115464089D01*
X156924642Y-115464089D02*
X159067175Y-117606622D01*
X149924642Y-139964089D02*
X152067175Y-142106622D01*
X150964089Y-138924642D02*
X149924642Y-139964089D01*
X153106622Y-141067175D02*
X150964089Y-138924642D01*
X163606622Y-123567175D02*
X161464089Y-121424642D01*
X161464089Y-121424642D02*
X160424642Y-122464089D01*
X160424642Y-122464089D02*
X162567175Y-124606622D01*
X177924642Y-111964089D02*
X180067175Y-114106622D01*
X178964089Y-110924642D02*
X177924642Y-111964089D01*
X181106622Y-113067175D02*
X178964089Y-110924642D01*
X175464089Y-128424642D02*
X174424642Y-129464089D01*
X177606622Y-130567175D02*
X175464089Y-128424642D01*
X174424642Y-129464089D02*
X176567175Y-131606622D01*
X157964089Y-80924642D02*
X156924642Y-81964089D01*
X156924642Y-81964089D02*
X159067175Y-84106622D01*
X160106622Y-83067175D02*
X157964089Y-80924642D01*
X181424642Y-67964089D02*
X183567175Y-70106622D01*
X182464089Y-66924642D02*
X181424642Y-67964089D01*
X184606622Y-69067175D02*
X182464089Y-66924642D01*
X164964089Y-66924642D02*
X163924642Y-67964089D01*
X163924642Y-67964089D02*
X166067175Y-70106622D01*
X167106622Y-69067175D02*
X164964089Y-66924642D01*
X150964089Y-66924642D02*
X149924642Y-67964089D01*
X149924642Y-67964089D02*
X152067175Y-70106622D01*
X153106622Y-69067175D02*
X150964089Y-66924642D01*
X160106622Y-65567175D02*
X157964089Y-63424642D01*
X157964089Y-63424642D02*
X156924642Y-64464089D01*
X156924642Y-64464089D02*
X159067175Y-66606622D01*
X177606622Y-90067175D02*
X175464089Y-87924642D01*
X175464089Y-87924642D02*
X174424642Y-88964089D01*
X174424642Y-88964089D02*
X176567175Y-91106622D01*
X182464089Y-138924642D02*
X181424642Y-139964089D01*
X181424642Y-139964089D02*
X183567175Y-142106622D01*
X184606622Y-141067175D02*
X182464089Y-138924642D01*
X153424642Y-71464089D02*
X155567175Y-73606622D01*
X154464089Y-70424642D02*
X153424642Y-71464089D01*
X156606622Y-72567175D02*
X154464089Y-70424642D01*
X147464089Y-77424642D02*
X146424642Y-78464089D01*
X146424642Y-78464089D02*
X148567175Y-80606622D01*
X149606622Y-79567175D02*
X147464089Y-77424642D01*
X175464089Y-135424642D02*
X174424642Y-136464089D01*
X174424642Y-136464089D02*
X176567175Y-138606622D01*
X177606622Y-137567175D02*
X175464089Y-135424642D01*
X170606622Y-72567175D02*
X168464089Y-70424642D01*
X168464089Y-70424642D02*
X167424642Y-71464089D01*
X167424642Y-71464089D02*
X169567175Y-73606622D01*
X171964089Y-131924642D02*
X170924642Y-132964089D01*
X174106622Y-134067175D02*
X171964089Y-131924642D01*
X170924642Y-132964089D02*
X173067175Y-135106622D01*
X174106622Y-90067175D02*
X171964089Y-87924642D01*
X170924642Y-88964089D02*
X173067175Y-91106622D01*
X171964089Y-87924642D02*
X170924642Y-88964089D01*
X177924642Y-88964089D02*
X180067175Y-91106622D01*
X181106622Y-90067175D02*
X178964089Y-87924642D01*
X178964089Y-87924642D02*
X177924642Y-88964089D01*
X177606622Y-134067175D02*
X175464089Y-131924642D01*
X175464089Y-131924642D02*
X174424642Y-132964089D01*
X174424642Y-132964089D02*
X176567175Y-135106622D01*
X181106622Y-116567175D02*
X178964089Y-114424642D01*
X178964089Y-114424642D02*
X177924642Y-115464089D01*
X177924642Y-115464089D02*
X180067175Y-117606622D01*
X177606622Y-141067175D02*
X175464089Y-138924642D01*
X175464089Y-138924642D02*
X174424642Y-139964089D01*
X174424642Y-139964089D02*
X176567175Y-142106622D01*
X157964089Y-56424642D02*
X156924642Y-57464089D01*
X160106622Y-58567175D02*
X157964089Y-56424642D01*
X156924642Y-57464089D02*
X159067175Y-59606622D01*
X171964089Y-77424642D02*
X170924642Y-78464089D01*
X174106622Y-79567175D02*
X171964089Y-77424642D01*
X170924642Y-78464089D02*
X173067175Y-80606622D01*
X154464089Y-107424642D02*
X153424642Y-108464089D01*
X156606622Y-109567175D02*
X154464089Y-107424642D01*
X153424642Y-108464089D02*
X155567175Y-110606622D01*
X146424642Y-132964089D02*
X148567175Y-135106622D01*
X147464089Y-131924642D02*
X146424642Y-132964089D01*
X149606622Y-134067175D02*
X147464089Y-131924642D01*
X150964089Y-63424642D02*
X149924642Y-64464089D01*
X153106622Y-65567175D02*
X150964089Y-63424642D01*
X149924642Y-64464089D02*
X152067175Y-66606622D01*
X171964089Y-128424642D02*
X170924642Y-129464089D01*
X174106622Y-130567175D02*
X171964089Y-128424642D01*
X170924642Y-129464089D02*
X173067175Y-131606622D01*
X150964089Y-114424642D02*
X149924642Y-115464089D01*
X153106622Y-116567175D02*
X150964089Y-114424642D01*
X149924642Y-115464089D02*
X152067175Y-117606622D01*
X168464089Y-114424642D02*
X167424642Y-115464089D01*
X167424642Y-115464089D02*
X169567175Y-117606622D01*
X170606622Y-116567175D02*
X168464089Y-114424642D01*
X182464089Y-84424642D02*
X181424642Y-85464089D01*
X184606622Y-86567175D02*
X182464089Y-84424642D01*
X181424642Y-85464089D02*
X183567175Y-87606622D01*
X160106622Y-137567175D02*
X157964089Y-135424642D01*
X157964089Y-135424642D02*
X156924642Y-136464089D01*
X156924642Y-136464089D02*
X159067175Y-138606622D01*
X156606622Y-83067175D02*
X154464089Y-80924642D01*
X153424642Y-81964089D02*
X155567175Y-84106622D01*
X154464089Y-80924642D02*
X153424642Y-81964089D01*
X146424642Y-111964089D02*
X148567175Y-114106622D01*
X149606622Y-113067175D02*
X147464089Y-110924642D01*
X147464089Y-110924642D02*
X146424642Y-111964089D01*
X177924642Y-71464089D02*
X180067175Y-73606622D01*
X181106622Y-72567175D02*
X178964089Y-70424642D01*
X178964089Y-70424642D02*
X177924642Y-71464089D01*
X170606622Y-123567175D02*
X168464089Y-121424642D01*
X168464089Y-121424642D02*
X167424642Y-122464089D01*
X167424642Y-122464089D02*
X169567175Y-124606622D01*
X171964089Y-66924642D02*
X170924642Y-67964089D01*
X170924642Y-67964089D02*
X173067175Y-70106622D01*
X174106622Y-69067175D02*
X171964089Y-66924642D01*
X156606622Y-90067175D02*
X154464089Y-87924642D01*
X154464089Y-87924642D02*
X153424642Y-88964089D01*
X153424642Y-88964089D02*
X155567175Y-91106622D01*
X160106622Y-127067175D02*
X157964089Y-124924642D01*
X156924642Y-125964089D02*
X159067175Y-128106622D01*
X157964089Y-124924642D02*
X156924642Y-125964089D01*
X171964089Y-121424642D02*
X170924642Y-122464089D01*
X174106622Y-123567175D02*
X171964089Y-121424642D01*
X170924642Y-122464089D02*
X173067175Y-124606622D01*
X160106622Y-86567175D02*
X157964089Y-84424642D01*
X157964089Y-84424642D02*
X156924642Y-85464089D01*
X156924642Y-85464089D02*
X159067175Y-87606622D01*
X150964089Y-77424642D02*
X149924642Y-78464089D01*
X149924642Y-78464089D02*
X152067175Y-80606622D01*
X153106622Y-79567175D02*
X150964089Y-77424642D01*
X150964089Y-117924642D02*
X149924642Y-118964089D01*
X149924642Y-118964089D02*
X152067175Y-121106622D01*
X153106622Y-120067175D02*
X150964089Y-117924642D01*
X182464089Y-80924642D02*
X181424642Y-81964089D01*
X184606622Y-83067175D02*
X182464089Y-80924642D01*
X181424642Y-81964089D02*
X183567175Y-84106622D01*
X170606622Y-76067175D02*
X168464089Y-73924642D01*
X168464089Y-73924642D02*
X167424642Y-74964089D01*
X167424642Y-74964089D02*
X169567175Y-77106622D01*
X157964089Y-131924642D02*
X156924642Y-132964089D01*
X156924642Y-132964089D02*
X159067175Y-135106622D01*
X160106622Y-134067175D02*
X157964089Y-131924642D01*
X149924642Y-60964089D02*
X152067175Y-63106622D01*
X150964089Y-59924642D02*
X149924642Y-60964089D01*
X153106622Y-62067175D02*
X150964089Y-59924642D01*
X175464089Y-56424642D02*
X174424642Y-57464089D01*
X177606622Y-58567175D02*
X175464089Y-56424642D01*
X174424642Y-57464089D02*
X176567175Y-59606622D01*
X153424642Y-129464089D02*
X155567175Y-131606622D01*
X154464089Y-128424642D02*
X153424642Y-129464089D01*
X156606622Y-130567175D02*
X154464089Y-128424642D01*
X160106622Y-76067175D02*
X157964089Y-73924642D01*
X156924642Y-74964089D02*
X159067175Y-77106622D01*
X157964089Y-73924642D02*
X156924642Y-74964089D01*
X147464089Y-124924642D02*
X146424642Y-125964089D01*
X149606622Y-127067175D02*
X147464089Y-124924642D01*
X146424642Y-125964089D02*
X148567175Y-128106622D01*
X150964089Y-84424642D02*
X149924642Y-85464089D01*
X153106622Y-86567175D02*
X150964089Y-84424642D01*
X149924642Y-85464089D02*
X152067175Y-87606622D01*
X163606622Y-69067175D02*
X161464089Y-66924642D01*
X160424642Y-67964089D02*
X162567175Y-70106622D01*
X161464089Y-66924642D02*
X160424642Y-67964089D01*
X177924642Y-108464089D02*
X180067175Y-110606622D01*
X181106622Y-109567175D02*
X178964089Y-107424642D01*
X178964089Y-107424642D02*
X177924642Y-108464089D01*
X149924642Y-111964089D02*
X152067175Y-114106622D01*
X150964089Y-110924642D02*
X149924642Y-111964089D01*
X153106622Y-113067175D02*
X150964089Y-110924642D01*
X167106622Y-90067175D02*
X164964089Y-87924642D01*
X164964089Y-87924642D02*
X163924642Y-88964089D01*
X163924642Y-88964089D02*
X166067175Y-91106622D01*
X175464089Y-66924642D02*
X174424642Y-67964089D01*
X174424642Y-67964089D02*
X176567175Y-70106622D01*
X177606622Y-69067175D02*
X175464089Y-66924642D01*
X177606622Y-65567175D02*
X175464089Y-63424642D01*
X175464089Y-63424642D02*
X174424642Y-64464089D01*
X174424642Y-64464089D02*
X176567175Y-66606622D01*
X163924642Y-60964089D02*
X166067175Y-63106622D01*
X164964089Y-59924642D02*
X163924642Y-60964089D01*
X167106622Y-62067175D02*
X164964089Y-59924642D01*
X182464089Y-107424642D02*
X181424642Y-108464089D01*
X181424642Y-108464089D02*
X183567175Y-110606622D01*
X184606622Y-109567175D02*
X182464089Y-107424642D01*
X147464089Y-128424642D02*
X146424642Y-129464089D01*
X146424642Y-129464089D02*
X148567175Y-131606622D01*
X149606622Y-130567175D02*
X147464089Y-128424642D01*
X163606622Y-65567175D02*
X161464089Y-63424642D01*
X161464089Y-63424642D02*
X160424642Y-64464089D01*
X160424642Y-64464089D02*
X162567175Y-66606622D01*
X164964089Y-77424642D02*
X163924642Y-78464089D01*
X167106622Y-79567175D02*
X164964089Y-77424642D01*
X163924642Y-78464089D02*
X166067175Y-80606622D01*
X177606622Y-83067175D02*
X175464089Y-80924642D01*
X175464089Y-80924642D02*
X174424642Y-81964089D01*
X174424642Y-81964089D02*
X176567175Y-84106622D01*
X147464089Y-66924642D02*
X146424642Y-67964089D01*
X149606622Y-69067175D02*
X147464089Y-66924642D01*
X146424642Y-67964089D02*
X148567175Y-70106622D01*
X149924642Y-74964089D02*
X152067175Y-77106622D01*
X150964089Y-73924642D02*
X149924642Y-74964089D01*
X153106622Y-76067175D02*
X150964089Y-73924642D01*
X178964089Y-124924642D02*
X177924642Y-125964089D01*
X181106622Y-127067175D02*
X178964089Y-124924642D01*
X177924642Y-125964089D02*
X180067175Y-128106622D01*
X182464089Y-59924642D02*
X181424642Y-60964089D01*
X181424642Y-60964089D02*
X183567175Y-63106622D01*
X184606622Y-62067175D02*
X182464089Y-59924642D01*
X177924642Y-122464089D02*
X180067175Y-124606622D01*
X181106622Y-123567175D02*
X178964089Y-121424642D01*
X178964089Y-121424642D02*
X177924642Y-122464089D01*
X182464089Y-73924642D02*
X181424642Y-74964089D01*
X184606622Y-76067175D02*
X182464089Y-73924642D01*
X181424642Y-74964089D02*
X183567175Y-77106622D01*
X177924642Y-136464089D02*
X180067175Y-138606622D01*
X178964089Y-135424642D02*
X177924642Y-136464089D01*
X181106622Y-137567175D02*
X178964089Y-135424642D01*
X161464089Y-73924642D02*
X160424642Y-74964089D01*
X160424642Y-74964089D02*
X162567175Y-77106622D01*
X163606622Y-76067175D02*
X161464089Y-73924642D01*
X156924642Y-88964089D02*
X159067175Y-91106622D01*
X160106622Y-90067175D02*
X157964089Y-87924642D01*
X157964089Y-87924642D02*
X156924642Y-88964089D01*
X181106622Y-130567175D02*
X178964089Y-128424642D01*
X177924642Y-129464089D02*
X180067175Y-131606622D01*
X178964089Y-128424642D02*
X177924642Y-129464089D01*
X177924642Y-85464089D02*
X180067175Y-87606622D01*
X178964089Y-84424642D02*
X177924642Y-85464089D01*
X181106622Y-86567175D02*
X178964089Y-84424642D01*
X153106622Y-58567175D02*
X150964089Y-56424642D01*
X149924642Y-57464089D02*
X152067175Y-59606622D01*
X150964089Y-56424642D02*
X149924642Y-57464089D01*
X147464089Y-107424642D02*
X146424642Y-108464089D01*
X149606622Y-109567175D02*
X147464089Y-107424642D01*
X146424642Y-108464089D02*
X148567175Y-110606622D01*
X149606622Y-141067175D02*
X147464089Y-138924642D01*
X147464089Y-138924642D02*
X146424642Y-139964089D01*
X146424642Y-139964089D02*
X148567175Y-142106622D01*
X182464089Y-135424642D02*
X181424642Y-136464089D01*
X184606622Y-137567175D02*
X182464089Y-135424642D01*
X181424642Y-136464089D02*
X183567175Y-138606622D01*
X170606622Y-83067175D02*
X168464089Y-80924642D01*
X167424642Y-81964089D02*
X169567175Y-84106622D01*
X168464089Y-80924642D02*
X167424642Y-81964089D01*
X159380000Y-145017621D02*
X159380000Y-144682379D01*
X158620000Y-145017621D02*
X158620000Y-144682379D01*
X180380000Y-145017621D02*
X180380000Y-144682379D01*
X179620000Y-145017621D02*
X179620000Y-144682379D01*
X176120000Y-94017621D02*
X176120000Y-93682379D01*
X176880000Y-94017621D02*
X176880000Y-93682379D01*
X155120000Y-145017621D02*
X155120000Y-144682379D01*
X155880000Y-145017621D02*
X155880000Y-144682379D01*
X165620000Y-145017621D02*
X165620000Y-144682379D01*
X166380000Y-145017621D02*
X166380000Y-144682379D01*
X142400175Y-119387227D02*
X142637227Y-119150175D01*
X141862773Y-118849825D02*
X142099825Y-118612773D01*
X159380000Y-94017621D02*
X159380000Y-93682379D01*
X158620000Y-94017621D02*
X158620000Y-93682379D01*
X173380000Y-145017621D02*
X173380000Y-144682379D01*
X172620000Y-145017621D02*
X172620000Y-144682379D01*
X148120000Y-94017621D02*
X148120000Y-93682379D01*
X148880000Y-94017621D02*
X148880000Y-93682379D01*
X103315835Y-119790000D02*
X103084165Y-119790000D01*
X103315835Y-120510000D02*
X103084165Y-120510000D01*
X124900175Y-70612773D02*
X125137227Y-70849825D01*
X124362773Y-71150175D02*
X124599825Y-71387227D01*
X162880000Y-145017621D02*
X162880000Y-144682379D01*
X162120000Y-145017621D02*
X162120000Y-144682379D01*
X122137227Y-59650175D02*
X121900175Y-59887227D01*
X121599825Y-59112773D02*
X121362773Y-59349825D01*
X180380000Y-94017621D02*
X180380000Y-93682379D01*
X179620000Y-94017621D02*
X179620000Y-93682379D01*
X127900175Y-73612773D02*
X128137227Y-73849825D01*
X127362773Y-74150175D02*
X127599825Y-74387227D01*
X169120000Y-94017621D02*
X169120000Y-93682379D01*
X169880000Y-94017621D02*
X169880000Y-93682379D01*
X136637227Y-53349825D02*
X136400175Y-53112773D01*
X136099825Y-53887227D02*
X135862773Y-53650175D01*
X162880000Y-94017621D02*
X162880000Y-93682379D01*
X162120000Y-94017621D02*
X162120000Y-93682379D01*
X136637227Y-104349825D02*
X136400175Y-104112773D01*
X136099825Y-104887227D02*
X135862773Y-104650175D01*
X139400175Y-71387227D02*
X139637227Y-71150175D01*
X138862773Y-70849825D02*
X139099825Y-70612773D01*
X152380000Y-94017621D02*
X152380000Y-93682379D01*
X151620000Y-94017621D02*
X151620000Y-93682379D01*
X127900175Y-124612773D02*
X128137227Y-124849825D01*
X127362773Y-125150175D02*
X127599825Y-125387227D01*
X183880000Y-145017621D02*
X183880000Y-144682379D01*
X183120000Y-145017621D02*
X183120000Y-144682379D01*
X122137227Y-110650175D02*
X121900175Y-110887227D01*
X121599825Y-110112773D02*
X121362773Y-110349825D01*
X103315835Y-119010000D02*
X103084165Y-119010000D01*
X103315835Y-118290000D02*
X103084165Y-118290000D01*
X102360000Y-122798335D02*
X102360000Y-122566665D01*
X101640000Y-122798335D02*
X101640000Y-122566665D01*
X102360000Y-71798335D02*
X102360000Y-71566665D01*
X101640000Y-71798335D02*
X101640000Y-71566665D01*
X124599825Y-56112773D02*
X124362773Y-56349825D01*
X125137227Y-56650175D02*
X124900175Y-56887227D01*
X173380000Y-94017621D02*
X173380000Y-93682379D01*
X172620000Y-94017621D02*
X172620000Y-93682379D01*
X139637227Y-107349825D02*
X139400175Y-107112773D01*
X139099825Y-107887227D02*
X138862773Y-107650175D01*
X183880000Y-94017621D02*
X183880000Y-93682379D01*
X183120000Y-94017621D02*
X183120000Y-93682379D01*
X139637227Y-56349825D02*
X139400175Y-56112773D01*
X139099825Y-56887227D02*
X138862773Y-56650175D01*
X169120000Y-145017621D02*
X169120000Y-144682379D01*
X169880000Y-145017621D02*
X169880000Y-144682379D01*
X103315835Y-68010000D02*
X103084165Y-68010000D01*
X103315835Y-67290000D02*
X103084165Y-67290000D01*
X148120000Y-145017621D02*
X148120000Y-144682379D01*
X148880000Y-145017621D02*
X148880000Y-144682379D01*
X176120000Y-145017621D02*
X176120000Y-144682379D01*
X176880000Y-145017621D02*
X176880000Y-144682379D01*
X124900175Y-121612773D02*
X125137227Y-121849825D01*
X124362773Y-122150175D02*
X124599825Y-122387227D01*
X124599825Y-107112773D02*
X124362773Y-107349825D01*
X125137227Y-107650175D02*
X124900175Y-107887227D01*
X152380000Y-145017621D02*
X152380000Y-144682379D01*
X151620000Y-145017621D02*
X151620000Y-144682379D01*
X165620000Y-94017621D02*
X165620000Y-93682379D01*
X166380000Y-94017621D02*
X166380000Y-93682379D01*
X103315835Y-68790000D02*
X103084165Y-68790000D01*
X103315835Y-69510000D02*
X103084165Y-69510000D01*
X155120000Y-94017621D02*
X155120000Y-93682379D01*
X155880000Y-94017621D02*
X155880000Y-93682379D01*
X139400175Y-122387227D02*
X139637227Y-122150175D01*
X138862773Y-121849825D02*
X139099825Y-121612773D01*
X142400175Y-68387227D02*
X142637227Y-68150175D01*
X141862773Y-67849825D02*
X142099825Y-67612773D01*
%LPC*%
D12*
X169500000Y-58500000D03*
D13*
X168633794Y-57633794D03*
X170366206Y-59366206D03*
D12*
X173000000Y-137500000D03*
D13*
X172133794Y-136633794D03*
X173866206Y-138366206D03*
D12*
X183500000Y-58500000D03*
D13*
X182633794Y-57633794D03*
X184366206Y-59366206D03*
D12*
X180000000Y-79500000D03*
D13*
X179133794Y-78633794D03*
X180866206Y-80366206D03*
D12*
X166000000Y-58500000D03*
D13*
X165133794Y-57633794D03*
X166866206Y-59366206D03*
D12*
X155500000Y-123500000D03*
D13*
X154633794Y-122633794D03*
X156366206Y-124366206D03*
D12*
X173000000Y-83000000D03*
D13*
X172133794Y-82133794D03*
X173866206Y-83866206D03*
D12*
X166000000Y-127000000D03*
D13*
X165133794Y-126133794D03*
X166866206Y-127866206D03*
D12*
X159000000Y-113000000D03*
D13*
X158133794Y-112133794D03*
X159866206Y-113866206D03*
D12*
X155500000Y-127000000D03*
D13*
X154633794Y-126133794D03*
X156366206Y-127866206D03*
D12*
X180000000Y-120000000D03*
D13*
X179133794Y-119133794D03*
X180866206Y-120866206D03*
D12*
X173000000Y-127000000D03*
D13*
X172133794Y-126133794D03*
X173866206Y-127866206D03*
D14*
X116270000Y-103155000D03*
X117540000Y-103155000D03*
X113730000Y-103155000D03*
X112460000Y-103155000D03*
X115000000Y-103155000D03*
D15*
X116905000Y-102000000D03*
X115635000Y-102000000D03*
X114365000Y-102000000D03*
X113095000Y-102000000D03*
D12*
X162500000Y-90000000D03*
D13*
X161633794Y-89133794D03*
X163366206Y-90866206D03*
D12*
X180000000Y-76000000D03*
D13*
X179133794Y-75133794D03*
X180866206Y-76866206D03*
D16*
X136550431Y-110472004D03*
X142277996Y-116199569D03*
X133722004Y-113300431D03*
X139449569Y-119027996D03*
D12*
X166000000Y-116500000D03*
D13*
X165133794Y-115633794D03*
X166866206Y-117366206D03*
D12*
X173000000Y-141000000D03*
D13*
X172133794Y-140133794D03*
X173866206Y-141866206D03*
D12*
X176500000Y-109500000D03*
D13*
X175633794Y-108633794D03*
X177366206Y-110366206D03*
D12*
X148500000Y-86500000D03*
D13*
X147633794Y-85633794D03*
X149366206Y-87366206D03*
D12*
X152000000Y-90000000D03*
D13*
X151133794Y-89133794D03*
X152866206Y-90866206D03*
D12*
X162500000Y-72500000D03*
D13*
X161633794Y-71633794D03*
X163366206Y-73366206D03*
D12*
X155500000Y-120000000D03*
D13*
X154633794Y-119133794D03*
X156366206Y-120866206D03*
D12*
X180000000Y-141000000D03*
D13*
X179133794Y-140133794D03*
X180866206Y-141866206D03*
D17*
X133449569Y-53472004D03*
X127722004Y-59199569D03*
X136277996Y-56300431D03*
X130550431Y-62027996D03*
D12*
X162500000Y-58500000D03*
D13*
X161633794Y-57633794D03*
X163366206Y-59366206D03*
D12*
X176500000Y-72500000D03*
D13*
X175633794Y-71633794D03*
X177366206Y-73366206D03*
D12*
X162500000Y-62000000D03*
D13*
X161633794Y-61133794D03*
X163366206Y-62866206D03*
D12*
X159000000Y-62000000D03*
D13*
X158133794Y-61133794D03*
X159866206Y-62866206D03*
D12*
X183500000Y-130500000D03*
D13*
X182633794Y-129633794D03*
X184366206Y-131366206D03*
D12*
X169500000Y-134000000D03*
D13*
X168633794Y-133133794D03*
X170366206Y-134866206D03*
D12*
X183500000Y-120000000D03*
D13*
X182633794Y-119133794D03*
X184366206Y-120866206D03*
D12*
X173000000Y-72500000D03*
D13*
X172133794Y-71633794D03*
X173866206Y-73366206D03*
D12*
X166000000Y-83000000D03*
D13*
X165133794Y-82133794D03*
X166866206Y-83866206D03*
D16*
X136550431Y-59472004D03*
X142277996Y-65199569D03*
X133722004Y-62300431D03*
X139449569Y-68027996D03*
D12*
X173000000Y-58500000D03*
D13*
X172133794Y-57633794D03*
X173866206Y-59366206D03*
D12*
X152000000Y-72500000D03*
D13*
X151133794Y-71633794D03*
X152866206Y-73366206D03*
D12*
X169500000Y-69000000D03*
D13*
X168633794Y-68133794D03*
X170366206Y-69866206D03*
D12*
X162500000Y-137500000D03*
D13*
X161633794Y-136633794D03*
X163366206Y-138366206D03*
D12*
X176500000Y-76000000D03*
D13*
X175633794Y-75133794D03*
X177366206Y-76866206D03*
D12*
X166000000Y-86500000D03*
D13*
X165133794Y-85633794D03*
X166866206Y-87366206D03*
D12*
X166000000Y-130500000D03*
D13*
X165133794Y-129633794D03*
X166866206Y-131366206D03*
D12*
X176500000Y-62000000D03*
D13*
X175633794Y-61133794D03*
X177366206Y-62866206D03*
D12*
X162500000Y-83000000D03*
D13*
X161633794Y-82133794D03*
X163366206Y-83866206D03*
D12*
X155500000Y-65500000D03*
D13*
X154633794Y-64633794D03*
X156366206Y-66366206D03*
D12*
X173000000Y-116500000D03*
D13*
X172133794Y-115633794D03*
X173866206Y-117366206D03*
D12*
X159000000Y-120000000D03*
D13*
X158133794Y-119133794D03*
X159866206Y-120866206D03*
D12*
X183500000Y-116500000D03*
D13*
X182633794Y-115633794D03*
X184366206Y-117366206D03*
D12*
X169500000Y-137500000D03*
D13*
X168633794Y-136633794D03*
X170366206Y-138366206D03*
D12*
X166000000Y-109500000D03*
D13*
X165133794Y-108633794D03*
X166866206Y-110366206D03*
D12*
X155500000Y-113000000D03*
D13*
X154633794Y-112133794D03*
X156366206Y-113866206D03*
D12*
X148500000Y-83000000D03*
D13*
X147633794Y-82133794D03*
X149366206Y-83866206D03*
D12*
X155500000Y-86500000D03*
D13*
X154633794Y-85633794D03*
X156366206Y-87366206D03*
D12*
X183500000Y-127000000D03*
D13*
X182633794Y-126133794D03*
X184366206Y-127866206D03*
D12*
X162500000Y-86500000D03*
D13*
X161633794Y-85633794D03*
X163366206Y-87366206D03*
D12*
X166000000Y-123500000D03*
D13*
X165133794Y-122633794D03*
X166866206Y-124366206D03*
D12*
X180000000Y-62000000D03*
D13*
X179133794Y-61133794D03*
X180866206Y-62866206D03*
D12*
X148500000Y-123500000D03*
D13*
X147633794Y-122633794D03*
X149366206Y-124366206D03*
D18*
X106075000Y-117562500D03*
X106725000Y-117562500D03*
X107375000Y-117562500D03*
X108025000Y-117562500D03*
X108675000Y-117562500D03*
X109325000Y-117562500D03*
X109975000Y-117562500D03*
X110625000Y-117562500D03*
X111275000Y-117562500D03*
X111925000Y-117562500D03*
X111925000Y-110437500D03*
X111275000Y-110437500D03*
X110625000Y-110437500D03*
X109975000Y-110437500D03*
X109325000Y-110437500D03*
X108675000Y-110437500D03*
X108025000Y-110437500D03*
X107375000Y-110437500D03*
X106725000Y-110437500D03*
X106075000Y-110437500D03*
D12*
X152000000Y-134000000D03*
D13*
X151133794Y-133133794D03*
X152866206Y-134866206D03*
D12*
X183500000Y-123500000D03*
D13*
X182633794Y-122633794D03*
X184366206Y-124366206D03*
D12*
X159000000Y-79500000D03*
D13*
X158133794Y-78633794D03*
X159866206Y-80366206D03*
D12*
X166000000Y-65500000D03*
D13*
X165133794Y-64633794D03*
X166866206Y-66366206D03*
D12*
X152000000Y-109500000D03*
D13*
X151133794Y-108633794D03*
X152866206Y-110366206D03*
D12*
X183500000Y-79500000D03*
D13*
X182633794Y-78633794D03*
X184366206Y-80366206D03*
D12*
X159000000Y-123500000D03*
D13*
X158133794Y-122633794D03*
X159866206Y-124366206D03*
D12*
X180000000Y-69000000D03*
D13*
X179133794Y-68133794D03*
X180866206Y-69866206D03*
D12*
X169500000Y-109500000D03*
D13*
X168633794Y-108633794D03*
X170366206Y-110366206D03*
D12*
X173000000Y-113000000D03*
D13*
X172133794Y-112133794D03*
X173866206Y-113866206D03*
D12*
X173000000Y-65500000D03*
D13*
X172133794Y-64633794D03*
X173866206Y-66366206D03*
D12*
X159000000Y-72500000D03*
D13*
X158133794Y-71633794D03*
X159866206Y-73366206D03*
D12*
X159000000Y-69000000D03*
D13*
X158133794Y-68133794D03*
X159866206Y-69866206D03*
D12*
X166000000Y-113000000D03*
D13*
X165133794Y-112133794D03*
X166866206Y-113866206D03*
D12*
X155500000Y-79500000D03*
D13*
X154633794Y-78633794D03*
X156366206Y-80366206D03*
D12*
X155500000Y-69000000D03*
D13*
X154633794Y-68133794D03*
X156366206Y-69866206D03*
D12*
X155500000Y-58500000D03*
D13*
X154633794Y-57633794D03*
X156366206Y-59366206D03*
D12*
X148500000Y-72500000D03*
D13*
X147633794Y-71633794D03*
X149366206Y-73366206D03*
D12*
X162500000Y-127000000D03*
D13*
X161633794Y-126133794D03*
X163366206Y-127866206D03*
D12*
X155500000Y-62000000D03*
D13*
X154633794Y-61133794D03*
X156366206Y-62866206D03*
D12*
X162500000Y-141000000D03*
D13*
X161633794Y-140133794D03*
X163366206Y-141866206D03*
D12*
X166000000Y-72500000D03*
D13*
X165133794Y-71633794D03*
X166866206Y-73366206D03*
D12*
X148500000Y-65500000D03*
D13*
X147633794Y-64633794D03*
X149366206Y-66366206D03*
D12*
X148500000Y-58500000D03*
D13*
X147633794Y-57633794D03*
X149366206Y-59366206D03*
D12*
X152000000Y-127000000D03*
D13*
X151133794Y-126133794D03*
X152866206Y-127866206D03*
D12*
X148500000Y-137500000D03*
D13*
X147633794Y-136633794D03*
X149366206Y-138366206D03*
D12*
X169500000Y-127000000D03*
D13*
X168633794Y-126133794D03*
X170366206Y-127866206D03*
D12*
X183500000Y-72500000D03*
D13*
X182633794Y-71633794D03*
X184366206Y-73366206D03*
D12*
X180000000Y-58500000D03*
D13*
X179133794Y-57633794D03*
X180866206Y-59366206D03*
D12*
X183500000Y-65500000D03*
D13*
X182633794Y-64633794D03*
X184366206Y-66366206D03*
D12*
X180000000Y-65500000D03*
D13*
X179133794Y-64633794D03*
X180866206Y-66366206D03*
D12*
X173000000Y-86500000D03*
D13*
X172133794Y-85633794D03*
X173866206Y-87366206D03*
D19*
X119659902Y-130340098D03*
X103750000Y-146250000D03*
D12*
X152000000Y-123500000D03*
D13*
X151133794Y-122633794D03*
X152866206Y-124366206D03*
D12*
X152000000Y-130500000D03*
D13*
X151133794Y-129633794D03*
X152866206Y-131366206D03*
D12*
X169500000Y-86500000D03*
D13*
X168633794Y-85633794D03*
X170366206Y-87366206D03*
D12*
X180000000Y-134000000D03*
D13*
X179133794Y-133133794D03*
X180866206Y-134866206D03*
D12*
X166000000Y-120000000D03*
D13*
X165133794Y-119133794D03*
X166866206Y-120866206D03*
D12*
X173000000Y-120000000D03*
D13*
X172133794Y-119133794D03*
X173866206Y-120866206D03*
D12*
X169500000Y-62000000D03*
D13*
X168633794Y-61133794D03*
X170366206Y-62866206D03*
D12*
X176500000Y-113000000D03*
D13*
X175633794Y-112133794D03*
X177366206Y-113866206D03*
D12*
X162500000Y-116500000D03*
D13*
X161633794Y-115633794D03*
X163366206Y-117366206D03*
D12*
X183500000Y-113000000D03*
D13*
X182633794Y-112133794D03*
X184366206Y-113866206D03*
D12*
X176500000Y-127000000D03*
D13*
X175633794Y-126133794D03*
X177366206Y-127866206D03*
D12*
X180000000Y-83000000D03*
D13*
X179133794Y-82133794D03*
X180866206Y-83866206D03*
D12*
X169500000Y-65500000D03*
D13*
X168633794Y-64633794D03*
X170366206Y-66366206D03*
D12*
X148500000Y-62000000D03*
D13*
X147633794Y-61133794D03*
X149366206Y-62866206D03*
D20*
X106444544Y-124055456D03*
D21*
X102555456Y-127944544D03*
D12*
X162500000Y-109500000D03*
D13*
X161633794Y-108633794D03*
X163366206Y-110366206D03*
D12*
X148500000Y-76000000D03*
D13*
X147633794Y-75133794D03*
X149366206Y-76866206D03*
D12*
X155500000Y-137500000D03*
D13*
X154633794Y-136633794D03*
X156366206Y-138366206D03*
D12*
X159000000Y-130500000D03*
D13*
X158133794Y-129633794D03*
X159866206Y-131366206D03*
D12*
X166000000Y-76000000D03*
D13*
X165133794Y-75133794D03*
X166866206Y-76866206D03*
D12*
X162500000Y-79500000D03*
D13*
X161633794Y-78633794D03*
X163366206Y-80366206D03*
D12*
X173000000Y-62000000D03*
D13*
X172133794Y-61133794D03*
X173866206Y-62866206D03*
D12*
X176500000Y-123500000D03*
D13*
X175633794Y-122633794D03*
X177366206Y-124366206D03*
D12*
X183500000Y-90000000D03*
D13*
X182633794Y-89133794D03*
X184366206Y-90866206D03*
D18*
X106075000Y-66562500D03*
X106725000Y-66562500D03*
X107375000Y-66562500D03*
X108025000Y-66562500D03*
X108675000Y-66562500D03*
X109325000Y-66562500D03*
X109975000Y-66562500D03*
X110625000Y-66562500D03*
X111275000Y-66562500D03*
X111925000Y-66562500D03*
X111925000Y-59437500D03*
X111275000Y-59437500D03*
X110625000Y-59437500D03*
X109975000Y-59437500D03*
X109325000Y-59437500D03*
X108675000Y-59437500D03*
X108025000Y-59437500D03*
X107375000Y-59437500D03*
X106725000Y-59437500D03*
X106075000Y-59437500D03*
D12*
X169500000Y-130500000D03*
D13*
X168633794Y-129633794D03*
X170366206Y-131366206D03*
D12*
X169500000Y-120000000D03*
D13*
X168633794Y-119133794D03*
X170366206Y-120866206D03*
D12*
X155500000Y-116500000D03*
D13*
X154633794Y-115633794D03*
X156366206Y-117366206D03*
D19*
X119659902Y-79340098D03*
X103750000Y-95250000D03*
D12*
X166000000Y-134000000D03*
D13*
X165133794Y-133133794D03*
X166866206Y-134866206D03*
D22*
X136277996Y-119300431D03*
X130550431Y-125027996D03*
X133449569Y-116472004D03*
X127722004Y-122199569D03*
D17*
X133449569Y-104472004D03*
X127722004Y-110199569D03*
X136277996Y-107300431D03*
X130550431Y-113027996D03*
D12*
X176500000Y-120000000D03*
D13*
X175633794Y-119133794D03*
X177366206Y-120866206D03*
D12*
X148500000Y-120000000D03*
D13*
X147633794Y-119133794D03*
X149366206Y-120866206D03*
D12*
X152000000Y-137500000D03*
D13*
X151133794Y-136633794D03*
X152866206Y-138366206D03*
D12*
X159000000Y-141000000D03*
D13*
X158133794Y-140133794D03*
X159866206Y-141866206D03*
D12*
X169500000Y-79500000D03*
D13*
X168633794Y-78633794D03*
X170366206Y-80366206D03*
D23*
X131950000Y-92750000D03*
X140050000Y-92750000D03*
X131950000Y-88750000D03*
X140050000Y-88750000D03*
D24*
X127449569Y-68027996D03*
X121722004Y-62300431D03*
X124550431Y-59472004D03*
X130277996Y-65199569D03*
D12*
X155500000Y-141000000D03*
D13*
X154633794Y-140133794D03*
X156366206Y-141866206D03*
D12*
X162500000Y-120000000D03*
D13*
X161633794Y-119133794D03*
X163366206Y-120866206D03*
D12*
X169500000Y-141000000D03*
D13*
X168633794Y-140133794D03*
X170366206Y-141866206D03*
D12*
X183500000Y-134000000D03*
D13*
X182633794Y-133133794D03*
X184366206Y-134866206D03*
D12*
X159000000Y-109500000D03*
D13*
X158133794Y-108633794D03*
X159866206Y-110366206D03*
D12*
X169500000Y-113000000D03*
D13*
X168633794Y-112133794D03*
X170366206Y-113866206D03*
D12*
X155500000Y-76000000D03*
D13*
X154633794Y-75133794D03*
X156366206Y-76866206D03*
D12*
X155500000Y-134000000D03*
D13*
X154633794Y-133133794D03*
X156366206Y-134866206D03*
D12*
X162500000Y-134000000D03*
D13*
X161633794Y-133133794D03*
X163366206Y-134866206D03*
D12*
X173000000Y-76000000D03*
D13*
X172133794Y-75133794D03*
X173866206Y-76866206D03*
D12*
X176500000Y-116500000D03*
D13*
X175633794Y-115633794D03*
X177366206Y-117366206D03*
D12*
X166000000Y-141000000D03*
D13*
X165133794Y-140133794D03*
X166866206Y-141866206D03*
D12*
X166000000Y-137500000D03*
D13*
X165133794Y-136633794D03*
X166866206Y-138366206D03*
D12*
X176500000Y-79500000D03*
D13*
X175633794Y-78633794D03*
X177366206Y-80366206D03*
D12*
X169500000Y-90000000D03*
D13*
X168633794Y-89133794D03*
X170366206Y-90866206D03*
D12*
X176500000Y-86500000D03*
D13*
X175633794Y-85633794D03*
X177366206Y-87366206D03*
D12*
X148500000Y-116500000D03*
D13*
X147633794Y-115633794D03*
X149366206Y-117366206D03*
D12*
X148500000Y-90000000D03*
D13*
X147633794Y-89133794D03*
X149366206Y-90866206D03*
D12*
X162500000Y-130500000D03*
D13*
X161633794Y-129633794D03*
X163366206Y-131366206D03*
D12*
X152000000Y-83000000D03*
D13*
X151133794Y-82133794D03*
X152866206Y-83866206D03*
D12*
X162500000Y-113000000D03*
D13*
X161633794Y-112133794D03*
X163366206Y-113866206D03*
D12*
X173000000Y-109500000D03*
D13*
X172133794Y-108633794D03*
X173866206Y-110366206D03*
D12*
X159000000Y-116500000D03*
D13*
X158133794Y-115633794D03*
X159866206Y-117366206D03*
D12*
X152000000Y-141000000D03*
D13*
X151133794Y-140133794D03*
X152866206Y-141866206D03*
D12*
X162500000Y-123500000D03*
D13*
X161633794Y-122633794D03*
X163366206Y-124366206D03*
D23*
X131950000Y-143750000D03*
X140050000Y-143750000D03*
X131950000Y-139750000D03*
X140050000Y-139750000D03*
D12*
X180000000Y-113000000D03*
D13*
X179133794Y-112133794D03*
X180866206Y-113866206D03*
D12*
X176500000Y-130500000D03*
D13*
X175633794Y-129633794D03*
X177366206Y-131366206D03*
D12*
X159000000Y-83000000D03*
D13*
X158133794Y-82133794D03*
X159866206Y-83866206D03*
D12*
X183500000Y-69000000D03*
D13*
X182633794Y-68133794D03*
X184366206Y-69866206D03*
D12*
X166000000Y-69000000D03*
D13*
X165133794Y-68133794D03*
X166866206Y-69866206D03*
D12*
X152000000Y-69000000D03*
D13*
X151133794Y-68133794D03*
X152866206Y-69866206D03*
D12*
X159000000Y-65500000D03*
D13*
X158133794Y-64633794D03*
X159866206Y-66366206D03*
D12*
X176500000Y-90000000D03*
D13*
X175633794Y-89133794D03*
X177366206Y-90866206D03*
D12*
X183500000Y-141000000D03*
D13*
X182633794Y-140133794D03*
X184366206Y-141866206D03*
D12*
X155500000Y-72500000D03*
D13*
X154633794Y-71633794D03*
X156366206Y-73366206D03*
D20*
X106444544Y-73055456D03*
D21*
X102555456Y-76944544D03*
D12*
X148500000Y-79500000D03*
D13*
X147633794Y-78633794D03*
X149366206Y-80366206D03*
D12*
X176500000Y-137500000D03*
D13*
X175633794Y-136633794D03*
X177366206Y-138366206D03*
D12*
X169500000Y-72500000D03*
D13*
X168633794Y-71633794D03*
X170366206Y-73366206D03*
D12*
X173000000Y-134000000D03*
D13*
X172133794Y-133133794D03*
X173866206Y-134866206D03*
D12*
X173000000Y-90000000D03*
D13*
X172133794Y-89133794D03*
X173866206Y-90866206D03*
D12*
X180000000Y-90000000D03*
D13*
X179133794Y-89133794D03*
X180866206Y-90866206D03*
D12*
X176500000Y-134000000D03*
D13*
X175633794Y-133133794D03*
X177366206Y-134866206D03*
D12*
X180000000Y-116500000D03*
D13*
X179133794Y-115633794D03*
X180866206Y-117366206D03*
D12*
X176500000Y-141000000D03*
D13*
X175633794Y-140133794D03*
X177366206Y-141866206D03*
D12*
X159000000Y-58500000D03*
D13*
X158133794Y-57633794D03*
X159866206Y-59366206D03*
D12*
X173000000Y-79500000D03*
D13*
X172133794Y-78633794D03*
X173866206Y-80366206D03*
D22*
X136277996Y-68300431D03*
X130550431Y-74027996D03*
X133449569Y-65472004D03*
X127722004Y-71199569D03*
D12*
X155500000Y-109500000D03*
D13*
X154633794Y-108633794D03*
X156366206Y-110366206D03*
D12*
X148500000Y-134000000D03*
D13*
X147633794Y-133133794D03*
X149366206Y-134866206D03*
D12*
X152000000Y-65500000D03*
D13*
X151133794Y-64633794D03*
X152866206Y-66366206D03*
D12*
X173000000Y-130500000D03*
D13*
X172133794Y-129633794D03*
X173866206Y-131366206D03*
D12*
X152000000Y-116500000D03*
D13*
X151133794Y-115633794D03*
X152866206Y-117366206D03*
D12*
X169500000Y-116500000D03*
D13*
X168633794Y-115633794D03*
X170366206Y-117366206D03*
D14*
X116270000Y-52155000D03*
X117540000Y-52155000D03*
X113730000Y-52155000D03*
X112460000Y-52155000D03*
X115000000Y-52155000D03*
D15*
X116905000Y-51000000D03*
X115635000Y-51000000D03*
X114365000Y-51000000D03*
X113095000Y-51000000D03*
D12*
X183500000Y-86500000D03*
D13*
X182633794Y-85633794D03*
X184366206Y-87366206D03*
D12*
X159000000Y-137500000D03*
D13*
X158133794Y-136633794D03*
X159866206Y-138366206D03*
D12*
X155500000Y-83000000D03*
D13*
X154633794Y-82133794D03*
X156366206Y-83866206D03*
D12*
X148500000Y-113000000D03*
D13*
X147633794Y-112133794D03*
X149366206Y-113866206D03*
D12*
X180000000Y-72500000D03*
D13*
X179133794Y-71633794D03*
X180866206Y-73366206D03*
D23*
X138050000Y-134750000D03*
X129950000Y-134750000D03*
X129950000Y-130750000D03*
X138050000Y-130750000D03*
D12*
X169500000Y-123500000D03*
D13*
X168633794Y-122633794D03*
X170366206Y-124366206D03*
D12*
X173000000Y-69000000D03*
D13*
X172133794Y-68133794D03*
X173866206Y-69866206D03*
D12*
X155500000Y-90000000D03*
D13*
X154633794Y-89133794D03*
X156366206Y-90866206D03*
D12*
X159000000Y-127000000D03*
D13*
X158133794Y-126133794D03*
X159866206Y-127866206D03*
D12*
X173000000Y-123500000D03*
D13*
X172133794Y-122633794D03*
X173866206Y-124366206D03*
D12*
X159000000Y-86500000D03*
D13*
X158133794Y-85633794D03*
X159866206Y-87366206D03*
D12*
X152000000Y-79500000D03*
D13*
X151133794Y-78633794D03*
X152866206Y-80366206D03*
D12*
X152000000Y-120000000D03*
D13*
X151133794Y-119133794D03*
X152866206Y-120866206D03*
D12*
X183500000Y-83000000D03*
D13*
X182633794Y-82133794D03*
X184366206Y-83866206D03*
D12*
X169500000Y-76000000D03*
D13*
X168633794Y-75133794D03*
X170366206Y-76866206D03*
D12*
X159000000Y-134000000D03*
D13*
X158133794Y-133133794D03*
X159866206Y-134866206D03*
D12*
X152000000Y-62000000D03*
D13*
X151133794Y-61133794D03*
X152866206Y-62866206D03*
D12*
X176500000Y-58500000D03*
D13*
X175633794Y-57633794D03*
X177366206Y-59366206D03*
D12*
X155500000Y-130500000D03*
D13*
X154633794Y-129633794D03*
X156366206Y-131366206D03*
D12*
X159000000Y-76000000D03*
D13*
X158133794Y-75133794D03*
X159866206Y-76866206D03*
D12*
X148500000Y-127000000D03*
D13*
X147633794Y-126133794D03*
X149366206Y-127866206D03*
D12*
X152000000Y-86500000D03*
D13*
X151133794Y-85633794D03*
X152866206Y-87366206D03*
D12*
X162500000Y-69000000D03*
D13*
X161633794Y-68133794D03*
X163366206Y-69866206D03*
D12*
X180000000Y-109500000D03*
D13*
X179133794Y-108633794D03*
X180866206Y-110366206D03*
D12*
X152000000Y-113000000D03*
D13*
X151133794Y-112133794D03*
X152866206Y-113866206D03*
D12*
X166000000Y-90000000D03*
D13*
X165133794Y-89133794D03*
X166866206Y-90866206D03*
D23*
X138050000Y-83750000D03*
X129950000Y-83750000D03*
X129950000Y-79750000D03*
X138050000Y-79750000D03*
D12*
X176500000Y-69000000D03*
D13*
X175633794Y-68133794D03*
X177366206Y-69866206D03*
D12*
X176500000Y-65500000D03*
D13*
X175633794Y-64633794D03*
X177366206Y-66366206D03*
D12*
X166000000Y-62000000D03*
D13*
X165133794Y-61133794D03*
X166866206Y-62866206D03*
D12*
X183500000Y-109500000D03*
D13*
X182633794Y-108633794D03*
X184366206Y-110366206D03*
D12*
X148500000Y-130500000D03*
D13*
X147633794Y-129633794D03*
X149366206Y-131366206D03*
D12*
X162500000Y-65500000D03*
D13*
X161633794Y-64633794D03*
X163366206Y-66366206D03*
D12*
X166000000Y-79500000D03*
D13*
X165133794Y-78633794D03*
X166866206Y-80366206D03*
D12*
X176500000Y-83000000D03*
D13*
X175633794Y-82133794D03*
X177366206Y-83866206D03*
D12*
X148500000Y-69000000D03*
D13*
X147633794Y-68133794D03*
X149366206Y-69866206D03*
D12*
X152000000Y-76000000D03*
D13*
X151133794Y-75133794D03*
X152866206Y-76866206D03*
D12*
X180000000Y-127000000D03*
D13*
X179133794Y-126133794D03*
X180866206Y-127866206D03*
D24*
X127449569Y-119027996D03*
X121722004Y-113300431D03*
X124550431Y-110472004D03*
X130277996Y-116199569D03*
D12*
X183500000Y-62000000D03*
D13*
X182633794Y-61133794D03*
X184366206Y-62866206D03*
D12*
X180000000Y-123500000D03*
D13*
X179133794Y-122633794D03*
X180866206Y-124366206D03*
D12*
X183500000Y-76000000D03*
D13*
X182633794Y-75133794D03*
X184366206Y-76866206D03*
D12*
X180000000Y-137500000D03*
D13*
X179133794Y-136633794D03*
X180866206Y-138366206D03*
D12*
X162500000Y-76000000D03*
D13*
X161633794Y-75133794D03*
X163366206Y-76866206D03*
D12*
X159000000Y-90000000D03*
D13*
X158133794Y-89133794D03*
X159866206Y-90866206D03*
D12*
X180000000Y-130500000D03*
D13*
X179133794Y-129633794D03*
X180866206Y-131366206D03*
D12*
X180000000Y-86500000D03*
D13*
X179133794Y-85633794D03*
X180866206Y-87366206D03*
D12*
X152000000Y-58500000D03*
D13*
X151133794Y-57633794D03*
X152866206Y-59366206D03*
D12*
X148500000Y-109500000D03*
D13*
X147633794Y-108633794D03*
X149366206Y-110366206D03*
D12*
X148500000Y-141000000D03*
D13*
X147633794Y-140133794D03*
X149366206Y-141866206D03*
D12*
X183500000Y-137500000D03*
D13*
X182633794Y-136633794D03*
X184366206Y-138366206D03*
D12*
X169500000Y-83000000D03*
D13*
X168633794Y-82133794D03*
X170366206Y-83866206D03*
D25*
X159000000Y-145447500D03*
X159000000Y-144252500D03*
X180000000Y-145447500D03*
X180000000Y-144252500D03*
X176500000Y-94447500D03*
X176500000Y-93252500D03*
X155500000Y-145447500D03*
X155500000Y-144252500D03*
X166000000Y-145447500D03*
X166000000Y-144252500D03*
D26*
X141827504Y-119422496D03*
X142672496Y-118577504D03*
D25*
X159000000Y-94447500D03*
X159000000Y-93252500D03*
X173000000Y-145447500D03*
X173000000Y-144252500D03*
X148500000Y-94447500D03*
X148500000Y-93252500D03*
D27*
X103767500Y-120150000D03*
X102632500Y-120150000D03*
D28*
X124327504Y-70577504D03*
X125172496Y-71422496D03*
D25*
X162500000Y-145447500D03*
X162500000Y-144252500D03*
D29*
X122172496Y-59077504D03*
X121327504Y-59922496D03*
D25*
X180000000Y-94447500D03*
X180000000Y-93252500D03*
D28*
X127327504Y-73577504D03*
X128172496Y-74422496D03*
D25*
X169500000Y-94447500D03*
X169500000Y-93252500D03*
D30*
X136672496Y-53922496D03*
X135827504Y-53077504D03*
D25*
X162500000Y-94447500D03*
X162500000Y-93252500D03*
D30*
X136672496Y-104922496D03*
X135827504Y-104077504D03*
D26*
X138827504Y-71422496D03*
X139672496Y-70577504D03*
D25*
X152000000Y-94447500D03*
X152000000Y-93252500D03*
D28*
X127327504Y-124577504D03*
X128172496Y-125422496D03*
D25*
X183500000Y-145447500D03*
X183500000Y-144252500D03*
D29*
X122172496Y-110077504D03*
X121327504Y-110922496D03*
D27*
X103767500Y-118650000D03*
X102632500Y-118650000D03*
D31*
X102000000Y-123250000D03*
X102000000Y-122115000D03*
X102000000Y-72250000D03*
X102000000Y-71115000D03*
D29*
X125172496Y-56077504D03*
X124327504Y-56922496D03*
D25*
X173000000Y-94447500D03*
X173000000Y-93252500D03*
D30*
X139672496Y-107922496D03*
X138827504Y-107077504D03*
D25*
X183500000Y-94447500D03*
X183500000Y-93252500D03*
D30*
X139672496Y-56922496D03*
X138827504Y-56077504D03*
D25*
X169500000Y-145447500D03*
X169500000Y-144252500D03*
D27*
X103767500Y-67650000D03*
X102632500Y-67650000D03*
D25*
X148500000Y-145447500D03*
X148500000Y-144252500D03*
X176500000Y-145447500D03*
X176500000Y-144252500D03*
D28*
X124327504Y-121577504D03*
X125172496Y-122422496D03*
D29*
X125172496Y-107077504D03*
X124327504Y-107922496D03*
D25*
X152000000Y-145447500D03*
X152000000Y-144252500D03*
X166000000Y-94447500D03*
X166000000Y-93252500D03*
D27*
X103767500Y-69150000D03*
X102632500Y-69150000D03*
D25*
X155500000Y-94447500D03*
X155500000Y-93252500D03*
D26*
X138827504Y-122422496D03*
X139672496Y-121577504D03*
X141827504Y-68422496D03*
X142672496Y-67577504D03*
M02*
