G04 #@! TF.GenerationSoftware,KiCad,Pcbnew,(6.0.9)*
G04 #@! TF.CreationDate,2023-02-03T02:11:26-05:00*
G04 #@! TF.ProjectId,businesscard_panel,62757369-6e65-4737-9363-6172645f7061,rev?*
G04 #@! TF.SameCoordinates,Original*
G04 #@! TF.FileFunction,Legend,Top*
G04 #@! TF.FilePolarity,Positive*
%FSLAX46Y46*%
G04 Gerber Fmt 4.6, Leading zero omitted, Abs format (unit mm)*
G04 Created by KiCad (PCBNEW (6.0.9)) date 2023-02-03 02:11:26*
%MOMM*%
%LPD*%
G01*
G04 APERTURE LIST*
G04 Aperture macros list*
%AMRotRect*
0 Rectangle, with rotation*
0 The origin of the aperture is its center*
0 $1 length*
0 $2 width*
0 $3 Rotation angle, in degrees counterclockwise*
0 Add horizontal line*
21,1,$1,$2,0,0,$3*%
G04 Aperture macros list end*
%ADD10C,0.100000*%
%ADD11C,1.500000*%
%ADD12C,0.600000*%
%ADD13O,0.800000X1.500000*%
%ADD14RotRect,3.000000X6.000000X45.000000*%
G04 APERTURE END LIST*
D10*
X113730000Y-101631000D02*
X113730000Y-102520000D01*
X112460000Y-101631000D02*
X112460000Y-102520000D01*
X113730000Y-101631000D02*
G75*
G03*
X112460000Y-101631000I-635000J0D01*
G01*
X113730000Y-50631000D02*
X113730000Y-51520000D01*
X112460000Y-50631000D02*
X112460000Y-51520000D01*
X113730000Y-50631000D02*
G75*
G03*
X112460000Y-50631000I-635000J0D01*
G01*
%LPC*%
D11*
X169500000Y-58500000D03*
X173000000Y-137500000D03*
X183500000Y-58500000D03*
X180000000Y-79500000D03*
X166000000Y-58500000D03*
X155500000Y-123500000D03*
X173000000Y-83000000D03*
X166000000Y-127000000D03*
X159000000Y-113000000D03*
X155500000Y-127000000D03*
X180000000Y-120000000D03*
X173000000Y-127000000D03*
D12*
X116270000Y-103155000D03*
X117540000Y-103155000D03*
X113730000Y-103155000D03*
X112460000Y-103155000D03*
X115000000Y-103155000D03*
D13*
X113095000Y-102000000D03*
X114365000Y-102000000D03*
X115635000Y-102000000D03*
X116905000Y-102000000D03*
D11*
X162500000Y-90000000D03*
X180000000Y-76000000D03*
X166000000Y-116500000D03*
X173000000Y-141000000D03*
X176500000Y-109500000D03*
X148500000Y-86500000D03*
X152000000Y-90000000D03*
X162500000Y-72500000D03*
X155500000Y-120000000D03*
X180000000Y-141000000D03*
X162500000Y-58500000D03*
X176500000Y-72500000D03*
X162500000Y-62000000D03*
X159000000Y-62000000D03*
X183500000Y-130500000D03*
X169500000Y-134000000D03*
X183500000Y-120000000D03*
X173000000Y-72500000D03*
X166000000Y-83000000D03*
X173000000Y-58500000D03*
X152000000Y-72500000D03*
X169500000Y-69000000D03*
X162500000Y-137500000D03*
X176500000Y-76000000D03*
X166000000Y-86500000D03*
X166000000Y-130500000D03*
X176500000Y-62000000D03*
X162500000Y-83000000D03*
X155500000Y-65500000D03*
X173000000Y-116500000D03*
X159000000Y-120000000D03*
X183500000Y-116500000D03*
X169500000Y-137500000D03*
X166000000Y-109500000D03*
X155500000Y-113000000D03*
X148500000Y-83000000D03*
X155500000Y-86500000D03*
X183500000Y-127000000D03*
X162500000Y-86500000D03*
X166000000Y-123500000D03*
X180000000Y-62000000D03*
X148500000Y-123500000D03*
X152000000Y-134000000D03*
X183500000Y-123500000D03*
X159000000Y-79500000D03*
X166000000Y-65500000D03*
X152000000Y-109500000D03*
X183500000Y-79500000D03*
X159000000Y-123500000D03*
X180000000Y-69000000D03*
X169500000Y-109500000D03*
X173000000Y-113000000D03*
X173000000Y-65500000D03*
X159000000Y-72500000D03*
X159000000Y-69000000D03*
X166000000Y-113000000D03*
X155500000Y-79500000D03*
X155500000Y-69000000D03*
X155500000Y-58500000D03*
X148500000Y-72500000D03*
X162500000Y-127000000D03*
X155500000Y-62000000D03*
X162500000Y-141000000D03*
X166000000Y-72500000D03*
X148500000Y-65500000D03*
X148500000Y-58500000D03*
X152000000Y-127000000D03*
X148500000Y-137500000D03*
X169500000Y-127000000D03*
X183500000Y-72500000D03*
X180000000Y-58500000D03*
X183500000Y-65500000D03*
X180000000Y-65500000D03*
X173000000Y-86500000D03*
D14*
X103750000Y-146250000D03*
X119659902Y-130340098D03*
D11*
X152000000Y-123500000D03*
X152000000Y-130500000D03*
X169500000Y-86500000D03*
X180000000Y-134000000D03*
X166000000Y-120000000D03*
X173000000Y-120000000D03*
X169500000Y-62000000D03*
X176500000Y-113000000D03*
X162500000Y-116500000D03*
X183500000Y-113000000D03*
X176500000Y-127000000D03*
X180000000Y-83000000D03*
X169500000Y-65500000D03*
X148500000Y-62000000D03*
X162500000Y-109500000D03*
X148500000Y-76000000D03*
X155500000Y-137500000D03*
X159000000Y-130500000D03*
X166000000Y-76000000D03*
X162500000Y-79500000D03*
X173000000Y-62000000D03*
X176500000Y-123500000D03*
X183500000Y-90000000D03*
X169500000Y-130500000D03*
X169500000Y-120000000D03*
X155500000Y-116500000D03*
D14*
X103750000Y-95250000D03*
X119659902Y-79340098D03*
D11*
X166000000Y-134000000D03*
X176500000Y-120000000D03*
X148500000Y-120000000D03*
X152000000Y-137500000D03*
X159000000Y-141000000D03*
X169500000Y-79500000D03*
X155500000Y-141000000D03*
X162500000Y-120000000D03*
X169500000Y-141000000D03*
X183500000Y-134000000D03*
X159000000Y-109500000D03*
X169500000Y-113000000D03*
X155500000Y-76000000D03*
X155500000Y-134000000D03*
X162500000Y-134000000D03*
X173000000Y-76000000D03*
X176500000Y-116500000D03*
X166000000Y-141000000D03*
X166000000Y-137500000D03*
X176500000Y-79500000D03*
X169500000Y-90000000D03*
X176500000Y-86500000D03*
X148500000Y-116500000D03*
X148500000Y-90000000D03*
X162500000Y-130500000D03*
X152000000Y-83000000D03*
X162500000Y-113000000D03*
X173000000Y-109500000D03*
X159000000Y-116500000D03*
X152000000Y-141000000D03*
X162500000Y-123500000D03*
X180000000Y-113000000D03*
X176500000Y-130500000D03*
X159000000Y-83000000D03*
X183500000Y-69000000D03*
X166000000Y-69000000D03*
X152000000Y-69000000D03*
X159000000Y-65500000D03*
X176500000Y-90000000D03*
X183500000Y-141000000D03*
X155500000Y-72500000D03*
X148500000Y-79500000D03*
X176500000Y-137500000D03*
X169500000Y-72500000D03*
X173000000Y-134000000D03*
X173000000Y-90000000D03*
X180000000Y-90000000D03*
X176500000Y-134000000D03*
X180000000Y-116500000D03*
X176500000Y-141000000D03*
X159000000Y-58500000D03*
X173000000Y-79500000D03*
X155500000Y-109500000D03*
X148500000Y-134000000D03*
X152000000Y-65500000D03*
X173000000Y-130500000D03*
X152000000Y-116500000D03*
X169500000Y-116500000D03*
D12*
X116270000Y-52155000D03*
X117540000Y-52155000D03*
X113730000Y-52155000D03*
X112460000Y-52155000D03*
X115000000Y-52155000D03*
D13*
X113095000Y-51000000D03*
X114365000Y-51000000D03*
X115635000Y-51000000D03*
X116905000Y-51000000D03*
D11*
X183500000Y-86500000D03*
X159000000Y-137500000D03*
X155500000Y-83000000D03*
X148500000Y-113000000D03*
X180000000Y-72500000D03*
X169500000Y-123500000D03*
X173000000Y-69000000D03*
X155500000Y-90000000D03*
X159000000Y-127000000D03*
X173000000Y-123500000D03*
X159000000Y-86500000D03*
X152000000Y-79500000D03*
X152000000Y-120000000D03*
X183500000Y-83000000D03*
X169500000Y-76000000D03*
X159000000Y-134000000D03*
X152000000Y-62000000D03*
X176500000Y-58500000D03*
X155500000Y-130500000D03*
X159000000Y-76000000D03*
X148500000Y-127000000D03*
X152000000Y-86500000D03*
X162500000Y-69000000D03*
X180000000Y-109500000D03*
X152000000Y-113000000D03*
X166000000Y-90000000D03*
X176500000Y-69000000D03*
X176500000Y-65500000D03*
X166000000Y-62000000D03*
X183500000Y-109500000D03*
X148500000Y-130500000D03*
X162500000Y-65500000D03*
X166000000Y-79500000D03*
X176500000Y-83000000D03*
X148500000Y-69000000D03*
X152000000Y-76000000D03*
X180000000Y-127000000D03*
X183500000Y-62000000D03*
X180000000Y-123500000D03*
X183500000Y-76000000D03*
X180000000Y-137500000D03*
X162500000Y-76000000D03*
X159000000Y-90000000D03*
X180000000Y-130500000D03*
X180000000Y-86500000D03*
X152000000Y-58500000D03*
X148500000Y-109500000D03*
X148500000Y-141000000D03*
X183500000Y-137500000D03*
X169500000Y-83000000D03*
M02*
