M48
; DRILL file {KiCad (6.0.9)} date Fri Feb  3 02:11:28 2023
; FORMAT={-:-/ absolute / metric / decimal}
; #@! TF.CreationDate,2023-02-03T02:11:28-05:00
; #@! TF.GenerationSoftware,Kicad,Pcbnew,(6.0.9)
; #@! TF.FileFunction,Plated,1,2,PTH
FMAT,2
METRIC
; #@! TA.AperFunction,Plated,PTH,ViaDrill
T1C0.300
%
G90
G05
T1
X102.6Y-66.35
X102.6Y-117.35
X103.75Y-71.25
X103.75Y-122.25
X106.2Y-56.15
X106.2Y-107.15
X106.5Y-70.25
X106.5Y-121.25
X106.8Y-56.75
X106.8Y-107.75
X107.2Y-69.55
X107.2Y-120.55
X107.4Y-57.35
X107.4Y-108.35
X108.0Y-68.95
X108.0Y-119.95
X108.6Y-55.15
X108.6Y-56.15
X108.6Y-57.15
X108.6Y-106.15
X108.6Y-107.15
X108.6Y-108.15
X109.2Y-52.95
X109.2Y-103.95
X109.975Y-68.575
X109.975Y-119.575
X111.25Y-71.25
X111.25Y-122.25
X112.9Y-58.25
X112.9Y-109.25
X114.6Y-56.75
X114.6Y-107.75
X115.6Y-53.95
X115.6Y-104.95
X118.5Y-51.05
X118.5Y-102.05
X120.2Y-53.15
X120.2Y-104.15
X122.75Y-58.5
X122.75Y-109.5
X123.75Y-57.5
X123.75Y-108.5
X125.2Y-95.55
X125.2Y-96.75
X125.2Y-146.55
X125.2Y-147.75
X125.8Y-94.95
X125.8Y-96.15
X125.8Y-97.35
X125.8Y-145.95
X125.8Y-147.15
X125.8Y-148.35
X128.6Y-79.75
X128.6Y-130.75
X130.6Y-88.75
X130.6Y-139.75
X150.25Y-58.5
X150.25Y-62.0
X150.25Y-65.5
X150.25Y-69.0
X150.25Y-72.5
X150.25Y-76.0
X150.25Y-79.5
X150.25Y-83.0
X150.25Y-86.5
X150.25Y-90.0
X150.25Y-109.5
X150.25Y-113.0
X150.25Y-116.5
X150.25Y-120.0
X150.25Y-123.5
X150.25Y-127.0
X150.25Y-130.5
X150.25Y-134.0
X150.25Y-137.5
X150.25Y-141.0
X153.75Y-58.5
X153.75Y-62.0
X153.75Y-65.5
X153.75Y-69.0
X153.75Y-72.5
X153.75Y-76.0
X153.75Y-79.5
X153.75Y-83.0
X153.75Y-86.5
X153.75Y-90.0
X153.75Y-109.5
X153.75Y-113.0
X153.75Y-116.5
X153.75Y-120.0
X153.75Y-123.5
X153.75Y-127.0
X153.75Y-130.5
X153.75Y-134.0
X153.75Y-137.5
X153.75Y-141.0
X157.25Y-58.5
X157.25Y-62.0
X157.25Y-65.5
X157.25Y-69.0
X157.25Y-72.5
X157.25Y-76.0
X157.25Y-79.5
X157.25Y-83.0
X157.25Y-86.5
X157.25Y-90.0
X157.25Y-109.5
X157.25Y-113.0
X157.25Y-116.5
X157.25Y-120.0
X157.25Y-123.5
X157.25Y-127.0
X157.25Y-130.5
X157.25Y-134.0
X157.25Y-137.5
X157.25Y-141.0
X160.75Y-58.5
X160.75Y-62.0
X160.75Y-65.5
X160.75Y-69.0
X160.75Y-72.5
X160.75Y-76.0
X160.75Y-79.5
X160.75Y-83.0
X160.75Y-86.5
X160.75Y-90.0
X160.75Y-109.5
X160.75Y-113.0
X160.75Y-116.5
X160.75Y-120.0
X160.75Y-123.5
X160.75Y-127.0
X160.75Y-130.5
X160.75Y-134.0
X160.75Y-137.5
X160.75Y-141.0
X164.25Y-58.5
X164.25Y-62.0
X164.25Y-65.5
X164.25Y-69.0
X164.25Y-72.5
X164.25Y-76.0
X164.25Y-79.5
X164.25Y-83.0
X164.25Y-86.5
X164.25Y-90.0
X164.25Y-109.5
X164.25Y-113.0
X164.25Y-116.5
X164.25Y-120.0
X164.25Y-123.5
X164.25Y-127.0
X164.25Y-130.5
X164.25Y-134.0
X164.25Y-137.5
X164.25Y-141.0
X167.75Y-58.5
X167.75Y-62.0
X167.75Y-65.5
X167.75Y-69.0
X167.75Y-72.5
X167.75Y-76.0
X167.75Y-79.5
X167.75Y-83.0
X167.75Y-86.5
X167.75Y-90.0
X167.75Y-109.5
X167.75Y-113.0
X167.75Y-116.5
X167.75Y-120.0
X167.75Y-123.5
X167.75Y-127.0
X167.75Y-130.5
X167.75Y-134.0
X167.75Y-137.5
X167.75Y-141.0
X168.998Y-94.95
X168.998Y-145.95
X171.25Y-58.5
X171.25Y-62.0
X171.25Y-65.5
X171.25Y-69.0
X171.25Y-72.5
X171.25Y-76.0
X171.25Y-79.5
X171.25Y-83.0
X171.25Y-86.5
X171.25Y-90.0
X171.25Y-109.5
X171.25Y-113.0
X171.25Y-116.5
X171.25Y-120.0
X171.25Y-123.5
X171.25Y-127.0
X171.25Y-130.5
X171.25Y-134.0
X171.25Y-137.5
X171.25Y-141.0
X171.897Y-95.55
X171.897Y-146.55
X174.75Y-58.5
X174.75Y-62.0
X174.75Y-65.5
X174.75Y-69.0
X174.75Y-72.5
X174.75Y-76.0
X174.75Y-79.5
X174.75Y-83.0
X174.75Y-86.5
X174.75Y-90.0
X174.75Y-109.5
X174.75Y-113.0
X174.75Y-116.5
X174.75Y-120.0
X174.75Y-123.5
X174.75Y-127.0
X174.75Y-130.5
X174.75Y-134.0
X174.75Y-137.5
X174.75Y-141.0
X174.8Y-96.15
X174.8Y-147.15
X177.697Y-96.75
X177.697Y-147.75
X178.25Y-58.5
X178.25Y-62.0
X178.25Y-65.5
X178.25Y-69.0
X178.25Y-72.5
X178.25Y-76.0
X178.25Y-79.5
X178.25Y-83.0
X178.25Y-86.5
X178.25Y-90.0
X178.25Y-109.5
X178.25Y-113.0
X178.25Y-116.5
X178.25Y-120.0
X178.25Y-123.5
X178.25Y-127.0
X178.25Y-130.5
X178.25Y-134.0
X178.25Y-137.5
X178.25Y-141.0
X180.6Y-97.35
X180.6Y-148.35
X180.75Y-57.25
X180.75Y-108.25
X181.75Y-58.5
X181.75Y-62.0
X181.75Y-65.5
X181.75Y-69.0
X181.75Y-72.5
X181.75Y-76.0
X181.75Y-79.5
X181.75Y-83.0
X181.75Y-86.5
X181.75Y-90.0
X181.75Y-109.5
X181.75Y-113.0
X181.75Y-116.5
X181.75Y-120.0
X181.75Y-123.5
X181.75Y-127.0
X181.75Y-130.5
X181.75Y-134.0
X181.75Y-137.5
X181.75Y-141.0
X185.25Y-58.5
X185.25Y-62.0
X185.25Y-65.5
X185.25Y-69.0
X185.25Y-72.5
X185.25Y-76.0
X185.25Y-79.5
X185.25Y-83.0
X185.25Y-86.5
X185.25Y-90.0
X185.25Y-109.5
X185.25Y-113.0
X185.25Y-116.5
X185.25Y-120.0
X185.25Y-123.5
X185.25Y-127.0
X185.25Y-130.5
X185.25Y-134.0
X185.25Y-137.5
X185.25Y-141.0
T0
M30
