%TF.GenerationSoftware,KiCad,Pcbnew,(6.0.9)*%
%TF.CreationDate,2023-02-03T02:03:44-05:00*%
%TF.ProjectId,businesscard_panel,62757369-6e65-4737-9363-6172645f7061,rev?*%
%TF.SameCoordinates,Original*%
%TF.FileFunction,Soldermask,Bot*%
%TF.FilePolarity,Negative*%
%FSLAX46Y46*%
G04 Gerber Fmt 4.6, Leading zero omitted, Abs format (unit mm)*
G04 Created by KiCad (PCBNEW (6.0.9)) date 2023-02-03 02:03:44*
%MOMM*%
%LPD*%
G01*
G04 APERTURE LIST*
G04 Aperture macros list*
%AMRoundRect*
0 Rectangle with rounded corners*
0 $1 Rounding radius*
0 $2 $3 $4 $5 $6 $7 $8 $9 X,Y pos of 4 corners*
0 Add a 4 corners polygon primitive as box body*
4,1,4,$2,$3,$4,$5,$6,$7,$8,$9,$2,$3,0*
0 Add four circle primitives for the rounded corners*
1,1,$1+$1,$2,$3*
1,1,$1+$1,$4,$5*
1,1,$1+$1,$6,$7*
1,1,$1+$1,$8,$9*
0 Add four rect primitives between the rounded corners*
20,1,$1+$1,$2,$3,$4,$5,0*
20,1,$1+$1,$4,$5,$6,$7,0*
20,1,$1+$1,$6,$7,$8,$9,0*
20,1,$1+$1,$8,$9,$2,$3,0*%
%AMRotRect*
0 Rectangle, with rotation*
0 The origin of the aperture is its center*
0 $1 length*
0 $2 width*
0 $3 Rotation angle, in degrees counterclockwise*
0 Add horizontal line*
21,1,$1,$2,0,0,$3*%
%AMFreePoly0*
4,1,15,-1.143000,0.750000,1.143000,0.750000,1.143000,-0.375000,1.127371,-0.482133,1.073293,-0.592764,0.986296,-0.679914,0.875760,-0.734183,0.768000,-0.750000,-0.768000,-0.750000,-0.875133,-0.734371,-0.985764,-0.680293,-1.072913,-0.593297,-1.127183,-0.482760,-1.143000,-0.375000,-1.143000,0.750000,-1.143000,0.750000,$1*%
%AMFreePoly1*
4,1,15,-1.143000,0.375000,-1.127371,0.482133,-1.073293,0.592764,-0.986296,0.679914,-0.875760,0.734183,-0.768000,0.750000,0.768000,0.750000,0.875133,0.734371,0.985764,0.680293,1.072913,0.593297,1.127183,0.482760,1.143000,0.375000,1.143000,-0.750000,-1.143000,-0.750000,-1.143000,0.375000,-1.143000,0.375000,$1*%
G04 Aperture macros list end*
%ADD10C,1.500000*%
%ADD11RoundRect,0.237500X-0.618718X0.282843X0.282843X-0.618718X0.618718X-0.282843X-0.282843X0.618718X0*%
%ADD12C,0.600000*%
%ADD13O,0.800000X1.500000*%
%ADD14RotRect,1.700000X1.500000X315.000000*%
%ADD15RotRect,1.700000X1.500000X45.000000*%
%ADD16RoundRect,0.100000X0.100000X-1.337500X0.100000X1.337500X-0.100000X1.337500X-0.100000X-1.337500X0*%
%ADD17RotRect,3.000000X6.000000X45.000000*%
%ADD18FreePoly0,135.000000*%
%ADD19FreePoly1,135.000000*%
%ADD20RotRect,1.700000X1.500000X225.000000*%
%ADD21R,1.700000X1.500000*%
%ADD22RotRect,1.700000X1.500000X135.000000*%
%ADD23RoundRect,0.160000X0.160000X-0.197500X0.160000X0.197500X-0.160000X0.197500X-0.160000X-0.197500X0*%
%ADD24RoundRect,0.160000X-0.026517X-0.252791X0.252791X0.026517X0.026517X0.252791X-0.252791X-0.026517X0*%
%ADD25RoundRect,0.155000X0.212500X0.155000X-0.212500X0.155000X-0.212500X-0.155000X0.212500X-0.155000X0*%
%ADD26RoundRect,0.160000X-0.252791X0.026517X0.026517X-0.252791X0.252791X-0.026517X-0.026517X0.252791X0*%
%ADD27RoundRect,0.160000X0.026517X0.252791X-0.252791X-0.026517X-0.026517X-0.252791X0.252791X0.026517X0*%
%ADD28RoundRect,0.160000X0.252791X-0.026517X-0.026517X0.252791X-0.252791X0.026517X0.026517X-0.252791X0*%
%ADD29RoundRect,0.155000X0.155000X-0.212500X0.155000X0.212500X-0.155000X0.212500X-0.155000X-0.212500X0*%
G04 APERTURE END LIST*
D10*
%TO.C,D61*%
X169500000Y-58500000D03*
D11*
X168633794Y-57633794D03*
X170366206Y-59366206D03*
%TD*%
D10*
%TO.C,D79*%
X173000000Y-137500000D03*
D11*
X172133794Y-136633794D03*
X173866206Y-138366206D03*
%TD*%
D10*
%TO.C,D101*%
X183500000Y-58500000D03*
D11*
X182633794Y-57633794D03*
X184366206Y-59366206D03*
%TD*%
D10*
%TO.C,D97*%
X180000000Y-79500000D03*
D11*
X179133794Y-78633794D03*
X180866206Y-80366206D03*
%TD*%
D10*
%TO.C,D51*%
X166000000Y-58500000D03*
D11*
X165133794Y-57633794D03*
X166866206Y-59366206D03*
%TD*%
D10*
%TO.C,D25*%
X155500000Y-123500000D03*
D11*
X154633794Y-122633794D03*
X156366206Y-124366206D03*
%TD*%
D10*
%TO.C,D78*%
X173000000Y-83000000D03*
D11*
X172133794Y-82133794D03*
X173866206Y-83866206D03*
%TD*%
D10*
%TO.C,D56*%
X166000000Y-127000000D03*
D11*
X165133794Y-126133794D03*
X166866206Y-127866206D03*
%TD*%
D10*
%TO.C,D32*%
X159000000Y-113000000D03*
D11*
X158133794Y-112133794D03*
X159866206Y-113866206D03*
%TD*%
D10*
%TO.C,D26*%
X155500000Y-127000000D03*
D11*
X154633794Y-126133794D03*
X156366206Y-127866206D03*
%TD*%
D10*
%TO.C,D94*%
X180000000Y-120000000D03*
D11*
X179133794Y-119133794D03*
X180866206Y-120866206D03*
%TD*%
D10*
%TO.C,D76*%
X173000000Y-127000000D03*
D11*
X172133794Y-126133794D03*
X173866206Y-127866206D03*
%TD*%
D12*
%TO.C,J1*%
X116270000Y-103155000D03*
X117540000Y-103155000D03*
X113730000Y-103155000D03*
X112460000Y-103155000D03*
X115000000Y-103155000D03*
D13*
X116905000Y-102000000D03*
X115635000Y-102000000D03*
X114365000Y-102000000D03*
X113095000Y-102000000D03*
%TD*%
D10*
%TO.C,D50*%
X162500000Y-90000000D03*
D11*
X161633794Y-89133794D03*
X163366206Y-90866206D03*
%TD*%
D10*
%TO.C,D96*%
X180000000Y-76000000D03*
D11*
X179133794Y-75133794D03*
X180866206Y-76866206D03*
%TD*%
D14*
%TO.C,SW4*%
X136550431Y-110472004D03*
X142277996Y-116199569D03*
X133722004Y-113300431D03*
X139449569Y-119027996D03*
%TD*%
D10*
%TO.C,D53*%
X166000000Y-116500000D03*
D11*
X165133794Y-115633794D03*
X166866206Y-117366206D03*
%TD*%
D10*
%TO.C,D80*%
X173000000Y-141000000D03*
D11*
X172133794Y-140133794D03*
X173866206Y-141866206D03*
%TD*%
D10*
%TO.C,D81*%
X176500000Y-109500000D03*
D11*
X175633794Y-108633794D03*
X177366206Y-110366206D03*
%TD*%
D10*
%TO.C,D9*%
X148500000Y-86500000D03*
D11*
X147633794Y-85633794D03*
X149366206Y-87366206D03*
%TD*%
D10*
%TO.C,D20*%
X152000000Y-90000000D03*
D11*
X151133794Y-89133794D03*
X152866206Y-90866206D03*
%TD*%
D10*
%TO.C,D45*%
X162500000Y-72500000D03*
D11*
X161633794Y-71633794D03*
X163366206Y-73366206D03*
%TD*%
D10*
%TO.C,D24*%
X155500000Y-120000000D03*
D11*
X154633794Y-119133794D03*
X156366206Y-120866206D03*
%TD*%
D10*
%TO.C,D100*%
X180000000Y-141000000D03*
D11*
X179133794Y-140133794D03*
X180866206Y-141866206D03*
%TD*%
D15*
%TO.C,SW3*%
X133449569Y-53472004D03*
X127722004Y-59199569D03*
X136277996Y-56300431D03*
X130550431Y-62027996D03*
%TD*%
D10*
%TO.C,D41*%
X162500000Y-58500000D03*
D11*
X161633794Y-57633794D03*
X163366206Y-59366206D03*
%TD*%
D10*
%TO.C,D85*%
X176500000Y-72500000D03*
D11*
X175633794Y-71633794D03*
X177366206Y-73366206D03*
%TD*%
D10*
%TO.C,D42*%
X162500000Y-62000000D03*
D11*
X161633794Y-61133794D03*
X163366206Y-62866206D03*
%TD*%
D10*
%TO.C,D32*%
X159000000Y-62000000D03*
D11*
X158133794Y-61133794D03*
X159866206Y-62866206D03*
%TD*%
D10*
%TO.C,D107*%
X183500000Y-130500000D03*
D11*
X182633794Y-129633794D03*
X184366206Y-131366206D03*
%TD*%
D10*
%TO.C,D68*%
X169500000Y-134000000D03*
D11*
X168633794Y-133133794D03*
X170366206Y-134866206D03*
%TD*%
D10*
%TO.C,D104*%
X183500000Y-120000000D03*
D11*
X182633794Y-119133794D03*
X184366206Y-120866206D03*
%TD*%
D10*
%TO.C,D75*%
X173000000Y-72500000D03*
D11*
X172133794Y-71633794D03*
X173866206Y-73366206D03*
%TD*%
D10*
%TO.C,D58*%
X166000000Y-83000000D03*
D11*
X165133794Y-82133794D03*
X166866206Y-83866206D03*
%TD*%
D14*
%TO.C,SW4*%
X136550431Y-59472004D03*
X142277996Y-65199569D03*
X133722004Y-62300431D03*
X139449569Y-68027996D03*
%TD*%
D10*
%TO.C,D71*%
X173000000Y-58500000D03*
D11*
X172133794Y-57633794D03*
X173866206Y-59366206D03*
%TD*%
D10*
%TO.C,D15*%
X152000000Y-72500000D03*
D11*
X151133794Y-71633794D03*
X152866206Y-73366206D03*
%TD*%
D10*
%TO.C,D64*%
X169500000Y-69000000D03*
D11*
X168633794Y-68133794D03*
X170366206Y-69866206D03*
%TD*%
D10*
%TO.C,D49*%
X162500000Y-137500000D03*
D11*
X161633794Y-136633794D03*
X163366206Y-138366206D03*
%TD*%
D10*
%TO.C,D86*%
X176500000Y-76000000D03*
D11*
X175633794Y-75133794D03*
X177366206Y-76866206D03*
%TD*%
D10*
%TO.C,D59*%
X166000000Y-86500000D03*
D11*
X165133794Y-85633794D03*
X166866206Y-87366206D03*
%TD*%
D10*
%TO.C,D57*%
X166000000Y-130500000D03*
D11*
X165133794Y-129633794D03*
X166866206Y-131366206D03*
%TD*%
D10*
%TO.C,D82*%
X176500000Y-62000000D03*
D11*
X175633794Y-61133794D03*
X177366206Y-62866206D03*
%TD*%
D10*
%TO.C,D48*%
X162500000Y-83000000D03*
D11*
X161633794Y-82133794D03*
X163366206Y-83866206D03*
%TD*%
D10*
%TO.C,D23*%
X155500000Y-65500000D03*
D11*
X154633794Y-64633794D03*
X156366206Y-66366206D03*
%TD*%
D10*
%TO.C,D73*%
X173000000Y-116500000D03*
D11*
X172133794Y-115633794D03*
X173866206Y-117366206D03*
%TD*%
D10*
%TO.C,D34*%
X159000000Y-120000000D03*
D11*
X158133794Y-119133794D03*
X159866206Y-120866206D03*
%TD*%
D10*
%TO.C,D103*%
X183500000Y-116500000D03*
D11*
X182633794Y-115633794D03*
X184366206Y-117366206D03*
%TD*%
D10*
%TO.C,D69*%
X169500000Y-137500000D03*
D11*
X168633794Y-136633794D03*
X170366206Y-138366206D03*
%TD*%
D10*
%TO.C,D51*%
X166000000Y-109500000D03*
D11*
X165133794Y-108633794D03*
X166866206Y-110366206D03*
%TD*%
D10*
%TO.C,D22*%
X155500000Y-113000000D03*
D11*
X154633794Y-112133794D03*
X156366206Y-113866206D03*
%TD*%
D10*
%TO.C,D8*%
X148500000Y-83000000D03*
D11*
X147633794Y-82133794D03*
X149366206Y-83866206D03*
%TD*%
D10*
%TO.C,D29*%
X155500000Y-86500000D03*
D11*
X154633794Y-85633794D03*
X156366206Y-87366206D03*
%TD*%
D10*
%TO.C,D106*%
X183500000Y-127000000D03*
D11*
X182633794Y-126133794D03*
X184366206Y-127866206D03*
%TD*%
D10*
%TO.C,D49*%
X162500000Y-86500000D03*
D11*
X161633794Y-85633794D03*
X163366206Y-87366206D03*
%TD*%
D10*
%TO.C,D55*%
X166000000Y-123500000D03*
D11*
X165133794Y-122633794D03*
X166866206Y-124366206D03*
%TD*%
D10*
%TO.C,D92*%
X180000000Y-62000000D03*
D11*
X179133794Y-61133794D03*
X180866206Y-62866206D03*
%TD*%
D10*
%TO.C,D5*%
X148500000Y-123500000D03*
D11*
X147633794Y-122633794D03*
X149366206Y-124366206D03*
%TD*%
D16*
%TO.C,U1*%
X106075000Y-117562500D03*
X106725000Y-117562500D03*
X107375000Y-117562500D03*
X108025000Y-117562500D03*
X108675000Y-117562500D03*
X109325000Y-117562500D03*
X109975000Y-117562500D03*
X110625000Y-117562500D03*
X111275000Y-117562500D03*
X111925000Y-117562500D03*
X111925000Y-110437500D03*
X111275000Y-110437500D03*
X110625000Y-110437500D03*
X109975000Y-110437500D03*
X109325000Y-110437500D03*
X108675000Y-110437500D03*
X108025000Y-110437500D03*
X107375000Y-110437500D03*
X106725000Y-110437500D03*
X106075000Y-110437500D03*
%TD*%
D10*
%TO.C,D18*%
X152000000Y-134000000D03*
D11*
X151133794Y-133133794D03*
X152866206Y-134866206D03*
%TD*%
D10*
%TO.C,D105*%
X183500000Y-123500000D03*
D11*
X182633794Y-122633794D03*
X184366206Y-124366206D03*
%TD*%
D10*
%TO.C,D37*%
X159000000Y-79500000D03*
D11*
X158133794Y-78633794D03*
X159866206Y-80366206D03*
%TD*%
D10*
%TO.C,D53*%
X166000000Y-65500000D03*
D11*
X165133794Y-64633794D03*
X166866206Y-66366206D03*
%TD*%
D10*
%TO.C,D11*%
X152000000Y-109500000D03*
D11*
X151133794Y-108633794D03*
X152866206Y-110366206D03*
%TD*%
D10*
%TO.C,D107*%
X183500000Y-79500000D03*
D11*
X182633794Y-78633794D03*
X184366206Y-80366206D03*
%TD*%
D10*
%TO.C,D35*%
X159000000Y-123500000D03*
D11*
X158133794Y-122633794D03*
X159866206Y-124366206D03*
%TD*%
D10*
%TO.C,D94*%
X180000000Y-69000000D03*
D11*
X179133794Y-68133794D03*
X180866206Y-69866206D03*
%TD*%
D10*
%TO.C,D61*%
X169500000Y-109500000D03*
D11*
X168633794Y-108633794D03*
X170366206Y-110366206D03*
%TD*%
D10*
%TO.C,D72*%
X173000000Y-113000000D03*
D11*
X172133794Y-112133794D03*
X173866206Y-113866206D03*
%TD*%
D10*
%TO.C,D73*%
X173000000Y-65500000D03*
D11*
X172133794Y-64633794D03*
X173866206Y-66366206D03*
%TD*%
D10*
%TO.C,D35*%
X159000000Y-72500000D03*
D11*
X158133794Y-71633794D03*
X159866206Y-73366206D03*
%TD*%
D10*
%TO.C,D34*%
X159000000Y-69000000D03*
D11*
X158133794Y-68133794D03*
X159866206Y-69866206D03*
%TD*%
D10*
%TO.C,D52*%
X166000000Y-113000000D03*
D11*
X165133794Y-112133794D03*
X166866206Y-113866206D03*
%TD*%
D10*
%TO.C,D27*%
X155500000Y-79500000D03*
D11*
X154633794Y-78633794D03*
X156366206Y-80366206D03*
%TD*%
D10*
%TO.C,D24*%
X155500000Y-69000000D03*
D11*
X154633794Y-68133794D03*
X156366206Y-69866206D03*
%TD*%
D10*
%TO.C,D21*%
X155500000Y-58500000D03*
D11*
X154633794Y-57633794D03*
X156366206Y-59366206D03*
%TD*%
D10*
%TO.C,D5*%
X148500000Y-72500000D03*
D11*
X147633794Y-71633794D03*
X149366206Y-73366206D03*
%TD*%
D10*
%TO.C,D46*%
X162500000Y-127000000D03*
D11*
X161633794Y-126133794D03*
X163366206Y-127866206D03*
%TD*%
D10*
%TO.C,D22*%
X155500000Y-62000000D03*
D11*
X154633794Y-61133794D03*
X156366206Y-62866206D03*
%TD*%
D10*
%TO.C,D50*%
X162500000Y-141000000D03*
D11*
X161633794Y-140133794D03*
X163366206Y-141866206D03*
%TD*%
D10*
%TO.C,D55*%
X166000000Y-72500000D03*
D11*
X165133794Y-71633794D03*
X166866206Y-73366206D03*
%TD*%
D10*
%TO.C,D3*%
X148500000Y-65500000D03*
D11*
X147633794Y-64633794D03*
X149366206Y-66366206D03*
%TD*%
D10*
%TO.C,D1*%
X148500000Y-58500000D03*
D11*
X147633794Y-57633794D03*
X149366206Y-59366206D03*
%TD*%
D10*
%TO.C,D16*%
X152000000Y-127000000D03*
D11*
X151133794Y-126133794D03*
X152866206Y-127866206D03*
%TD*%
D10*
%TO.C,D9*%
X148500000Y-137500000D03*
D11*
X147633794Y-136633794D03*
X149366206Y-138366206D03*
%TD*%
D10*
%TO.C,D66*%
X169500000Y-127000000D03*
D11*
X168633794Y-126133794D03*
X170366206Y-127866206D03*
%TD*%
D10*
%TO.C,D105*%
X183500000Y-72500000D03*
D11*
X182633794Y-71633794D03*
X184366206Y-73366206D03*
%TD*%
D10*
%TO.C,D91*%
X180000000Y-58500000D03*
D11*
X179133794Y-57633794D03*
X180866206Y-59366206D03*
%TD*%
D10*
%TO.C,D103*%
X183500000Y-65500000D03*
D11*
X182633794Y-64633794D03*
X184366206Y-66366206D03*
%TD*%
D10*
%TO.C,D93*%
X180000000Y-65500000D03*
D11*
X179133794Y-64633794D03*
X180866206Y-66366206D03*
%TD*%
D10*
%TO.C,D79*%
X173000000Y-86500000D03*
D11*
X172133794Y-85633794D03*
X173866206Y-87366206D03*
%TD*%
D17*
%TO.C,BT1*%
X119659902Y-130340098D03*
X103750000Y-146250000D03*
%TD*%
D10*
%TO.C,D15*%
X152000000Y-123500000D03*
D11*
X151133794Y-122633794D03*
X152866206Y-124366206D03*
%TD*%
D10*
%TO.C,D17*%
X152000000Y-130500000D03*
D11*
X151133794Y-129633794D03*
X152866206Y-131366206D03*
%TD*%
D10*
%TO.C,D69*%
X169500000Y-86500000D03*
D11*
X168633794Y-85633794D03*
X170366206Y-87366206D03*
%TD*%
D10*
%TO.C,D98*%
X180000000Y-134000000D03*
D11*
X179133794Y-133133794D03*
X180866206Y-134866206D03*
%TD*%
D10*
%TO.C,D54*%
X166000000Y-120000000D03*
D11*
X165133794Y-119133794D03*
X166866206Y-120866206D03*
%TD*%
D10*
%TO.C,D74*%
X173000000Y-120000000D03*
D11*
X172133794Y-119133794D03*
X173866206Y-120866206D03*
%TD*%
D10*
%TO.C,D62*%
X169500000Y-62000000D03*
D11*
X168633794Y-61133794D03*
X170366206Y-62866206D03*
%TD*%
D10*
%TO.C,D82*%
X176500000Y-113000000D03*
D11*
X175633794Y-112133794D03*
X177366206Y-113866206D03*
%TD*%
D10*
%TO.C,D43*%
X162500000Y-116500000D03*
D11*
X161633794Y-115633794D03*
X163366206Y-117366206D03*
%TD*%
D10*
%TO.C,D102*%
X183500000Y-113000000D03*
D11*
X182633794Y-112133794D03*
X184366206Y-113866206D03*
%TD*%
D10*
%TO.C,D86*%
X176500000Y-127000000D03*
D11*
X175633794Y-126133794D03*
X177366206Y-127866206D03*
%TD*%
D10*
%TO.C,D98*%
X180000000Y-83000000D03*
D11*
X179133794Y-82133794D03*
X180866206Y-83866206D03*
%TD*%
D10*
%TO.C,D63*%
X169500000Y-65500000D03*
D11*
X168633794Y-64633794D03*
X170366206Y-66366206D03*
%TD*%
D10*
%TO.C,D2*%
X148500000Y-62000000D03*
D11*
X147633794Y-61133794D03*
X149366206Y-62866206D03*
%TD*%
D18*
%TO.C,SW1*%
X106444544Y-124055456D03*
D19*
X102555456Y-127944544D03*
%TD*%
D10*
%TO.C,D41*%
X162500000Y-109500000D03*
D11*
X161633794Y-108633794D03*
X163366206Y-110366206D03*
%TD*%
D10*
%TO.C,D6*%
X148500000Y-76000000D03*
D11*
X147633794Y-75133794D03*
X149366206Y-76866206D03*
%TD*%
D10*
%TO.C,D29*%
X155500000Y-137500000D03*
D11*
X154633794Y-136633794D03*
X156366206Y-138366206D03*
%TD*%
D10*
%TO.C,D37*%
X159000000Y-130500000D03*
D11*
X158133794Y-129633794D03*
X159866206Y-131366206D03*
%TD*%
D10*
%TO.C,D56*%
X166000000Y-76000000D03*
D11*
X165133794Y-75133794D03*
X166866206Y-76866206D03*
%TD*%
D10*
%TO.C,D47*%
X162500000Y-79500000D03*
D11*
X161633794Y-78633794D03*
X163366206Y-80366206D03*
%TD*%
D10*
%TO.C,D72*%
X173000000Y-62000000D03*
D11*
X172133794Y-61133794D03*
X173866206Y-62866206D03*
%TD*%
D10*
%TO.C,D85*%
X176500000Y-123500000D03*
D11*
X175633794Y-122633794D03*
X177366206Y-124366206D03*
%TD*%
D10*
%TO.C,D110*%
X183500000Y-90000000D03*
D11*
X182633794Y-89133794D03*
X184366206Y-90866206D03*
%TD*%
D16*
%TO.C,U1*%
X106075000Y-66562500D03*
X106725000Y-66562500D03*
X107375000Y-66562500D03*
X108025000Y-66562500D03*
X108675000Y-66562500D03*
X109325000Y-66562500D03*
X109975000Y-66562500D03*
X110625000Y-66562500D03*
X111275000Y-66562500D03*
X111925000Y-66562500D03*
X111925000Y-59437500D03*
X111275000Y-59437500D03*
X110625000Y-59437500D03*
X109975000Y-59437500D03*
X109325000Y-59437500D03*
X108675000Y-59437500D03*
X108025000Y-59437500D03*
X107375000Y-59437500D03*
X106725000Y-59437500D03*
X106075000Y-59437500D03*
%TD*%
D10*
%TO.C,D67*%
X169500000Y-130500000D03*
D11*
X168633794Y-129633794D03*
X170366206Y-131366206D03*
%TD*%
D10*
%TO.C,D64*%
X169500000Y-120000000D03*
D11*
X168633794Y-119133794D03*
X170366206Y-120866206D03*
%TD*%
D10*
%TO.C,D23*%
X155500000Y-116500000D03*
D11*
X154633794Y-115633794D03*
X156366206Y-117366206D03*
%TD*%
D17*
%TO.C,BT1*%
X119659902Y-79340098D03*
X103750000Y-95250000D03*
%TD*%
D10*
%TO.C,D58*%
X166000000Y-134000000D03*
D11*
X165133794Y-133133794D03*
X166866206Y-134866206D03*
%TD*%
D20*
%TO.C,SW5*%
X136277996Y-119300431D03*
X130550431Y-125027996D03*
X133449569Y-116472004D03*
X127722004Y-122199569D03*
%TD*%
D15*
%TO.C,SW3*%
X133449569Y-104472004D03*
X127722004Y-110199569D03*
X136277996Y-107300431D03*
X130550431Y-113027996D03*
%TD*%
D10*
%TO.C,D84*%
X176500000Y-120000000D03*
D11*
X175633794Y-119133794D03*
X177366206Y-120866206D03*
%TD*%
D10*
%TO.C,D4*%
X148500000Y-120000000D03*
D11*
X147633794Y-119133794D03*
X149366206Y-120866206D03*
%TD*%
D10*
%TO.C,D19*%
X152000000Y-137500000D03*
D11*
X151133794Y-136633794D03*
X152866206Y-138366206D03*
%TD*%
D10*
%TO.C,D40*%
X159000000Y-141000000D03*
D11*
X158133794Y-140133794D03*
X159866206Y-141866206D03*
%TD*%
D10*
%TO.C,D67*%
X169500000Y-79500000D03*
D11*
X168633794Y-78633794D03*
X170366206Y-80366206D03*
%TD*%
D21*
%TO.C,SW7*%
X131950000Y-92750000D03*
X140050000Y-92750000D03*
X131950000Y-88750000D03*
X140050000Y-88750000D03*
%TD*%
D22*
%TO.C,SW2*%
X127449569Y-68027996D03*
X121722004Y-62300431D03*
X124550431Y-59472004D03*
X130277996Y-65199569D03*
%TD*%
D10*
%TO.C,D30*%
X155500000Y-141000000D03*
D11*
X154633794Y-140133794D03*
X156366206Y-141866206D03*
%TD*%
D10*
%TO.C,D44*%
X162500000Y-120000000D03*
D11*
X161633794Y-119133794D03*
X163366206Y-120866206D03*
%TD*%
D10*
%TO.C,D70*%
X169500000Y-141000000D03*
D11*
X168633794Y-140133794D03*
X170366206Y-141866206D03*
%TD*%
D10*
%TO.C,D108*%
X183500000Y-134000000D03*
D11*
X182633794Y-133133794D03*
X184366206Y-134866206D03*
%TD*%
D10*
%TO.C,D31*%
X159000000Y-109500000D03*
D11*
X158133794Y-108633794D03*
X159866206Y-110366206D03*
%TD*%
D10*
%TO.C,D62*%
X169500000Y-113000000D03*
D11*
X168633794Y-112133794D03*
X170366206Y-113866206D03*
%TD*%
D10*
%TO.C,D26*%
X155500000Y-76000000D03*
D11*
X154633794Y-75133794D03*
X156366206Y-76866206D03*
%TD*%
D10*
%TO.C,D28*%
X155500000Y-134000000D03*
D11*
X154633794Y-133133794D03*
X156366206Y-134866206D03*
%TD*%
D10*
%TO.C,D48*%
X162500000Y-134000000D03*
D11*
X161633794Y-133133794D03*
X163366206Y-134866206D03*
%TD*%
D10*
%TO.C,D76*%
X173000000Y-76000000D03*
D11*
X172133794Y-75133794D03*
X173866206Y-76866206D03*
%TD*%
D10*
%TO.C,D83*%
X176500000Y-116500000D03*
D11*
X175633794Y-115633794D03*
X177366206Y-117366206D03*
%TD*%
D10*
%TO.C,D60*%
X166000000Y-141000000D03*
D11*
X165133794Y-140133794D03*
X166866206Y-141866206D03*
%TD*%
D10*
%TO.C,D59*%
X166000000Y-137500000D03*
D11*
X165133794Y-136633794D03*
X166866206Y-138366206D03*
%TD*%
D10*
%TO.C,D87*%
X176500000Y-79500000D03*
D11*
X175633794Y-78633794D03*
X177366206Y-80366206D03*
%TD*%
D10*
%TO.C,D70*%
X169500000Y-90000000D03*
D11*
X168633794Y-89133794D03*
X170366206Y-90866206D03*
%TD*%
D10*
%TO.C,D89*%
X176500000Y-86500000D03*
D11*
X175633794Y-85633794D03*
X177366206Y-87366206D03*
%TD*%
D10*
%TO.C,D3*%
X148500000Y-116500000D03*
D11*
X147633794Y-115633794D03*
X149366206Y-117366206D03*
%TD*%
D10*
%TO.C,D10*%
X148500000Y-90000000D03*
D11*
X147633794Y-89133794D03*
X149366206Y-90866206D03*
%TD*%
D10*
%TO.C,D47*%
X162500000Y-130500000D03*
D11*
X161633794Y-129633794D03*
X163366206Y-131366206D03*
%TD*%
D10*
%TO.C,D18*%
X152000000Y-83000000D03*
D11*
X151133794Y-82133794D03*
X152866206Y-83866206D03*
%TD*%
D10*
%TO.C,D42*%
X162500000Y-113000000D03*
D11*
X161633794Y-112133794D03*
X163366206Y-113866206D03*
%TD*%
D10*
%TO.C,D71*%
X173000000Y-109500000D03*
D11*
X172133794Y-108633794D03*
X173866206Y-110366206D03*
%TD*%
D10*
%TO.C,D33*%
X159000000Y-116500000D03*
D11*
X158133794Y-115633794D03*
X159866206Y-117366206D03*
%TD*%
D10*
%TO.C,D20*%
X152000000Y-141000000D03*
D11*
X151133794Y-140133794D03*
X152866206Y-141866206D03*
%TD*%
D10*
%TO.C,D45*%
X162500000Y-123500000D03*
D11*
X161633794Y-122633794D03*
X163366206Y-124366206D03*
%TD*%
D21*
%TO.C,SW7*%
X131950000Y-143750000D03*
X140050000Y-143750000D03*
X131950000Y-139750000D03*
X140050000Y-139750000D03*
%TD*%
D10*
%TO.C,D92*%
X180000000Y-113000000D03*
D11*
X179133794Y-112133794D03*
X180866206Y-113866206D03*
%TD*%
D10*
%TO.C,D87*%
X176500000Y-130500000D03*
D11*
X175633794Y-129633794D03*
X177366206Y-131366206D03*
%TD*%
D10*
%TO.C,D38*%
X159000000Y-83000000D03*
D11*
X158133794Y-82133794D03*
X159866206Y-83866206D03*
%TD*%
D10*
%TO.C,D104*%
X183500000Y-69000000D03*
D11*
X182633794Y-68133794D03*
X184366206Y-69866206D03*
%TD*%
D10*
%TO.C,D54*%
X166000000Y-69000000D03*
D11*
X165133794Y-68133794D03*
X166866206Y-69866206D03*
%TD*%
D10*
%TO.C,D14*%
X152000000Y-69000000D03*
D11*
X151133794Y-68133794D03*
X152866206Y-69866206D03*
%TD*%
D10*
%TO.C,D33*%
X159000000Y-65500000D03*
D11*
X158133794Y-64633794D03*
X159866206Y-66366206D03*
%TD*%
D10*
%TO.C,D90*%
X176500000Y-90000000D03*
D11*
X175633794Y-89133794D03*
X177366206Y-90866206D03*
%TD*%
D10*
%TO.C,D110*%
X183500000Y-141000000D03*
D11*
X182633794Y-140133794D03*
X184366206Y-141866206D03*
%TD*%
D10*
%TO.C,D25*%
X155500000Y-72500000D03*
D11*
X154633794Y-71633794D03*
X156366206Y-73366206D03*
%TD*%
D18*
%TO.C,SW1*%
X106444544Y-73055456D03*
D19*
X102555456Y-76944544D03*
%TD*%
D10*
%TO.C,D7*%
X148500000Y-79500000D03*
D11*
X147633794Y-78633794D03*
X149366206Y-80366206D03*
%TD*%
D10*
%TO.C,D89*%
X176500000Y-137500000D03*
D11*
X175633794Y-136633794D03*
X177366206Y-138366206D03*
%TD*%
D10*
%TO.C,D65*%
X169500000Y-72500000D03*
D11*
X168633794Y-71633794D03*
X170366206Y-73366206D03*
%TD*%
D10*
%TO.C,D78*%
X173000000Y-134000000D03*
D11*
X172133794Y-133133794D03*
X173866206Y-134866206D03*
%TD*%
D10*
%TO.C,D80*%
X173000000Y-90000000D03*
D11*
X172133794Y-89133794D03*
X173866206Y-90866206D03*
%TD*%
D10*
%TO.C,D100*%
X180000000Y-90000000D03*
D11*
X179133794Y-89133794D03*
X180866206Y-90866206D03*
%TD*%
D10*
%TO.C,D88*%
X176500000Y-134000000D03*
D11*
X175633794Y-133133794D03*
X177366206Y-134866206D03*
%TD*%
D10*
%TO.C,D93*%
X180000000Y-116500000D03*
D11*
X179133794Y-115633794D03*
X180866206Y-117366206D03*
%TD*%
D10*
%TO.C,D90*%
X176500000Y-141000000D03*
D11*
X175633794Y-140133794D03*
X177366206Y-141866206D03*
%TD*%
D10*
%TO.C,D31*%
X159000000Y-58500000D03*
D11*
X158133794Y-57633794D03*
X159866206Y-59366206D03*
%TD*%
D10*
%TO.C,D77*%
X173000000Y-79500000D03*
D11*
X172133794Y-78633794D03*
X173866206Y-80366206D03*
%TD*%
D20*
%TO.C,SW5*%
X136277996Y-68300431D03*
X130550431Y-74027996D03*
X133449569Y-65472004D03*
X127722004Y-71199569D03*
%TD*%
D10*
%TO.C,D21*%
X155500000Y-109500000D03*
D11*
X154633794Y-108633794D03*
X156366206Y-110366206D03*
%TD*%
D10*
%TO.C,D8*%
X148500000Y-134000000D03*
D11*
X147633794Y-133133794D03*
X149366206Y-134866206D03*
%TD*%
D10*
%TO.C,D13*%
X152000000Y-65500000D03*
D11*
X151133794Y-64633794D03*
X152866206Y-66366206D03*
%TD*%
D10*
%TO.C,D77*%
X173000000Y-130500000D03*
D11*
X172133794Y-129633794D03*
X173866206Y-131366206D03*
%TD*%
D10*
%TO.C,D13*%
X152000000Y-116500000D03*
D11*
X151133794Y-115633794D03*
X152866206Y-117366206D03*
%TD*%
D10*
%TO.C,D63*%
X169500000Y-116500000D03*
D11*
X168633794Y-115633794D03*
X170366206Y-117366206D03*
%TD*%
D12*
%TO.C,J1*%
X116270000Y-52155000D03*
X117540000Y-52155000D03*
X113730000Y-52155000D03*
X112460000Y-52155000D03*
X115000000Y-52155000D03*
D13*
X116905000Y-51000000D03*
X115635000Y-51000000D03*
X114365000Y-51000000D03*
X113095000Y-51000000D03*
%TD*%
D10*
%TO.C,D109*%
X183500000Y-86500000D03*
D11*
X182633794Y-85633794D03*
X184366206Y-87366206D03*
%TD*%
D10*
%TO.C,D39*%
X159000000Y-137500000D03*
D11*
X158133794Y-136633794D03*
X159866206Y-138366206D03*
%TD*%
D10*
%TO.C,D28*%
X155500000Y-83000000D03*
D11*
X154633794Y-82133794D03*
X156366206Y-83866206D03*
%TD*%
D10*
%TO.C,D2*%
X148500000Y-113000000D03*
D11*
X147633794Y-112133794D03*
X149366206Y-113866206D03*
%TD*%
D10*
%TO.C,D95*%
X180000000Y-72500000D03*
D11*
X179133794Y-71633794D03*
X180866206Y-73366206D03*
%TD*%
D21*
%TO.C,SW6*%
X138050000Y-134750000D03*
X129950000Y-134750000D03*
X129950000Y-130750000D03*
X138050000Y-130750000D03*
%TD*%
D10*
%TO.C,D65*%
X169500000Y-123500000D03*
D11*
X168633794Y-122633794D03*
X170366206Y-124366206D03*
%TD*%
D10*
%TO.C,D74*%
X173000000Y-69000000D03*
D11*
X172133794Y-68133794D03*
X173866206Y-69866206D03*
%TD*%
D10*
%TO.C,D30*%
X155500000Y-90000000D03*
D11*
X154633794Y-89133794D03*
X156366206Y-90866206D03*
%TD*%
D10*
%TO.C,D36*%
X159000000Y-127000000D03*
D11*
X158133794Y-126133794D03*
X159866206Y-127866206D03*
%TD*%
D10*
%TO.C,D75*%
X173000000Y-123500000D03*
D11*
X172133794Y-122633794D03*
X173866206Y-124366206D03*
%TD*%
D10*
%TO.C,D39*%
X159000000Y-86500000D03*
D11*
X158133794Y-85633794D03*
X159866206Y-87366206D03*
%TD*%
D10*
%TO.C,D17*%
X152000000Y-79500000D03*
D11*
X151133794Y-78633794D03*
X152866206Y-80366206D03*
%TD*%
D10*
%TO.C,D14*%
X152000000Y-120000000D03*
D11*
X151133794Y-119133794D03*
X152866206Y-120866206D03*
%TD*%
D10*
%TO.C,D108*%
X183500000Y-83000000D03*
D11*
X182633794Y-82133794D03*
X184366206Y-83866206D03*
%TD*%
D10*
%TO.C,D66*%
X169500000Y-76000000D03*
D11*
X168633794Y-75133794D03*
X170366206Y-76866206D03*
%TD*%
D10*
%TO.C,D38*%
X159000000Y-134000000D03*
D11*
X158133794Y-133133794D03*
X159866206Y-134866206D03*
%TD*%
D10*
%TO.C,D12*%
X152000000Y-62000000D03*
D11*
X151133794Y-61133794D03*
X152866206Y-62866206D03*
%TD*%
D10*
%TO.C,D81*%
X176500000Y-58500000D03*
D11*
X175633794Y-57633794D03*
X177366206Y-59366206D03*
%TD*%
D10*
%TO.C,D27*%
X155500000Y-130500000D03*
D11*
X154633794Y-129633794D03*
X156366206Y-131366206D03*
%TD*%
D10*
%TO.C,D36*%
X159000000Y-76000000D03*
D11*
X158133794Y-75133794D03*
X159866206Y-76866206D03*
%TD*%
D10*
%TO.C,D6*%
X148500000Y-127000000D03*
D11*
X147633794Y-126133794D03*
X149366206Y-127866206D03*
%TD*%
D10*
%TO.C,D19*%
X152000000Y-86500000D03*
D11*
X151133794Y-85633794D03*
X152866206Y-87366206D03*
%TD*%
D10*
%TO.C,D44*%
X162500000Y-69000000D03*
D11*
X161633794Y-68133794D03*
X163366206Y-69866206D03*
%TD*%
D10*
%TO.C,D91*%
X180000000Y-109500000D03*
D11*
X179133794Y-108633794D03*
X180866206Y-110366206D03*
%TD*%
D10*
%TO.C,D12*%
X152000000Y-113000000D03*
D11*
X151133794Y-112133794D03*
X152866206Y-113866206D03*
%TD*%
D10*
%TO.C,D60*%
X166000000Y-90000000D03*
D11*
X165133794Y-89133794D03*
X166866206Y-90866206D03*
%TD*%
D21*
%TO.C,SW6*%
X138050000Y-83750000D03*
X129950000Y-83750000D03*
X129950000Y-79750000D03*
X138050000Y-79750000D03*
%TD*%
D10*
%TO.C,D84*%
X176500000Y-69000000D03*
D11*
X175633794Y-68133794D03*
X177366206Y-69866206D03*
%TD*%
D10*
%TO.C,D83*%
X176500000Y-65500000D03*
D11*
X175633794Y-64633794D03*
X177366206Y-66366206D03*
%TD*%
D10*
%TO.C,D52*%
X166000000Y-62000000D03*
D11*
X165133794Y-61133794D03*
X166866206Y-62866206D03*
%TD*%
D10*
%TO.C,D101*%
X183500000Y-109500000D03*
D11*
X182633794Y-108633794D03*
X184366206Y-110366206D03*
%TD*%
D10*
%TO.C,D7*%
X148500000Y-130500000D03*
D11*
X147633794Y-129633794D03*
X149366206Y-131366206D03*
%TD*%
D10*
%TO.C,D43*%
X162500000Y-65500000D03*
D11*
X161633794Y-64633794D03*
X163366206Y-66366206D03*
%TD*%
D10*
%TO.C,D57*%
X166000000Y-79500000D03*
D11*
X165133794Y-78633794D03*
X166866206Y-80366206D03*
%TD*%
D10*
%TO.C,D88*%
X176500000Y-83000000D03*
D11*
X175633794Y-82133794D03*
X177366206Y-83866206D03*
%TD*%
D10*
%TO.C,D4*%
X148500000Y-69000000D03*
D11*
X147633794Y-68133794D03*
X149366206Y-69866206D03*
%TD*%
D10*
%TO.C,D16*%
X152000000Y-76000000D03*
D11*
X151133794Y-75133794D03*
X152866206Y-76866206D03*
%TD*%
D10*
%TO.C,D96*%
X180000000Y-127000000D03*
D11*
X179133794Y-126133794D03*
X180866206Y-127866206D03*
%TD*%
D22*
%TO.C,SW2*%
X127449569Y-119027996D03*
X121722004Y-113300431D03*
X124550431Y-110472004D03*
X130277996Y-116199569D03*
%TD*%
D10*
%TO.C,D102*%
X183500000Y-62000000D03*
D11*
X182633794Y-61133794D03*
X184366206Y-62866206D03*
%TD*%
D10*
%TO.C,D95*%
X180000000Y-123500000D03*
D11*
X179133794Y-122633794D03*
X180866206Y-124366206D03*
%TD*%
D10*
%TO.C,D106*%
X183500000Y-76000000D03*
D11*
X182633794Y-75133794D03*
X184366206Y-76866206D03*
%TD*%
D10*
%TO.C,D99*%
X180000000Y-137500000D03*
D11*
X179133794Y-136633794D03*
X180866206Y-138366206D03*
%TD*%
D10*
%TO.C,D46*%
X162500000Y-76000000D03*
D11*
X161633794Y-75133794D03*
X163366206Y-76866206D03*
%TD*%
D10*
%TO.C,D40*%
X159000000Y-90000000D03*
D11*
X158133794Y-89133794D03*
X159866206Y-90866206D03*
%TD*%
D10*
%TO.C,D97*%
X180000000Y-130500000D03*
D11*
X179133794Y-129633794D03*
X180866206Y-131366206D03*
%TD*%
D10*
%TO.C,D99*%
X180000000Y-86500000D03*
D11*
X179133794Y-85633794D03*
X180866206Y-87366206D03*
%TD*%
D10*
%TO.C,D11*%
X152000000Y-58500000D03*
D11*
X151133794Y-57633794D03*
X152866206Y-59366206D03*
%TD*%
D10*
%TO.C,D1*%
X148500000Y-109500000D03*
D11*
X147633794Y-108633794D03*
X149366206Y-110366206D03*
%TD*%
D10*
%TO.C,D10*%
X148500000Y-141000000D03*
D11*
X147633794Y-140133794D03*
X149366206Y-141866206D03*
%TD*%
D10*
%TO.C,D109*%
X183500000Y-137500000D03*
D11*
X182633794Y-136633794D03*
X184366206Y-138366206D03*
%TD*%
D10*
%TO.C,D68*%
X169500000Y-83000000D03*
D11*
X168633794Y-82133794D03*
X170366206Y-83866206D03*
%TD*%
D23*
%TO.C,R16*%
X159000000Y-145447500D03*
X159000000Y-144252500D03*
%TD*%
%TO.C,R10*%
X180000000Y-145447500D03*
X180000000Y-144252500D03*
%TD*%
%TO.C,R11*%
X176500000Y-94447500D03*
X176500000Y-93252500D03*
%TD*%
%TO.C,R17*%
X155500000Y-145447500D03*
X155500000Y-144252500D03*
%TD*%
%TO.C,R14*%
X166000000Y-145447500D03*
X166000000Y-144252500D03*
%TD*%
D24*
%TO.C,R3*%
X141827504Y-119422496D03*
X142672496Y-118577504D03*
%TD*%
D23*
%TO.C,R16*%
X159000000Y-94447500D03*
X159000000Y-93252500D03*
%TD*%
%TO.C,R12*%
X173000000Y-145447500D03*
X173000000Y-144252500D03*
%TD*%
%TO.C,R19*%
X148500000Y-94447500D03*
X148500000Y-93252500D03*
%TD*%
D25*
%TO.C,C3*%
X103767500Y-120150000D03*
X102632500Y-120150000D03*
%TD*%
D26*
%TO.C,R8*%
X124327504Y-70577504D03*
X125172496Y-71422496D03*
%TD*%
D23*
%TO.C,R15*%
X162500000Y-145447500D03*
X162500000Y-144252500D03*
%TD*%
D27*
%TO.C,R1*%
X122172496Y-59077504D03*
X121327504Y-59922496D03*
%TD*%
D23*
%TO.C,R10*%
X180000000Y-94447500D03*
X180000000Y-93252500D03*
%TD*%
D26*
%TO.C,R4*%
X127327504Y-73577504D03*
X128172496Y-74422496D03*
%TD*%
D23*
%TO.C,R13*%
X169500000Y-94447500D03*
X169500000Y-93252500D03*
%TD*%
D28*
%TO.C,R2*%
X136672496Y-53922496D03*
X135827504Y-53077504D03*
%TD*%
D23*
%TO.C,R15*%
X162500000Y-94447500D03*
X162500000Y-93252500D03*
%TD*%
D28*
%TO.C,R2*%
X136672496Y-104922496D03*
X135827504Y-104077504D03*
%TD*%
D24*
%TO.C,R7*%
X138827504Y-71422496D03*
X139672496Y-70577504D03*
%TD*%
D23*
%TO.C,R18*%
X152000000Y-94447500D03*
X152000000Y-93252500D03*
%TD*%
D26*
%TO.C,R4*%
X127327504Y-124577504D03*
X128172496Y-125422496D03*
%TD*%
D23*
%TO.C,R9*%
X183500000Y-145447500D03*
X183500000Y-144252500D03*
%TD*%
D27*
%TO.C,R1*%
X122172496Y-110077504D03*
X121327504Y-110922496D03*
%TD*%
D25*
%TO.C,C2*%
X103767500Y-118650000D03*
X102632500Y-118650000D03*
%TD*%
D29*
%TO.C,C1*%
X102000000Y-123250000D03*
X102000000Y-122115000D03*
%TD*%
%TO.C,C1*%
X102000000Y-72250000D03*
X102000000Y-71115000D03*
%TD*%
D27*
%TO.C,R5*%
X125172496Y-56077504D03*
X124327504Y-56922496D03*
%TD*%
D23*
%TO.C,R12*%
X173000000Y-94447500D03*
X173000000Y-93252500D03*
%TD*%
D28*
%TO.C,R6*%
X139672496Y-107922496D03*
X138827504Y-107077504D03*
%TD*%
D23*
%TO.C,R9*%
X183500000Y-94447500D03*
X183500000Y-93252500D03*
%TD*%
D28*
%TO.C,R6*%
X139672496Y-56922496D03*
X138827504Y-56077504D03*
%TD*%
D23*
%TO.C,R13*%
X169500000Y-145447500D03*
X169500000Y-144252500D03*
%TD*%
D25*
%TO.C,C2*%
X103767500Y-67650000D03*
X102632500Y-67650000D03*
%TD*%
D23*
%TO.C,R19*%
X148500000Y-145447500D03*
X148500000Y-144252500D03*
%TD*%
%TO.C,R11*%
X176500000Y-145447500D03*
X176500000Y-144252500D03*
%TD*%
D26*
%TO.C,R8*%
X124327504Y-121577504D03*
X125172496Y-122422496D03*
%TD*%
D27*
%TO.C,R5*%
X125172496Y-107077504D03*
X124327504Y-107922496D03*
%TD*%
D23*
%TO.C,R18*%
X152000000Y-145447500D03*
X152000000Y-144252500D03*
%TD*%
%TO.C,R14*%
X166000000Y-94447500D03*
X166000000Y-93252500D03*
%TD*%
D25*
%TO.C,C3*%
X103767500Y-69150000D03*
X102632500Y-69150000D03*
%TD*%
D23*
%TO.C,R17*%
X155500000Y-94447500D03*
X155500000Y-93252500D03*
%TD*%
D24*
%TO.C,R7*%
X138827504Y-122422496D03*
X139672496Y-121577504D03*
%TD*%
%TO.C,R3*%
X141827504Y-68422496D03*
X142672496Y-67577504D03*
%TD*%
M02*
