%TF.GenerationSoftware,KiCad,Pcbnew,(6.0.9)*%
%TF.CreationDate,2023-02-03T02:03:44-05:00*%
%TF.ProjectId,businesscard_panel,62757369-6e65-4737-9363-6172645f7061,rev?*%
%TF.SameCoordinates,Original*%
%TF.FileFunction,Profile,NP*%
%FSLAX46Y46*%
G04 Gerber Fmt 4.6, Leading zero omitted, Abs format (unit mm)*
G04 Created by KiCad (PCBNEW (6.0.9)) date 2023-02-03 02:03:44*
%MOMM*%
%LPD*%
G01*
G04 APERTURE LIST*
%TA.AperFunction,Profile*%
%ADD10C,0.050000*%
%TD*%
%TA.AperFunction,Profile*%
%ADD11C,0.120000*%
%TD*%
G04 APERTURE END LIST*
D10*
X187500000Y-50000000D02*
X100000000Y-50000000D01*
X100000000Y-50000000D02*
X100000000Y-150000000D01*
X100000000Y-150000000D02*
X187500000Y-150000000D01*
X187500000Y-150000000D02*
X187500000Y-50000000D01*
X105000001Y-101000001D02*
X125000007Y-101000000D01*
X182500016Y-100999999D02*
G75*
G03*
X182500016Y-99000001I-16J999999D01*
G01*
X139000001Y-98999999D02*
G75*
G03*
X139000001Y-101000001I-1J-1000001D01*
G01*
X125000007Y-99000000D02*
X105000001Y-98999999D01*
X182500016Y-99000001D02*
X139000001Y-98999999D01*
X139000001Y-101000001D02*
X182500016Y-100999999D01*
X125000007Y-101000000D02*
G75*
G03*
X125000007Y-99000000I-7J1000000D01*
G01*
X105000001Y-98999999D02*
G75*
G03*
X105000001Y-101000001I-1J-1000001D01*
G01*
D11*
%TO.C,SW4*%
X137648224Y-119277260D02*
X133474517Y-115103553D01*
X133474517Y-114608579D02*
X137858579Y-110224517D01*
X142525483Y-114891421D02*
X138143198Y-119277260D01*
X138353553Y-110224517D02*
X142525483Y-114396447D01*
X133474517Y-114608579D02*
G75*
G03*
X133474517Y-115103553I247488J-247487D01*
G01*
X142525483Y-114891421D02*
G75*
G03*
X142525483Y-114396447I-247487J247487D01*
G01*
X137648215Y-119277269D02*
G75*
G03*
X138143198Y-119277260I247487J247505D01*
G01*
X138353553Y-110224517D02*
G75*
G03*
X137858579Y-110224517I-247487J-247488D01*
G01*
%TO.C,SW3*%
X136527260Y-58101776D02*
X132353553Y-62275483D01*
X132141421Y-53224517D02*
X136527260Y-57606802D01*
X131858579Y-62275483D02*
X127474517Y-57891421D01*
X127474517Y-57396447D02*
X131646447Y-53224517D01*
X127474517Y-57396447D02*
G75*
G03*
X127474517Y-57891421I247488J-247487D01*
G01*
X136527269Y-58101785D02*
G75*
G03*
X136527260Y-57606802I-247505J247487D01*
G01*
X132141421Y-53224517D02*
G75*
G03*
X131646447Y-53224517I-247487J-247487D01*
G01*
X131858579Y-62275483D02*
G75*
G03*
X132353553Y-62275483I247487J247488D01*
G01*
%TO.C,SW4*%
X137648224Y-68277260D02*
X133474517Y-64103553D01*
X133474517Y-63608579D02*
X137858579Y-59224517D01*
X142525483Y-63891421D02*
X138143198Y-68277260D01*
X138353553Y-59224517D02*
X142525483Y-63396447D01*
X133474517Y-63608579D02*
G75*
G03*
X133474517Y-64103553I247488J-247487D01*
G01*
X142525483Y-63891421D02*
G75*
G03*
X142525483Y-63396447I-247487J247487D01*
G01*
X137648215Y-68277269D02*
G75*
G03*
X138143198Y-68277260I247487J247505D01*
G01*
X138353553Y-59224517D02*
G75*
G03*
X137858579Y-59224517I-247487J-247488D01*
G01*
%TO.C,U1*%
X112500000Y-111550000D02*
X112500000Y-116450000D01*
X105800000Y-111250000D02*
X112200000Y-111250000D01*
X105500000Y-116450000D02*
X105500000Y-111550000D01*
X112200000Y-116750000D02*
X105800000Y-116750000D01*
X105500000Y-116450000D02*
G75*
G03*
X105800000Y-116750000I300000J0D01*
G01*
X105800000Y-111250000D02*
G75*
G03*
X105500000Y-111550000I0J-300000D01*
G01*
X112500000Y-111550000D02*
G75*
G03*
X112200000Y-111250000I-300000J0D01*
G01*
X112200000Y-116750000D02*
G75*
G03*
X112500000Y-116450000I0J300000D01*
G01*
%TO.C,BT1*%
X121954952Y-138295049D02*
G75*
G03*
X121954952Y-138295049I-10250001J0D01*
G01*
%TO.C,SW1*%
X106904163Y-125575736D02*
X104924264Y-123595837D01*
X104500000Y-123595837D02*
X102095837Y-126000000D01*
X102095837Y-126424264D02*
X104075736Y-128404163D01*
X104500000Y-128404163D02*
X106904163Y-126000000D01*
X104075736Y-128404163D02*
G75*
G03*
X104500000Y-128404163I212132J212132D01*
G01*
X102095837Y-126000000D02*
G75*
G03*
X102095837Y-126424264I212132J-212132D01*
G01*
X104924264Y-123595837D02*
G75*
G03*
X104500000Y-123595837I-212132J-212132D01*
G01*
X106904163Y-126000000D02*
G75*
G03*
X106904163Y-125575736I-212132J212132D01*
G01*
%TO.C,U1*%
X112500000Y-60550000D02*
X112500000Y-65450000D01*
X105800000Y-60250000D02*
X112200000Y-60250000D01*
X105500000Y-65450000D02*
X105500000Y-60550000D01*
X112200000Y-65750000D02*
X105800000Y-65750000D01*
X105500000Y-65450000D02*
G75*
G03*
X105800000Y-65750000I300000J0D01*
G01*
X105800000Y-60250000D02*
G75*
G03*
X105500000Y-60550000I0J-300000D01*
G01*
X112500000Y-60550000D02*
G75*
G03*
X112200000Y-60250000I-300000J0D01*
G01*
X112200000Y-65750000D02*
G75*
G03*
X112500000Y-65450000I0J300000D01*
G01*
%TO.C,BT1*%
X121954952Y-87295049D02*
G75*
G03*
X121954952Y-87295049I-10250001J0D01*
G01*
%TO.C,SW5*%
X131858579Y-125275483D02*
X127472740Y-120893198D01*
X127472740Y-120398224D02*
X131646447Y-116224517D01*
X132141421Y-116224517D02*
X136525483Y-120608579D01*
X136525483Y-121103553D02*
X132353553Y-125275483D01*
X127472731Y-120398215D02*
G75*
G03*
X127472740Y-120893198I247505J-247487D01*
G01*
X132141421Y-116224517D02*
G75*
G03*
X131646447Y-116224517I-247487J-247488D01*
G01*
X136525483Y-121103553D02*
G75*
G03*
X136525483Y-120608579I-247488J247487D01*
G01*
X131858579Y-125275483D02*
G75*
G03*
X132353553Y-125275483I247487J247487D01*
G01*
%TO.C,SW3*%
X136527260Y-109101776D02*
X132353553Y-113275483D01*
X132141421Y-104224517D02*
X136527260Y-108606802D01*
X131858579Y-113275483D02*
X127474517Y-108891421D01*
X127474517Y-108396447D02*
X131646447Y-104224517D01*
X127474517Y-108396447D02*
G75*
G03*
X127474517Y-108891421I247488J-247487D01*
G01*
X136527269Y-109101785D02*
G75*
G03*
X136527260Y-108606802I-247505J247487D01*
G01*
X132141421Y-104224517D02*
G75*
G03*
X131646447Y-104224517I-247487J-247487D01*
G01*
X131858579Y-113275483D02*
G75*
G03*
X132353553Y-113275483I247487J247488D01*
G01*
%TO.C,SW7*%
X139300000Y-87650000D02*
X139300000Y-93850000D01*
X133047487Y-87300000D02*
X138950000Y-87300000D01*
X138950000Y-94200000D02*
X133050000Y-94200000D01*
X132700000Y-93850000D02*
X132697487Y-87650000D01*
X138950000Y-94200000D02*
G75*
G03*
X139300000Y-93850000I-1J350001D01*
G01*
X132700000Y-93850000D02*
G75*
G03*
X133050000Y-94200000I350000J0D01*
G01*
X133047487Y-87299987D02*
G75*
G03*
X132697487Y-87650000I13J-350013D01*
G01*
X139300000Y-87650000D02*
G75*
G03*
X138950000Y-87300000I-350001J-1D01*
G01*
%TO.C,SW2*%
X130525483Y-63891421D02*
X126141421Y-68275483D01*
X125646447Y-68275483D02*
X121474517Y-64103553D01*
X121474517Y-63608579D02*
X125856802Y-59222740D01*
X126351776Y-59222740D02*
X130525483Y-63396447D01*
X130525483Y-63891421D02*
G75*
G03*
X130525483Y-63396447I-247488J247487D01*
G01*
X121474517Y-63608579D02*
G75*
G03*
X121474517Y-64103553I247487J-247487D01*
G01*
X125646447Y-68275483D02*
G75*
G03*
X126141421Y-68275483I247487J247488D01*
G01*
X126351785Y-59222731D02*
G75*
G03*
X125856802Y-59222740I-247487J-247505D01*
G01*
%TO.C,SW7*%
X139300000Y-138650000D02*
X139300000Y-144850000D01*
X133047487Y-138300000D02*
X138950000Y-138300000D01*
X138950000Y-145200000D02*
X133050000Y-145200000D01*
X132700000Y-144850000D02*
X132697487Y-138650000D01*
X138950000Y-145200000D02*
G75*
G03*
X139300000Y-144850000I-1J350001D01*
G01*
X132700000Y-144850000D02*
G75*
G03*
X133050000Y-145200000I350000J0D01*
G01*
X133047487Y-138299987D02*
G75*
G03*
X132697487Y-138650000I13J-350013D01*
G01*
X139300000Y-138650000D02*
G75*
G03*
X138950000Y-138300000I-350001J-1D01*
G01*
%TO.C,SW1*%
X106904163Y-74575736D02*
X104924264Y-72595837D01*
X104500000Y-72595837D02*
X102095837Y-75000000D01*
X102095837Y-75424264D02*
X104075736Y-77404163D01*
X104500000Y-77404163D02*
X106904163Y-75000000D01*
X104075736Y-77404163D02*
G75*
G03*
X104500000Y-77404163I212132J212132D01*
G01*
X102095837Y-75000000D02*
G75*
G03*
X102095837Y-75424264I212132J-212132D01*
G01*
X104924264Y-72595837D02*
G75*
G03*
X104500000Y-72595837I-212132J-212132D01*
G01*
X106904163Y-75000000D02*
G75*
G03*
X106904163Y-74575736I-212132J212132D01*
G01*
%TO.C,SW5*%
X131858579Y-74275483D02*
X127472740Y-69893198D01*
X127472740Y-69398224D02*
X131646447Y-65224517D01*
X132141421Y-65224517D02*
X136525483Y-69608579D01*
X136525483Y-70103553D02*
X132353553Y-74275483D01*
X127472731Y-69398215D02*
G75*
G03*
X127472740Y-69893198I247505J-247487D01*
G01*
X132141421Y-65224517D02*
G75*
G03*
X131646447Y-65224517I-247487J-247488D01*
G01*
X136525483Y-70103553D02*
G75*
G03*
X136525483Y-69608579I-247488J247487D01*
G01*
X131858579Y-74275483D02*
G75*
G03*
X132353553Y-74275483I247487J247487D01*
G01*
%TO.C,SW6*%
X137300000Y-129650000D02*
X137300000Y-135850000D01*
X130700000Y-135850000D02*
X130697487Y-129650000D01*
X131047487Y-129300000D02*
X136950000Y-129300000D01*
X136950000Y-136200000D02*
X131050000Y-136200000D01*
X137300000Y-129650000D02*
G75*
G03*
X136950000Y-129300000I-350001J-1D01*
G01*
X136950000Y-136200000D02*
G75*
G03*
X137300000Y-135850000I-1J350001D01*
G01*
X131047487Y-129299987D02*
G75*
G03*
X130697487Y-129650000I13J-350013D01*
G01*
X130700000Y-135850000D02*
G75*
G03*
X131050000Y-136200000I350000J0D01*
G01*
X137300000Y-78650000D02*
X137300000Y-84850000D01*
X130700000Y-84850000D02*
X130697487Y-78650000D01*
X131047487Y-78300000D02*
X136950000Y-78300000D01*
X136950000Y-85200000D02*
X131050000Y-85200000D01*
X137300000Y-78650000D02*
G75*
G03*
X136950000Y-78300000I-350001J-1D01*
G01*
X136950000Y-85200000D02*
G75*
G03*
X137300000Y-84850000I-1J350001D01*
G01*
X131047487Y-78299987D02*
G75*
G03*
X130697487Y-78650000I13J-350013D01*
G01*
X130700000Y-84850000D02*
G75*
G03*
X131050000Y-85200000I350000J0D01*
G01*
%TO.C,SW2*%
X130525483Y-114891421D02*
X126141421Y-119275483D01*
X125646447Y-119275483D02*
X121474517Y-115103553D01*
X121474517Y-114608579D02*
X125856802Y-110222740D01*
X126351776Y-110222740D02*
X130525483Y-114396447D01*
X130525483Y-114891421D02*
G75*
G03*
X130525483Y-114396447I-247488J247487D01*
G01*
X121474517Y-114608579D02*
G75*
G03*
X121474517Y-115103553I247487J-247487D01*
G01*
X125646447Y-119275483D02*
G75*
G03*
X126141421Y-119275483I247487J247488D01*
G01*
X126351785Y-110222731D02*
G75*
G03*
X125856802Y-110222740I-247487J-247505D01*
G01*
%TD*%
M02*
