%TF.GenerationSoftware,KiCad,Pcbnew,(6.0.9)*%
%TF.CreationDate,2023-02-03T02:03:44-05:00*%
%TF.ProjectId,businesscard_panel,62757369-6e65-4737-9363-6172645f7061,rev?*%
%TF.SameCoordinates,Original*%
%TF.FileFunction,Soldermask,Top*%
%TF.FilePolarity,Negative*%
%FSLAX46Y46*%
G04 Gerber Fmt 4.6, Leading zero omitted, Abs format (unit mm)*
G04 Created by KiCad (PCBNEW (6.0.9)) date 2023-02-03 02:03:44*
%MOMM*%
%LPD*%
G01*
G04 APERTURE LIST*
G04 Aperture macros list*
%AMRotRect*
0 Rectangle, with rotation*
0 The origin of the aperture is its center*
0 $1 length*
0 $2 width*
0 $3 Rotation angle, in degrees counterclockwise*
0 Add horizontal line*
21,1,$1,$2,0,0,$3*%
G04 Aperture macros list end*
%ADD10C,1.500000*%
%ADD11C,0.600000*%
%ADD12O,0.800000X1.500000*%
%ADD13RotRect,3.000000X6.000000X45.000000*%
G04 APERTURE END LIST*
D10*
%TO.C,D61*%
X169500000Y-58500000D03*
%TD*%
%TO.C,D79*%
X173000000Y-137500000D03*
%TD*%
%TO.C,D101*%
X183500000Y-58500000D03*
%TD*%
%TO.C,D97*%
X180000000Y-79500000D03*
%TD*%
%TO.C,D51*%
X166000000Y-58500000D03*
%TD*%
%TO.C,D25*%
X155500000Y-123500000D03*
%TD*%
%TO.C,D78*%
X173000000Y-83000000D03*
%TD*%
%TO.C,D56*%
X166000000Y-127000000D03*
%TD*%
%TO.C,D32*%
X159000000Y-113000000D03*
%TD*%
%TO.C,D26*%
X155500000Y-127000000D03*
%TD*%
%TO.C,D94*%
X180000000Y-120000000D03*
%TD*%
%TO.C,D76*%
X173000000Y-127000000D03*
%TD*%
D11*
%TO.C,J1*%
X116270000Y-103155000D03*
X117540000Y-103155000D03*
X113730000Y-103155000D03*
X112460000Y-103155000D03*
X115000000Y-103155000D03*
D12*
X113095000Y-102000000D03*
X114365000Y-102000000D03*
X115635000Y-102000000D03*
X116905000Y-102000000D03*
%TD*%
D10*
%TO.C,D50*%
X162500000Y-90000000D03*
%TD*%
%TO.C,D96*%
X180000000Y-76000000D03*
%TD*%
%TO.C,D53*%
X166000000Y-116500000D03*
%TD*%
%TO.C,D80*%
X173000000Y-141000000D03*
%TD*%
%TO.C,D81*%
X176500000Y-109500000D03*
%TD*%
%TO.C,D9*%
X148500000Y-86500000D03*
%TD*%
%TO.C,D20*%
X152000000Y-90000000D03*
%TD*%
%TO.C,D45*%
X162500000Y-72500000D03*
%TD*%
%TO.C,D24*%
X155500000Y-120000000D03*
%TD*%
%TO.C,D100*%
X180000000Y-141000000D03*
%TD*%
%TO.C,D41*%
X162500000Y-58500000D03*
%TD*%
%TO.C,D85*%
X176500000Y-72500000D03*
%TD*%
%TO.C,D42*%
X162500000Y-62000000D03*
%TD*%
%TO.C,D32*%
X159000000Y-62000000D03*
%TD*%
%TO.C,D107*%
X183500000Y-130500000D03*
%TD*%
%TO.C,D68*%
X169500000Y-134000000D03*
%TD*%
%TO.C,D104*%
X183500000Y-120000000D03*
%TD*%
%TO.C,D75*%
X173000000Y-72500000D03*
%TD*%
%TO.C,D58*%
X166000000Y-83000000D03*
%TD*%
%TO.C,D71*%
X173000000Y-58500000D03*
%TD*%
%TO.C,D15*%
X152000000Y-72500000D03*
%TD*%
%TO.C,D64*%
X169500000Y-69000000D03*
%TD*%
%TO.C,D49*%
X162500000Y-137500000D03*
%TD*%
%TO.C,D86*%
X176500000Y-76000000D03*
%TD*%
%TO.C,D59*%
X166000000Y-86500000D03*
%TD*%
%TO.C,D57*%
X166000000Y-130500000D03*
%TD*%
%TO.C,D82*%
X176500000Y-62000000D03*
%TD*%
%TO.C,D48*%
X162500000Y-83000000D03*
%TD*%
%TO.C,D23*%
X155500000Y-65500000D03*
%TD*%
%TO.C,D73*%
X173000000Y-116500000D03*
%TD*%
%TO.C,D34*%
X159000000Y-120000000D03*
%TD*%
%TO.C,D103*%
X183500000Y-116500000D03*
%TD*%
%TO.C,D69*%
X169500000Y-137500000D03*
%TD*%
%TO.C,D51*%
X166000000Y-109500000D03*
%TD*%
%TO.C,D22*%
X155500000Y-113000000D03*
%TD*%
%TO.C,D8*%
X148500000Y-83000000D03*
%TD*%
%TO.C,D29*%
X155500000Y-86500000D03*
%TD*%
%TO.C,D106*%
X183500000Y-127000000D03*
%TD*%
%TO.C,D49*%
X162500000Y-86500000D03*
%TD*%
%TO.C,D55*%
X166000000Y-123500000D03*
%TD*%
%TO.C,D92*%
X180000000Y-62000000D03*
%TD*%
%TO.C,D5*%
X148500000Y-123500000D03*
%TD*%
%TO.C,D18*%
X152000000Y-134000000D03*
%TD*%
%TO.C,D105*%
X183500000Y-123500000D03*
%TD*%
%TO.C,D37*%
X159000000Y-79500000D03*
%TD*%
%TO.C,D53*%
X166000000Y-65500000D03*
%TD*%
%TO.C,D11*%
X152000000Y-109500000D03*
%TD*%
%TO.C,D107*%
X183500000Y-79500000D03*
%TD*%
%TO.C,D35*%
X159000000Y-123500000D03*
%TD*%
%TO.C,D94*%
X180000000Y-69000000D03*
%TD*%
%TO.C,D61*%
X169500000Y-109500000D03*
%TD*%
%TO.C,D72*%
X173000000Y-113000000D03*
%TD*%
%TO.C,D73*%
X173000000Y-65500000D03*
%TD*%
%TO.C,D35*%
X159000000Y-72500000D03*
%TD*%
%TO.C,D34*%
X159000000Y-69000000D03*
%TD*%
%TO.C,D52*%
X166000000Y-113000000D03*
%TD*%
%TO.C,D27*%
X155500000Y-79500000D03*
%TD*%
%TO.C,D24*%
X155500000Y-69000000D03*
%TD*%
%TO.C,D21*%
X155500000Y-58500000D03*
%TD*%
%TO.C,D5*%
X148500000Y-72500000D03*
%TD*%
%TO.C,D46*%
X162500000Y-127000000D03*
%TD*%
%TO.C,D22*%
X155500000Y-62000000D03*
%TD*%
%TO.C,D50*%
X162500000Y-141000000D03*
%TD*%
%TO.C,D55*%
X166000000Y-72500000D03*
%TD*%
%TO.C,D3*%
X148500000Y-65500000D03*
%TD*%
%TO.C,D1*%
X148500000Y-58500000D03*
%TD*%
%TO.C,D16*%
X152000000Y-127000000D03*
%TD*%
%TO.C,D9*%
X148500000Y-137500000D03*
%TD*%
%TO.C,D66*%
X169500000Y-127000000D03*
%TD*%
%TO.C,D105*%
X183500000Y-72500000D03*
%TD*%
%TO.C,D91*%
X180000000Y-58500000D03*
%TD*%
%TO.C,D103*%
X183500000Y-65500000D03*
%TD*%
%TO.C,D93*%
X180000000Y-65500000D03*
%TD*%
%TO.C,D79*%
X173000000Y-86500000D03*
%TD*%
D13*
%TO.C,BT1*%
X103750000Y-146250000D03*
X119659902Y-130340098D03*
%TD*%
D10*
%TO.C,D15*%
X152000000Y-123500000D03*
%TD*%
%TO.C,D17*%
X152000000Y-130500000D03*
%TD*%
%TO.C,D69*%
X169500000Y-86500000D03*
%TD*%
%TO.C,D98*%
X180000000Y-134000000D03*
%TD*%
%TO.C,D54*%
X166000000Y-120000000D03*
%TD*%
%TO.C,D74*%
X173000000Y-120000000D03*
%TD*%
%TO.C,D62*%
X169500000Y-62000000D03*
%TD*%
%TO.C,D82*%
X176500000Y-113000000D03*
%TD*%
%TO.C,D43*%
X162500000Y-116500000D03*
%TD*%
%TO.C,D102*%
X183500000Y-113000000D03*
%TD*%
%TO.C,D86*%
X176500000Y-127000000D03*
%TD*%
%TO.C,D98*%
X180000000Y-83000000D03*
%TD*%
%TO.C,D63*%
X169500000Y-65500000D03*
%TD*%
%TO.C,D2*%
X148500000Y-62000000D03*
%TD*%
%TO.C,D41*%
X162500000Y-109500000D03*
%TD*%
%TO.C,D6*%
X148500000Y-76000000D03*
%TD*%
%TO.C,D29*%
X155500000Y-137500000D03*
%TD*%
%TO.C,D37*%
X159000000Y-130500000D03*
%TD*%
%TO.C,D56*%
X166000000Y-76000000D03*
%TD*%
%TO.C,D47*%
X162500000Y-79500000D03*
%TD*%
%TO.C,D72*%
X173000000Y-62000000D03*
%TD*%
%TO.C,D85*%
X176500000Y-123500000D03*
%TD*%
%TO.C,D110*%
X183500000Y-90000000D03*
%TD*%
%TO.C,D67*%
X169500000Y-130500000D03*
%TD*%
%TO.C,D64*%
X169500000Y-120000000D03*
%TD*%
%TO.C,D23*%
X155500000Y-116500000D03*
%TD*%
D13*
%TO.C,BT1*%
X103750000Y-95250000D03*
X119659902Y-79340098D03*
%TD*%
D10*
%TO.C,D58*%
X166000000Y-134000000D03*
%TD*%
%TO.C,D84*%
X176500000Y-120000000D03*
%TD*%
%TO.C,D4*%
X148500000Y-120000000D03*
%TD*%
%TO.C,D19*%
X152000000Y-137500000D03*
%TD*%
%TO.C,D40*%
X159000000Y-141000000D03*
%TD*%
%TO.C,D67*%
X169500000Y-79500000D03*
%TD*%
%TO.C,D30*%
X155500000Y-141000000D03*
%TD*%
%TO.C,D44*%
X162500000Y-120000000D03*
%TD*%
%TO.C,D70*%
X169500000Y-141000000D03*
%TD*%
%TO.C,D108*%
X183500000Y-134000000D03*
%TD*%
%TO.C,D31*%
X159000000Y-109500000D03*
%TD*%
%TO.C,D62*%
X169500000Y-113000000D03*
%TD*%
%TO.C,D26*%
X155500000Y-76000000D03*
%TD*%
%TO.C,D28*%
X155500000Y-134000000D03*
%TD*%
%TO.C,D48*%
X162500000Y-134000000D03*
%TD*%
%TO.C,D76*%
X173000000Y-76000000D03*
%TD*%
%TO.C,D83*%
X176500000Y-116500000D03*
%TD*%
%TO.C,D60*%
X166000000Y-141000000D03*
%TD*%
%TO.C,D59*%
X166000000Y-137500000D03*
%TD*%
%TO.C,D87*%
X176500000Y-79500000D03*
%TD*%
%TO.C,D70*%
X169500000Y-90000000D03*
%TD*%
%TO.C,D89*%
X176500000Y-86500000D03*
%TD*%
%TO.C,D3*%
X148500000Y-116500000D03*
%TD*%
%TO.C,D10*%
X148500000Y-90000000D03*
%TD*%
%TO.C,D47*%
X162500000Y-130500000D03*
%TD*%
%TO.C,D18*%
X152000000Y-83000000D03*
%TD*%
%TO.C,D42*%
X162500000Y-113000000D03*
%TD*%
%TO.C,D71*%
X173000000Y-109500000D03*
%TD*%
%TO.C,D33*%
X159000000Y-116500000D03*
%TD*%
%TO.C,D20*%
X152000000Y-141000000D03*
%TD*%
%TO.C,D45*%
X162500000Y-123500000D03*
%TD*%
%TO.C,D92*%
X180000000Y-113000000D03*
%TD*%
%TO.C,D87*%
X176500000Y-130500000D03*
%TD*%
%TO.C,D38*%
X159000000Y-83000000D03*
%TD*%
%TO.C,D104*%
X183500000Y-69000000D03*
%TD*%
%TO.C,D54*%
X166000000Y-69000000D03*
%TD*%
%TO.C,D14*%
X152000000Y-69000000D03*
%TD*%
%TO.C,D33*%
X159000000Y-65500000D03*
%TD*%
%TO.C,D90*%
X176500000Y-90000000D03*
%TD*%
%TO.C,D110*%
X183500000Y-141000000D03*
%TD*%
%TO.C,D25*%
X155500000Y-72500000D03*
%TD*%
%TO.C,D7*%
X148500000Y-79500000D03*
%TD*%
%TO.C,D89*%
X176500000Y-137500000D03*
%TD*%
%TO.C,D65*%
X169500000Y-72500000D03*
%TD*%
%TO.C,D78*%
X173000000Y-134000000D03*
%TD*%
%TO.C,D80*%
X173000000Y-90000000D03*
%TD*%
%TO.C,D100*%
X180000000Y-90000000D03*
%TD*%
%TO.C,D88*%
X176500000Y-134000000D03*
%TD*%
%TO.C,D93*%
X180000000Y-116500000D03*
%TD*%
%TO.C,D90*%
X176500000Y-141000000D03*
%TD*%
%TO.C,D31*%
X159000000Y-58500000D03*
%TD*%
%TO.C,D77*%
X173000000Y-79500000D03*
%TD*%
%TO.C,D21*%
X155500000Y-109500000D03*
%TD*%
%TO.C,D8*%
X148500000Y-134000000D03*
%TD*%
%TO.C,D13*%
X152000000Y-65500000D03*
%TD*%
%TO.C,D77*%
X173000000Y-130500000D03*
%TD*%
%TO.C,D13*%
X152000000Y-116500000D03*
%TD*%
%TO.C,D63*%
X169500000Y-116500000D03*
%TD*%
D11*
%TO.C,J1*%
X116270000Y-52155000D03*
X117540000Y-52155000D03*
X113730000Y-52155000D03*
X112460000Y-52155000D03*
X115000000Y-52155000D03*
D12*
X113095000Y-51000000D03*
X114365000Y-51000000D03*
X115635000Y-51000000D03*
X116905000Y-51000000D03*
%TD*%
D10*
%TO.C,D109*%
X183500000Y-86500000D03*
%TD*%
%TO.C,D39*%
X159000000Y-137500000D03*
%TD*%
%TO.C,D28*%
X155500000Y-83000000D03*
%TD*%
%TO.C,D2*%
X148500000Y-113000000D03*
%TD*%
%TO.C,D95*%
X180000000Y-72500000D03*
%TD*%
%TO.C,D65*%
X169500000Y-123500000D03*
%TD*%
%TO.C,D74*%
X173000000Y-69000000D03*
%TD*%
%TO.C,D30*%
X155500000Y-90000000D03*
%TD*%
%TO.C,D36*%
X159000000Y-127000000D03*
%TD*%
%TO.C,D75*%
X173000000Y-123500000D03*
%TD*%
%TO.C,D39*%
X159000000Y-86500000D03*
%TD*%
%TO.C,D17*%
X152000000Y-79500000D03*
%TD*%
%TO.C,D14*%
X152000000Y-120000000D03*
%TD*%
%TO.C,D108*%
X183500000Y-83000000D03*
%TD*%
%TO.C,D66*%
X169500000Y-76000000D03*
%TD*%
%TO.C,D38*%
X159000000Y-134000000D03*
%TD*%
%TO.C,D12*%
X152000000Y-62000000D03*
%TD*%
%TO.C,D81*%
X176500000Y-58500000D03*
%TD*%
%TO.C,D27*%
X155500000Y-130500000D03*
%TD*%
%TO.C,D36*%
X159000000Y-76000000D03*
%TD*%
%TO.C,D6*%
X148500000Y-127000000D03*
%TD*%
%TO.C,D19*%
X152000000Y-86500000D03*
%TD*%
%TO.C,D44*%
X162500000Y-69000000D03*
%TD*%
%TO.C,D91*%
X180000000Y-109500000D03*
%TD*%
%TO.C,D12*%
X152000000Y-113000000D03*
%TD*%
%TO.C,D60*%
X166000000Y-90000000D03*
%TD*%
%TO.C,D84*%
X176500000Y-69000000D03*
%TD*%
%TO.C,D83*%
X176500000Y-65500000D03*
%TD*%
%TO.C,D52*%
X166000000Y-62000000D03*
%TD*%
%TO.C,D101*%
X183500000Y-109500000D03*
%TD*%
%TO.C,D7*%
X148500000Y-130500000D03*
%TD*%
%TO.C,D43*%
X162500000Y-65500000D03*
%TD*%
%TO.C,D57*%
X166000000Y-79500000D03*
%TD*%
%TO.C,D88*%
X176500000Y-83000000D03*
%TD*%
%TO.C,D4*%
X148500000Y-69000000D03*
%TD*%
%TO.C,D16*%
X152000000Y-76000000D03*
%TD*%
%TO.C,D96*%
X180000000Y-127000000D03*
%TD*%
%TO.C,D102*%
X183500000Y-62000000D03*
%TD*%
%TO.C,D95*%
X180000000Y-123500000D03*
%TD*%
%TO.C,D106*%
X183500000Y-76000000D03*
%TD*%
%TO.C,D99*%
X180000000Y-137500000D03*
%TD*%
%TO.C,D46*%
X162500000Y-76000000D03*
%TD*%
%TO.C,D40*%
X159000000Y-90000000D03*
%TD*%
%TO.C,D97*%
X180000000Y-130500000D03*
%TD*%
%TO.C,D99*%
X180000000Y-86500000D03*
%TD*%
%TO.C,D11*%
X152000000Y-58500000D03*
%TD*%
%TO.C,D1*%
X148500000Y-109500000D03*
%TD*%
%TO.C,D10*%
X148500000Y-141000000D03*
%TD*%
%TO.C,D109*%
X183500000Y-137500000D03*
%TD*%
%TO.C,D68*%
X169500000Y-83000000D03*
%TD*%
M02*
