%TF.GenerationSoftware,KiCad,Pcbnew,(6.0.9)*%
%TF.CreationDate,2023-02-03T02:03:44-05:00*%
%TF.ProjectId,businesscard_panel,62757369-6e65-4737-9363-6172645f7061,rev?*%
%TF.SameCoordinates,Original*%
%TF.FileFunction,Legend,Bot*%
%TF.FilePolarity,Positive*%
%FSLAX46Y46*%
G04 Gerber Fmt 4.6, Leading zero omitted, Abs format (unit mm)*
G04 Created by KiCad (PCBNEW (6.0.9)) date 2023-02-03 02:03:44*
%MOMM*%
%LPD*%
G01*
G04 APERTURE LIST*
%ADD10C,0.150000*%
%ADD11C,0.120000*%
G04 APERTURE END LIST*
D10*
X127380952Y-99452380D02*
X127380952Y-100166666D01*
X127333333Y-100309523D01*
X127238095Y-100404761D01*
X127095238Y-100452380D01*
X127000000Y-100452380D01*
X128333333Y-100452380D02*
X127857142Y-100452380D01*
X127857142Y-99452380D01*
X129238095Y-100357142D02*
X129190476Y-100404761D01*
X129047619Y-100452380D01*
X128952380Y-100452380D01*
X128809523Y-100404761D01*
X128714285Y-100309523D01*
X128666666Y-100214285D01*
X128619047Y-100023809D01*
X128619047Y-99880952D01*
X128666666Y-99690476D01*
X128714285Y-99595238D01*
X128809523Y-99500000D01*
X128952380Y-99452380D01*
X129047619Y-99452380D01*
X129190476Y-99500000D01*
X129238095Y-99547619D01*
X129952380Y-99452380D02*
X129952380Y-100166666D01*
X129904761Y-100309523D01*
X129809523Y-100404761D01*
X129666666Y-100452380D01*
X129571428Y-100452380D01*
X130904761Y-100452380D02*
X130428571Y-100452380D01*
X130428571Y-99452380D01*
X131809523Y-100357142D02*
X131761904Y-100404761D01*
X131619047Y-100452380D01*
X131523809Y-100452380D01*
X131380952Y-100404761D01*
X131285714Y-100309523D01*
X131238095Y-100214285D01*
X131190476Y-100023809D01*
X131190476Y-99880952D01*
X131238095Y-99690476D01*
X131285714Y-99595238D01*
X131380952Y-99500000D01*
X131523809Y-99452380D01*
X131619047Y-99452380D01*
X131761904Y-99500000D01*
X131809523Y-99547619D01*
X132523809Y-99452380D02*
X132523809Y-100166666D01*
X132476190Y-100309523D01*
X132380952Y-100404761D01*
X132238095Y-100452380D01*
X132142857Y-100452380D01*
X133476190Y-100452380D02*
X133000000Y-100452380D01*
X133000000Y-99452380D01*
X134380952Y-100357142D02*
X134333333Y-100404761D01*
X134190476Y-100452380D01*
X134095238Y-100452380D01*
X133952380Y-100404761D01*
X133857142Y-100309523D01*
X133809523Y-100214285D01*
X133761904Y-100023809D01*
X133761904Y-99880952D01*
X133809523Y-99690476D01*
X133857142Y-99595238D01*
X133952380Y-99500000D01*
X134095238Y-99452380D01*
X134190476Y-99452380D01*
X134333333Y-99500000D01*
X134380952Y-99547619D01*
X135095238Y-99452380D02*
X135095238Y-100166666D01*
X135047619Y-100309523D01*
X134952380Y-100404761D01*
X134809523Y-100452380D01*
X134714285Y-100452380D01*
X136047619Y-100452380D02*
X135571428Y-100452380D01*
X135571428Y-99452380D01*
X136952380Y-100357142D02*
X136904761Y-100404761D01*
X136761904Y-100452380D01*
X136666666Y-100452380D01*
X136523809Y-100404761D01*
X136428571Y-100309523D01*
X136380952Y-100214285D01*
X136333333Y-100023809D01*
X136333333Y-99880952D01*
X136380952Y-99690476D01*
X136428571Y-99595238D01*
X136523809Y-99500000D01*
X136666666Y-99452380D01*
X136761904Y-99452380D01*
X136904761Y-99500000D01*
X136952380Y-99547619D01*
D11*
%TO.C,D61*%
X168464089Y-56424642D02*
X167424642Y-57464089D01*
X170606622Y-58567175D02*
X168464089Y-56424642D01*
X167424642Y-57464089D02*
X169567175Y-59606622D01*
%TO.C,D79*%
X171964089Y-135424642D02*
X170924642Y-136464089D01*
X174106622Y-137567175D02*
X171964089Y-135424642D01*
X170924642Y-136464089D02*
X173067175Y-138606622D01*
%TO.C,D101*%
X182464089Y-56424642D02*
X181424642Y-57464089D01*
X181424642Y-57464089D02*
X183567175Y-59606622D01*
X184606622Y-58567175D02*
X182464089Y-56424642D01*
%TO.C,D97*%
X181106622Y-79567175D02*
X178964089Y-77424642D01*
X177924642Y-78464089D02*
X180067175Y-80606622D01*
X178964089Y-77424642D02*
X177924642Y-78464089D01*
%TO.C,D51*%
X167106622Y-58567175D02*
X164964089Y-56424642D01*
X163924642Y-57464089D02*
X166067175Y-59606622D01*
X164964089Y-56424642D02*
X163924642Y-57464089D01*
%TO.C,D25*%
X153424642Y-122464089D02*
X155567175Y-124606622D01*
X154464089Y-121424642D02*
X153424642Y-122464089D01*
X156606622Y-123567175D02*
X154464089Y-121424642D01*
%TO.C,D78*%
X171964089Y-80924642D02*
X170924642Y-81964089D01*
X174106622Y-83067175D02*
X171964089Y-80924642D01*
X170924642Y-81964089D02*
X173067175Y-84106622D01*
%TO.C,D56*%
X164964089Y-124924642D02*
X163924642Y-125964089D01*
X163924642Y-125964089D02*
X166067175Y-128106622D01*
X167106622Y-127067175D02*
X164964089Y-124924642D01*
%TO.C,D32*%
X160106622Y-113067175D02*
X157964089Y-110924642D01*
X156924642Y-111964089D02*
X159067175Y-114106622D01*
X157964089Y-110924642D02*
X156924642Y-111964089D01*
%TO.C,D26*%
X154464089Y-124924642D02*
X153424642Y-125964089D01*
X153424642Y-125964089D02*
X155567175Y-128106622D01*
X156606622Y-127067175D02*
X154464089Y-124924642D01*
%TO.C,D94*%
X181106622Y-120067175D02*
X178964089Y-117924642D01*
X177924642Y-118964089D02*
X180067175Y-121106622D01*
X178964089Y-117924642D02*
X177924642Y-118964089D01*
%TO.C,D76*%
X170924642Y-125964089D02*
X173067175Y-128106622D01*
X174106622Y-127067175D02*
X171964089Y-124924642D01*
X171964089Y-124924642D02*
X170924642Y-125964089D01*
%TO.C,D50*%
X161464089Y-87924642D02*
X160424642Y-88964089D01*
X160424642Y-88964089D02*
X162567175Y-91106622D01*
X163606622Y-90067175D02*
X161464089Y-87924642D01*
%TO.C,D96*%
X178964089Y-73924642D02*
X177924642Y-74964089D01*
X181106622Y-76067175D02*
X178964089Y-73924642D01*
X177924642Y-74964089D02*
X180067175Y-77106622D01*
%TO.C,D53*%
X163924642Y-115464089D02*
X166067175Y-117606622D01*
X164964089Y-114424642D02*
X163924642Y-115464089D01*
X167106622Y-116567175D02*
X164964089Y-114424642D01*
%TO.C,D80*%
X174106622Y-141067175D02*
X171964089Y-138924642D01*
X170924642Y-139964089D02*
X173067175Y-142106622D01*
X171964089Y-138924642D02*
X170924642Y-139964089D01*
%TO.C,D81*%
X175464089Y-107424642D02*
X174424642Y-108464089D01*
X177606622Y-109567175D02*
X175464089Y-107424642D01*
X174424642Y-108464089D02*
X176567175Y-110606622D01*
%TO.C,D9*%
X146424642Y-85464089D02*
X148567175Y-87606622D01*
X149606622Y-86567175D02*
X147464089Y-84424642D01*
X147464089Y-84424642D02*
X146424642Y-85464089D01*
%TO.C,D20*%
X149924642Y-88964089D02*
X152067175Y-91106622D01*
X150964089Y-87924642D02*
X149924642Y-88964089D01*
X153106622Y-90067175D02*
X150964089Y-87924642D01*
%TO.C,D45*%
X163606622Y-72567175D02*
X161464089Y-70424642D01*
X161464089Y-70424642D02*
X160424642Y-71464089D01*
X160424642Y-71464089D02*
X162567175Y-73606622D01*
%TO.C,D24*%
X153424642Y-118964089D02*
X155567175Y-121106622D01*
X156606622Y-120067175D02*
X154464089Y-117924642D01*
X154464089Y-117924642D02*
X153424642Y-118964089D01*
%TO.C,D100*%
X177924642Y-139964089D02*
X180067175Y-142106622D01*
X181106622Y-141067175D02*
X178964089Y-138924642D01*
X178964089Y-138924642D02*
X177924642Y-139964089D01*
%TO.C,D41*%
X163606622Y-58567175D02*
X161464089Y-56424642D01*
X161464089Y-56424642D02*
X160424642Y-57464089D01*
X160424642Y-57464089D02*
X162567175Y-59606622D01*
%TO.C,D85*%
X175464089Y-70424642D02*
X174424642Y-71464089D01*
X174424642Y-71464089D02*
X176567175Y-73606622D01*
X177606622Y-72567175D02*
X175464089Y-70424642D01*
%TO.C,D42*%
X163606622Y-62067175D02*
X161464089Y-59924642D01*
X161464089Y-59924642D02*
X160424642Y-60964089D01*
X160424642Y-60964089D02*
X162567175Y-63106622D01*
%TO.C,D32*%
X160106622Y-62067175D02*
X157964089Y-59924642D01*
X156924642Y-60964089D02*
X159067175Y-63106622D01*
X157964089Y-59924642D02*
X156924642Y-60964089D01*
%TO.C,D107*%
X181424642Y-129464089D02*
X183567175Y-131606622D01*
X184606622Y-130567175D02*
X182464089Y-128424642D01*
X182464089Y-128424642D02*
X181424642Y-129464089D01*
%TO.C,D68*%
X170606622Y-134067175D02*
X168464089Y-131924642D01*
X167424642Y-132964089D02*
X169567175Y-135106622D01*
X168464089Y-131924642D02*
X167424642Y-132964089D01*
%TO.C,D104*%
X181424642Y-118964089D02*
X183567175Y-121106622D01*
X182464089Y-117924642D02*
X181424642Y-118964089D01*
X184606622Y-120067175D02*
X182464089Y-117924642D01*
%TO.C,D75*%
X171964089Y-70424642D02*
X170924642Y-71464089D01*
X174106622Y-72567175D02*
X171964089Y-70424642D01*
X170924642Y-71464089D02*
X173067175Y-73606622D01*
%TO.C,D58*%
X164964089Y-80924642D02*
X163924642Y-81964089D01*
X167106622Y-83067175D02*
X164964089Y-80924642D01*
X163924642Y-81964089D02*
X166067175Y-84106622D01*
%TO.C,D71*%
X170924642Y-57464089D02*
X173067175Y-59606622D01*
X174106622Y-58567175D02*
X171964089Y-56424642D01*
X171964089Y-56424642D02*
X170924642Y-57464089D01*
%TO.C,D15*%
X149924642Y-71464089D02*
X152067175Y-73606622D01*
X150964089Y-70424642D02*
X149924642Y-71464089D01*
X153106622Y-72567175D02*
X150964089Y-70424642D01*
%TO.C,D64*%
X168464089Y-66924642D02*
X167424642Y-67964089D01*
X167424642Y-67964089D02*
X169567175Y-70106622D01*
X170606622Y-69067175D02*
X168464089Y-66924642D01*
%TO.C,D49*%
X163606622Y-137567175D02*
X161464089Y-135424642D01*
X160424642Y-136464089D02*
X162567175Y-138606622D01*
X161464089Y-135424642D02*
X160424642Y-136464089D01*
%TO.C,D86*%
X174424642Y-74964089D02*
X176567175Y-77106622D01*
X175464089Y-73924642D02*
X174424642Y-74964089D01*
X177606622Y-76067175D02*
X175464089Y-73924642D01*
%TO.C,D59*%
X164964089Y-84424642D02*
X163924642Y-85464089D01*
X167106622Y-86567175D02*
X164964089Y-84424642D01*
X163924642Y-85464089D02*
X166067175Y-87606622D01*
%TO.C,D57*%
X164964089Y-128424642D02*
X163924642Y-129464089D01*
X167106622Y-130567175D02*
X164964089Y-128424642D01*
X163924642Y-129464089D02*
X166067175Y-131606622D01*
%TO.C,D82*%
X177606622Y-62067175D02*
X175464089Y-59924642D01*
X175464089Y-59924642D02*
X174424642Y-60964089D01*
X174424642Y-60964089D02*
X176567175Y-63106622D01*
%TO.C,D48*%
X160424642Y-81964089D02*
X162567175Y-84106622D01*
X161464089Y-80924642D02*
X160424642Y-81964089D01*
X163606622Y-83067175D02*
X161464089Y-80924642D01*
%TO.C,D23*%
X154464089Y-63424642D02*
X153424642Y-64464089D01*
X153424642Y-64464089D02*
X155567175Y-66606622D01*
X156606622Y-65567175D02*
X154464089Y-63424642D01*
%TO.C,D73*%
X174106622Y-116567175D02*
X171964089Y-114424642D01*
X171964089Y-114424642D02*
X170924642Y-115464089D01*
X170924642Y-115464089D02*
X173067175Y-117606622D01*
%TO.C,D34*%
X160106622Y-120067175D02*
X157964089Y-117924642D01*
X156924642Y-118964089D02*
X159067175Y-121106622D01*
X157964089Y-117924642D02*
X156924642Y-118964089D01*
%TO.C,D103*%
X182464089Y-114424642D02*
X181424642Y-115464089D01*
X181424642Y-115464089D02*
X183567175Y-117606622D01*
X184606622Y-116567175D02*
X182464089Y-114424642D01*
%TO.C,D69*%
X167424642Y-136464089D02*
X169567175Y-138606622D01*
X170606622Y-137567175D02*
X168464089Y-135424642D01*
X168464089Y-135424642D02*
X167424642Y-136464089D01*
%TO.C,D51*%
X167106622Y-109567175D02*
X164964089Y-107424642D01*
X163924642Y-108464089D02*
X166067175Y-110606622D01*
X164964089Y-107424642D02*
X163924642Y-108464089D01*
%TO.C,D22*%
X153424642Y-111964089D02*
X155567175Y-114106622D01*
X154464089Y-110924642D02*
X153424642Y-111964089D01*
X156606622Y-113067175D02*
X154464089Y-110924642D01*
%TO.C,D8*%
X146424642Y-81964089D02*
X148567175Y-84106622D01*
X147464089Y-80924642D02*
X146424642Y-81964089D01*
X149606622Y-83067175D02*
X147464089Y-80924642D01*
%TO.C,D29*%
X154464089Y-84424642D02*
X153424642Y-85464089D01*
X156606622Y-86567175D02*
X154464089Y-84424642D01*
X153424642Y-85464089D02*
X155567175Y-87606622D01*
%TO.C,D106*%
X182464089Y-124924642D02*
X181424642Y-125964089D01*
X184606622Y-127067175D02*
X182464089Y-124924642D01*
X181424642Y-125964089D02*
X183567175Y-128106622D01*
%TO.C,D49*%
X163606622Y-86567175D02*
X161464089Y-84424642D01*
X160424642Y-85464089D02*
X162567175Y-87606622D01*
X161464089Y-84424642D02*
X160424642Y-85464089D01*
%TO.C,D55*%
X167106622Y-123567175D02*
X164964089Y-121424642D01*
X164964089Y-121424642D02*
X163924642Y-122464089D01*
X163924642Y-122464089D02*
X166067175Y-124606622D01*
%TO.C,D92*%
X177924642Y-60964089D02*
X180067175Y-63106622D01*
X178964089Y-59924642D02*
X177924642Y-60964089D01*
X181106622Y-62067175D02*
X178964089Y-59924642D01*
%TO.C,D5*%
X146424642Y-122464089D02*
X148567175Y-124606622D01*
X147464089Y-121424642D02*
X146424642Y-122464089D01*
X149606622Y-123567175D02*
X147464089Y-121424642D01*
%TO.C,U1*%
X105615000Y-117750000D02*
X105615000Y-117000000D01*
%TO.C,D18*%
X149924642Y-132964089D02*
X152067175Y-135106622D01*
X153106622Y-134067175D02*
X150964089Y-131924642D01*
X150964089Y-131924642D02*
X149924642Y-132964089D01*
%TO.C,D105*%
X181424642Y-122464089D02*
X183567175Y-124606622D01*
X184606622Y-123567175D02*
X182464089Y-121424642D01*
X182464089Y-121424642D02*
X181424642Y-122464089D01*
%TO.C,D37*%
X160106622Y-79567175D02*
X157964089Y-77424642D01*
X156924642Y-78464089D02*
X159067175Y-80606622D01*
X157964089Y-77424642D02*
X156924642Y-78464089D01*
%TO.C,D53*%
X163924642Y-64464089D02*
X166067175Y-66606622D01*
X164964089Y-63424642D02*
X163924642Y-64464089D01*
X167106622Y-65567175D02*
X164964089Y-63424642D01*
%TO.C,D11*%
X153106622Y-109567175D02*
X150964089Y-107424642D01*
X149924642Y-108464089D02*
X152067175Y-110606622D01*
X150964089Y-107424642D02*
X149924642Y-108464089D01*
%TO.C,D107*%
X181424642Y-78464089D02*
X183567175Y-80606622D01*
X184606622Y-79567175D02*
X182464089Y-77424642D01*
X182464089Y-77424642D02*
X181424642Y-78464089D01*
%TO.C,D35*%
X156924642Y-122464089D02*
X159067175Y-124606622D01*
X160106622Y-123567175D02*
X157964089Y-121424642D01*
X157964089Y-121424642D02*
X156924642Y-122464089D01*
%TO.C,D94*%
X181106622Y-69067175D02*
X178964089Y-66924642D01*
X177924642Y-67964089D02*
X180067175Y-70106622D01*
X178964089Y-66924642D02*
X177924642Y-67964089D01*
%TO.C,D61*%
X168464089Y-107424642D02*
X167424642Y-108464089D01*
X170606622Y-109567175D02*
X168464089Y-107424642D01*
X167424642Y-108464089D02*
X169567175Y-110606622D01*
%TO.C,D72*%
X171964089Y-110924642D02*
X170924642Y-111964089D01*
X170924642Y-111964089D02*
X173067175Y-114106622D01*
X174106622Y-113067175D02*
X171964089Y-110924642D01*
%TO.C,D73*%
X174106622Y-65567175D02*
X171964089Y-63424642D01*
X171964089Y-63424642D02*
X170924642Y-64464089D01*
X170924642Y-64464089D02*
X173067175Y-66606622D01*
%TO.C,D35*%
X156924642Y-71464089D02*
X159067175Y-73606622D01*
X160106622Y-72567175D02*
X157964089Y-70424642D01*
X157964089Y-70424642D02*
X156924642Y-71464089D01*
%TO.C,D34*%
X160106622Y-69067175D02*
X157964089Y-66924642D01*
X156924642Y-67964089D02*
X159067175Y-70106622D01*
X157964089Y-66924642D02*
X156924642Y-67964089D01*
%TO.C,D52*%
X163924642Y-111964089D02*
X166067175Y-114106622D01*
X164964089Y-110924642D02*
X163924642Y-111964089D01*
X167106622Y-113067175D02*
X164964089Y-110924642D01*
%TO.C,D27*%
X153424642Y-78464089D02*
X155567175Y-80606622D01*
X154464089Y-77424642D02*
X153424642Y-78464089D01*
X156606622Y-79567175D02*
X154464089Y-77424642D01*
%TO.C,D24*%
X153424642Y-67964089D02*
X155567175Y-70106622D01*
X156606622Y-69067175D02*
X154464089Y-66924642D01*
X154464089Y-66924642D02*
X153424642Y-67964089D01*
%TO.C,D21*%
X154464089Y-56424642D02*
X153424642Y-57464089D01*
X156606622Y-58567175D02*
X154464089Y-56424642D01*
X153424642Y-57464089D02*
X155567175Y-59606622D01*
%TO.C,D5*%
X146424642Y-71464089D02*
X148567175Y-73606622D01*
X147464089Y-70424642D02*
X146424642Y-71464089D01*
X149606622Y-72567175D02*
X147464089Y-70424642D01*
%TO.C,D46*%
X161464089Y-124924642D02*
X160424642Y-125964089D01*
X160424642Y-125964089D02*
X162567175Y-128106622D01*
X163606622Y-127067175D02*
X161464089Y-124924642D01*
%TO.C,D22*%
X153424642Y-60964089D02*
X155567175Y-63106622D01*
X154464089Y-59924642D02*
X153424642Y-60964089D01*
X156606622Y-62067175D02*
X154464089Y-59924642D01*
%TO.C,D50*%
X161464089Y-138924642D02*
X160424642Y-139964089D01*
X160424642Y-139964089D02*
X162567175Y-142106622D01*
X163606622Y-141067175D02*
X161464089Y-138924642D01*
%TO.C,D55*%
X167106622Y-72567175D02*
X164964089Y-70424642D01*
X164964089Y-70424642D02*
X163924642Y-71464089D01*
X163924642Y-71464089D02*
X166067175Y-73606622D01*
%TO.C,D3*%
X149606622Y-65567175D02*
X147464089Y-63424642D01*
X147464089Y-63424642D02*
X146424642Y-64464089D01*
X146424642Y-64464089D02*
X148567175Y-66606622D01*
%TO.C,D1*%
X147464089Y-56424642D02*
X146424642Y-57464089D01*
X149606622Y-58567175D02*
X147464089Y-56424642D01*
X146424642Y-57464089D02*
X148567175Y-59606622D01*
%TO.C,D16*%
X149924642Y-125964089D02*
X152067175Y-128106622D01*
X150964089Y-124924642D02*
X149924642Y-125964089D01*
X153106622Y-127067175D02*
X150964089Y-124924642D01*
%TO.C,D9*%
X146424642Y-136464089D02*
X148567175Y-138606622D01*
X149606622Y-137567175D02*
X147464089Y-135424642D01*
X147464089Y-135424642D02*
X146424642Y-136464089D01*
%TO.C,D66*%
X170606622Y-127067175D02*
X168464089Y-124924642D01*
X168464089Y-124924642D02*
X167424642Y-125964089D01*
X167424642Y-125964089D02*
X169567175Y-128106622D01*
%TO.C,D105*%
X181424642Y-71464089D02*
X183567175Y-73606622D01*
X184606622Y-72567175D02*
X182464089Y-70424642D01*
X182464089Y-70424642D02*
X181424642Y-71464089D01*
%TO.C,D91*%
X177924642Y-57464089D02*
X180067175Y-59606622D01*
X181106622Y-58567175D02*
X178964089Y-56424642D01*
X178964089Y-56424642D02*
X177924642Y-57464089D01*
%TO.C,D103*%
X182464089Y-63424642D02*
X181424642Y-64464089D01*
X181424642Y-64464089D02*
X183567175Y-66606622D01*
X184606622Y-65567175D02*
X182464089Y-63424642D01*
%TO.C,D93*%
X181106622Y-65567175D02*
X178964089Y-63424642D01*
X178964089Y-63424642D02*
X177924642Y-64464089D01*
X177924642Y-64464089D02*
X180067175Y-66606622D01*
%TO.C,D79*%
X171964089Y-84424642D02*
X170924642Y-85464089D01*
X174106622Y-86567175D02*
X171964089Y-84424642D01*
X170924642Y-85464089D02*
X173067175Y-87606622D01*
%TO.C,D15*%
X149924642Y-122464089D02*
X152067175Y-124606622D01*
X150964089Y-121424642D02*
X149924642Y-122464089D01*
X153106622Y-123567175D02*
X150964089Y-121424642D01*
%TO.C,D17*%
X150964089Y-128424642D02*
X149924642Y-129464089D01*
X149924642Y-129464089D02*
X152067175Y-131606622D01*
X153106622Y-130567175D02*
X150964089Y-128424642D01*
%TO.C,D69*%
X167424642Y-85464089D02*
X169567175Y-87606622D01*
X170606622Y-86567175D02*
X168464089Y-84424642D01*
X168464089Y-84424642D02*
X167424642Y-85464089D01*
%TO.C,D98*%
X178964089Y-131924642D02*
X177924642Y-132964089D01*
X181106622Y-134067175D02*
X178964089Y-131924642D01*
X177924642Y-132964089D02*
X180067175Y-135106622D01*
%TO.C,D54*%
X164964089Y-117924642D02*
X163924642Y-118964089D01*
X163924642Y-118964089D02*
X166067175Y-121106622D01*
X167106622Y-120067175D02*
X164964089Y-117924642D01*
%TO.C,D74*%
X171964089Y-117924642D02*
X170924642Y-118964089D01*
X170924642Y-118964089D02*
X173067175Y-121106622D01*
X174106622Y-120067175D02*
X171964089Y-117924642D01*
%TO.C,D62*%
X170606622Y-62067175D02*
X168464089Y-59924642D01*
X168464089Y-59924642D02*
X167424642Y-60964089D01*
X167424642Y-60964089D02*
X169567175Y-63106622D01*
%TO.C,D82*%
X177606622Y-113067175D02*
X175464089Y-110924642D01*
X175464089Y-110924642D02*
X174424642Y-111964089D01*
X174424642Y-111964089D02*
X176567175Y-114106622D01*
%TO.C,D43*%
X163606622Y-116567175D02*
X161464089Y-114424642D01*
X161464089Y-114424642D02*
X160424642Y-115464089D01*
X160424642Y-115464089D02*
X162567175Y-117606622D01*
%TO.C,D102*%
X182464089Y-110924642D02*
X181424642Y-111964089D01*
X181424642Y-111964089D02*
X183567175Y-114106622D01*
X184606622Y-113067175D02*
X182464089Y-110924642D01*
%TO.C,D86*%
X174424642Y-125964089D02*
X176567175Y-128106622D01*
X175464089Y-124924642D02*
X174424642Y-125964089D01*
X177606622Y-127067175D02*
X175464089Y-124924642D01*
%TO.C,D98*%
X178964089Y-80924642D02*
X177924642Y-81964089D01*
X181106622Y-83067175D02*
X178964089Y-80924642D01*
X177924642Y-81964089D02*
X180067175Y-84106622D01*
%TO.C,D63*%
X168464089Y-63424642D02*
X167424642Y-64464089D01*
X167424642Y-64464089D02*
X169567175Y-66606622D01*
X170606622Y-65567175D02*
X168464089Y-63424642D01*
%TO.C,D2*%
X146424642Y-60964089D02*
X148567175Y-63106622D01*
X149606622Y-62067175D02*
X147464089Y-59924642D01*
X147464089Y-59924642D02*
X146424642Y-60964089D01*
%TO.C,D41*%
X163606622Y-109567175D02*
X161464089Y-107424642D01*
X161464089Y-107424642D02*
X160424642Y-108464089D01*
X160424642Y-108464089D02*
X162567175Y-110606622D01*
%TO.C,D6*%
X147464089Y-73924642D02*
X146424642Y-74964089D01*
X149606622Y-76067175D02*
X147464089Y-73924642D01*
X146424642Y-74964089D02*
X148567175Y-77106622D01*
%TO.C,D29*%
X154464089Y-135424642D02*
X153424642Y-136464089D01*
X156606622Y-137567175D02*
X154464089Y-135424642D01*
X153424642Y-136464089D02*
X155567175Y-138606622D01*
%TO.C,D37*%
X160106622Y-130567175D02*
X157964089Y-128424642D01*
X156924642Y-129464089D02*
X159067175Y-131606622D01*
X157964089Y-128424642D02*
X156924642Y-129464089D01*
%TO.C,D56*%
X164964089Y-73924642D02*
X163924642Y-74964089D01*
X163924642Y-74964089D02*
X166067175Y-77106622D01*
X167106622Y-76067175D02*
X164964089Y-73924642D01*
%TO.C,D47*%
X160424642Y-78464089D02*
X162567175Y-80606622D01*
X161464089Y-77424642D02*
X160424642Y-78464089D01*
X163606622Y-79567175D02*
X161464089Y-77424642D01*
%TO.C,D72*%
X171964089Y-59924642D02*
X170924642Y-60964089D01*
X170924642Y-60964089D02*
X173067175Y-63106622D01*
X174106622Y-62067175D02*
X171964089Y-59924642D01*
%TO.C,D85*%
X175464089Y-121424642D02*
X174424642Y-122464089D01*
X174424642Y-122464089D02*
X176567175Y-124606622D01*
X177606622Y-123567175D02*
X175464089Y-121424642D01*
%TO.C,D110*%
X182464089Y-87924642D02*
X181424642Y-88964089D01*
X181424642Y-88964089D02*
X183567175Y-91106622D01*
X184606622Y-90067175D02*
X182464089Y-87924642D01*
%TO.C,U1*%
X105615000Y-66750000D02*
X105615000Y-66000000D01*
%TO.C,D67*%
X167424642Y-129464089D02*
X169567175Y-131606622D01*
X170606622Y-130567175D02*
X168464089Y-128424642D01*
X168464089Y-128424642D02*
X167424642Y-129464089D01*
%TO.C,D64*%
X168464089Y-117924642D02*
X167424642Y-118964089D01*
X167424642Y-118964089D02*
X169567175Y-121106622D01*
X170606622Y-120067175D02*
X168464089Y-117924642D01*
%TO.C,D23*%
X154464089Y-114424642D02*
X153424642Y-115464089D01*
X153424642Y-115464089D02*
X155567175Y-117606622D01*
X156606622Y-116567175D02*
X154464089Y-114424642D01*
%TO.C,D58*%
X164964089Y-131924642D02*
X163924642Y-132964089D01*
X167106622Y-134067175D02*
X164964089Y-131924642D01*
X163924642Y-132964089D02*
X166067175Y-135106622D01*
%TO.C,D84*%
X175464089Y-117924642D02*
X174424642Y-118964089D01*
X174424642Y-118964089D02*
X176567175Y-121106622D01*
X177606622Y-120067175D02*
X175464089Y-117924642D01*
%TO.C,D4*%
X147464089Y-117924642D02*
X146424642Y-118964089D01*
X149606622Y-120067175D02*
X147464089Y-117924642D01*
X146424642Y-118964089D02*
X148567175Y-121106622D01*
%TO.C,D19*%
X150964089Y-135424642D02*
X149924642Y-136464089D01*
X153106622Y-137567175D02*
X150964089Y-135424642D01*
X149924642Y-136464089D02*
X152067175Y-138606622D01*
%TO.C,D40*%
X156924642Y-139964089D02*
X159067175Y-142106622D01*
X160106622Y-141067175D02*
X157964089Y-138924642D01*
X157964089Y-138924642D02*
X156924642Y-139964089D01*
%TO.C,D67*%
X167424642Y-78464089D02*
X169567175Y-80606622D01*
X170606622Y-79567175D02*
X168464089Y-77424642D01*
X168464089Y-77424642D02*
X167424642Y-78464089D01*
%TO.C,D30*%
X156606622Y-141067175D02*
X154464089Y-138924642D01*
X154464089Y-138924642D02*
X153424642Y-139964089D01*
X153424642Y-139964089D02*
X155567175Y-142106622D01*
%TO.C,D44*%
X163606622Y-120067175D02*
X161464089Y-117924642D01*
X160424642Y-118964089D02*
X162567175Y-121106622D01*
X161464089Y-117924642D02*
X160424642Y-118964089D01*
%TO.C,D70*%
X170606622Y-141067175D02*
X168464089Y-138924642D01*
X168464089Y-138924642D02*
X167424642Y-139964089D01*
X167424642Y-139964089D02*
X169567175Y-142106622D01*
%TO.C,D108*%
X182464089Y-131924642D02*
X181424642Y-132964089D01*
X184606622Y-134067175D02*
X182464089Y-131924642D01*
X181424642Y-132964089D02*
X183567175Y-135106622D01*
%TO.C,D31*%
X157964089Y-107424642D02*
X156924642Y-108464089D01*
X160106622Y-109567175D02*
X157964089Y-107424642D01*
X156924642Y-108464089D02*
X159067175Y-110606622D01*
%TO.C,D62*%
X170606622Y-113067175D02*
X168464089Y-110924642D01*
X168464089Y-110924642D02*
X167424642Y-111964089D01*
X167424642Y-111964089D02*
X169567175Y-114106622D01*
%TO.C,D26*%
X154464089Y-73924642D02*
X153424642Y-74964089D01*
X153424642Y-74964089D02*
X155567175Y-77106622D01*
X156606622Y-76067175D02*
X154464089Y-73924642D01*
%TO.C,D28*%
X156606622Y-134067175D02*
X154464089Y-131924642D01*
X153424642Y-132964089D02*
X155567175Y-135106622D01*
X154464089Y-131924642D02*
X153424642Y-132964089D01*
%TO.C,D48*%
X160424642Y-132964089D02*
X162567175Y-135106622D01*
X161464089Y-131924642D02*
X160424642Y-132964089D01*
X163606622Y-134067175D02*
X161464089Y-131924642D01*
%TO.C,D76*%
X170924642Y-74964089D02*
X173067175Y-77106622D01*
X174106622Y-76067175D02*
X171964089Y-73924642D01*
X171964089Y-73924642D02*
X170924642Y-74964089D01*
%TO.C,D83*%
X177606622Y-116567175D02*
X175464089Y-114424642D01*
X175464089Y-114424642D02*
X174424642Y-115464089D01*
X174424642Y-115464089D02*
X176567175Y-117606622D01*
%TO.C,D60*%
X167106622Y-141067175D02*
X164964089Y-138924642D01*
X164964089Y-138924642D02*
X163924642Y-139964089D01*
X163924642Y-139964089D02*
X166067175Y-142106622D01*
%TO.C,D59*%
X164964089Y-135424642D02*
X163924642Y-136464089D01*
X167106622Y-137567175D02*
X164964089Y-135424642D01*
X163924642Y-136464089D02*
X166067175Y-138606622D01*
%TO.C,D87*%
X175464089Y-77424642D02*
X174424642Y-78464089D01*
X177606622Y-79567175D02*
X175464089Y-77424642D01*
X174424642Y-78464089D02*
X176567175Y-80606622D01*
%TO.C,D70*%
X170606622Y-90067175D02*
X168464089Y-87924642D01*
X168464089Y-87924642D02*
X167424642Y-88964089D01*
X167424642Y-88964089D02*
X169567175Y-91106622D01*
%TO.C,D89*%
X175464089Y-84424642D02*
X174424642Y-85464089D01*
X174424642Y-85464089D02*
X176567175Y-87606622D01*
X177606622Y-86567175D02*
X175464089Y-84424642D01*
%TO.C,D3*%
X149606622Y-116567175D02*
X147464089Y-114424642D01*
X147464089Y-114424642D02*
X146424642Y-115464089D01*
X146424642Y-115464089D02*
X148567175Y-117606622D01*
%TO.C,D10*%
X149606622Y-90067175D02*
X147464089Y-87924642D01*
X147464089Y-87924642D02*
X146424642Y-88964089D01*
X146424642Y-88964089D02*
X148567175Y-91106622D01*
%TO.C,D47*%
X160424642Y-129464089D02*
X162567175Y-131606622D01*
X161464089Y-128424642D02*
X160424642Y-129464089D01*
X163606622Y-130567175D02*
X161464089Y-128424642D01*
%TO.C,D18*%
X149924642Y-81964089D02*
X152067175Y-84106622D01*
X153106622Y-83067175D02*
X150964089Y-80924642D01*
X150964089Y-80924642D02*
X149924642Y-81964089D01*
%TO.C,D42*%
X163606622Y-113067175D02*
X161464089Y-110924642D01*
X161464089Y-110924642D02*
X160424642Y-111964089D01*
X160424642Y-111964089D02*
X162567175Y-114106622D01*
%TO.C,D71*%
X170924642Y-108464089D02*
X173067175Y-110606622D01*
X174106622Y-109567175D02*
X171964089Y-107424642D01*
X171964089Y-107424642D02*
X170924642Y-108464089D01*
%TO.C,D33*%
X160106622Y-116567175D02*
X157964089Y-114424642D01*
X157964089Y-114424642D02*
X156924642Y-115464089D01*
X156924642Y-115464089D02*
X159067175Y-117606622D01*
%TO.C,D20*%
X149924642Y-139964089D02*
X152067175Y-142106622D01*
X150964089Y-138924642D02*
X149924642Y-139964089D01*
X153106622Y-141067175D02*
X150964089Y-138924642D01*
%TO.C,D45*%
X163606622Y-123567175D02*
X161464089Y-121424642D01*
X161464089Y-121424642D02*
X160424642Y-122464089D01*
X160424642Y-122464089D02*
X162567175Y-124606622D01*
%TO.C,D92*%
X177924642Y-111964089D02*
X180067175Y-114106622D01*
X178964089Y-110924642D02*
X177924642Y-111964089D01*
X181106622Y-113067175D02*
X178964089Y-110924642D01*
%TO.C,D87*%
X175464089Y-128424642D02*
X174424642Y-129464089D01*
X177606622Y-130567175D02*
X175464089Y-128424642D01*
X174424642Y-129464089D02*
X176567175Y-131606622D01*
%TO.C,D38*%
X157964089Y-80924642D02*
X156924642Y-81964089D01*
X156924642Y-81964089D02*
X159067175Y-84106622D01*
X160106622Y-83067175D02*
X157964089Y-80924642D01*
%TO.C,D104*%
X181424642Y-67964089D02*
X183567175Y-70106622D01*
X182464089Y-66924642D02*
X181424642Y-67964089D01*
X184606622Y-69067175D02*
X182464089Y-66924642D01*
%TO.C,D54*%
X164964089Y-66924642D02*
X163924642Y-67964089D01*
X163924642Y-67964089D02*
X166067175Y-70106622D01*
X167106622Y-69067175D02*
X164964089Y-66924642D01*
%TO.C,D14*%
X150964089Y-66924642D02*
X149924642Y-67964089D01*
X149924642Y-67964089D02*
X152067175Y-70106622D01*
X153106622Y-69067175D02*
X150964089Y-66924642D01*
%TO.C,D33*%
X160106622Y-65567175D02*
X157964089Y-63424642D01*
X157964089Y-63424642D02*
X156924642Y-64464089D01*
X156924642Y-64464089D02*
X159067175Y-66606622D01*
%TO.C,D90*%
X177606622Y-90067175D02*
X175464089Y-87924642D01*
X175464089Y-87924642D02*
X174424642Y-88964089D01*
X174424642Y-88964089D02*
X176567175Y-91106622D01*
%TO.C,D110*%
X182464089Y-138924642D02*
X181424642Y-139964089D01*
X181424642Y-139964089D02*
X183567175Y-142106622D01*
X184606622Y-141067175D02*
X182464089Y-138924642D01*
%TO.C,D25*%
X153424642Y-71464089D02*
X155567175Y-73606622D01*
X154464089Y-70424642D02*
X153424642Y-71464089D01*
X156606622Y-72567175D02*
X154464089Y-70424642D01*
%TO.C,D7*%
X147464089Y-77424642D02*
X146424642Y-78464089D01*
X146424642Y-78464089D02*
X148567175Y-80606622D01*
X149606622Y-79567175D02*
X147464089Y-77424642D01*
%TO.C,D89*%
X175464089Y-135424642D02*
X174424642Y-136464089D01*
X174424642Y-136464089D02*
X176567175Y-138606622D01*
X177606622Y-137567175D02*
X175464089Y-135424642D01*
%TO.C,D65*%
X170606622Y-72567175D02*
X168464089Y-70424642D01*
X168464089Y-70424642D02*
X167424642Y-71464089D01*
X167424642Y-71464089D02*
X169567175Y-73606622D01*
%TO.C,D78*%
X171964089Y-131924642D02*
X170924642Y-132964089D01*
X174106622Y-134067175D02*
X171964089Y-131924642D01*
X170924642Y-132964089D02*
X173067175Y-135106622D01*
%TO.C,D80*%
X174106622Y-90067175D02*
X171964089Y-87924642D01*
X170924642Y-88964089D02*
X173067175Y-91106622D01*
X171964089Y-87924642D02*
X170924642Y-88964089D01*
%TO.C,D100*%
X177924642Y-88964089D02*
X180067175Y-91106622D01*
X181106622Y-90067175D02*
X178964089Y-87924642D01*
X178964089Y-87924642D02*
X177924642Y-88964089D01*
%TO.C,D88*%
X177606622Y-134067175D02*
X175464089Y-131924642D01*
X175464089Y-131924642D02*
X174424642Y-132964089D01*
X174424642Y-132964089D02*
X176567175Y-135106622D01*
%TO.C,D93*%
X181106622Y-116567175D02*
X178964089Y-114424642D01*
X178964089Y-114424642D02*
X177924642Y-115464089D01*
X177924642Y-115464089D02*
X180067175Y-117606622D01*
%TO.C,D90*%
X177606622Y-141067175D02*
X175464089Y-138924642D01*
X175464089Y-138924642D02*
X174424642Y-139964089D01*
X174424642Y-139964089D02*
X176567175Y-142106622D01*
%TO.C,D31*%
X157964089Y-56424642D02*
X156924642Y-57464089D01*
X160106622Y-58567175D02*
X157964089Y-56424642D01*
X156924642Y-57464089D02*
X159067175Y-59606622D01*
%TO.C,D77*%
X171964089Y-77424642D02*
X170924642Y-78464089D01*
X174106622Y-79567175D02*
X171964089Y-77424642D01*
X170924642Y-78464089D02*
X173067175Y-80606622D01*
%TO.C,D21*%
X154464089Y-107424642D02*
X153424642Y-108464089D01*
X156606622Y-109567175D02*
X154464089Y-107424642D01*
X153424642Y-108464089D02*
X155567175Y-110606622D01*
%TO.C,D8*%
X146424642Y-132964089D02*
X148567175Y-135106622D01*
X147464089Y-131924642D02*
X146424642Y-132964089D01*
X149606622Y-134067175D02*
X147464089Y-131924642D01*
%TO.C,D13*%
X150964089Y-63424642D02*
X149924642Y-64464089D01*
X153106622Y-65567175D02*
X150964089Y-63424642D01*
X149924642Y-64464089D02*
X152067175Y-66606622D01*
%TO.C,D77*%
X171964089Y-128424642D02*
X170924642Y-129464089D01*
X174106622Y-130567175D02*
X171964089Y-128424642D01*
X170924642Y-129464089D02*
X173067175Y-131606622D01*
%TO.C,D13*%
X150964089Y-114424642D02*
X149924642Y-115464089D01*
X153106622Y-116567175D02*
X150964089Y-114424642D01*
X149924642Y-115464089D02*
X152067175Y-117606622D01*
%TO.C,D63*%
X168464089Y-114424642D02*
X167424642Y-115464089D01*
X167424642Y-115464089D02*
X169567175Y-117606622D01*
X170606622Y-116567175D02*
X168464089Y-114424642D01*
%TO.C,D109*%
X182464089Y-84424642D02*
X181424642Y-85464089D01*
X184606622Y-86567175D02*
X182464089Y-84424642D01*
X181424642Y-85464089D02*
X183567175Y-87606622D01*
%TO.C,D39*%
X160106622Y-137567175D02*
X157964089Y-135424642D01*
X157964089Y-135424642D02*
X156924642Y-136464089D01*
X156924642Y-136464089D02*
X159067175Y-138606622D01*
%TO.C,D28*%
X156606622Y-83067175D02*
X154464089Y-80924642D01*
X153424642Y-81964089D02*
X155567175Y-84106622D01*
X154464089Y-80924642D02*
X153424642Y-81964089D01*
%TO.C,D2*%
X146424642Y-111964089D02*
X148567175Y-114106622D01*
X149606622Y-113067175D02*
X147464089Y-110924642D01*
X147464089Y-110924642D02*
X146424642Y-111964089D01*
%TO.C,D95*%
X177924642Y-71464089D02*
X180067175Y-73606622D01*
X181106622Y-72567175D02*
X178964089Y-70424642D01*
X178964089Y-70424642D02*
X177924642Y-71464089D01*
%TO.C,D65*%
X170606622Y-123567175D02*
X168464089Y-121424642D01*
X168464089Y-121424642D02*
X167424642Y-122464089D01*
X167424642Y-122464089D02*
X169567175Y-124606622D01*
%TO.C,D74*%
X171964089Y-66924642D02*
X170924642Y-67964089D01*
X170924642Y-67964089D02*
X173067175Y-70106622D01*
X174106622Y-69067175D02*
X171964089Y-66924642D01*
%TO.C,D30*%
X156606622Y-90067175D02*
X154464089Y-87924642D01*
X154464089Y-87924642D02*
X153424642Y-88964089D01*
X153424642Y-88964089D02*
X155567175Y-91106622D01*
%TO.C,D36*%
X160106622Y-127067175D02*
X157964089Y-124924642D01*
X156924642Y-125964089D02*
X159067175Y-128106622D01*
X157964089Y-124924642D02*
X156924642Y-125964089D01*
%TO.C,D75*%
X171964089Y-121424642D02*
X170924642Y-122464089D01*
X174106622Y-123567175D02*
X171964089Y-121424642D01*
X170924642Y-122464089D02*
X173067175Y-124606622D01*
%TO.C,D39*%
X160106622Y-86567175D02*
X157964089Y-84424642D01*
X157964089Y-84424642D02*
X156924642Y-85464089D01*
X156924642Y-85464089D02*
X159067175Y-87606622D01*
%TO.C,D17*%
X150964089Y-77424642D02*
X149924642Y-78464089D01*
X149924642Y-78464089D02*
X152067175Y-80606622D01*
X153106622Y-79567175D02*
X150964089Y-77424642D01*
%TO.C,D14*%
X150964089Y-117924642D02*
X149924642Y-118964089D01*
X149924642Y-118964089D02*
X152067175Y-121106622D01*
X153106622Y-120067175D02*
X150964089Y-117924642D01*
%TO.C,D108*%
X182464089Y-80924642D02*
X181424642Y-81964089D01*
X184606622Y-83067175D02*
X182464089Y-80924642D01*
X181424642Y-81964089D02*
X183567175Y-84106622D01*
%TO.C,D66*%
X170606622Y-76067175D02*
X168464089Y-73924642D01*
X168464089Y-73924642D02*
X167424642Y-74964089D01*
X167424642Y-74964089D02*
X169567175Y-77106622D01*
%TO.C,D38*%
X157964089Y-131924642D02*
X156924642Y-132964089D01*
X156924642Y-132964089D02*
X159067175Y-135106622D01*
X160106622Y-134067175D02*
X157964089Y-131924642D01*
%TO.C,D12*%
X149924642Y-60964089D02*
X152067175Y-63106622D01*
X150964089Y-59924642D02*
X149924642Y-60964089D01*
X153106622Y-62067175D02*
X150964089Y-59924642D01*
%TO.C,D81*%
X175464089Y-56424642D02*
X174424642Y-57464089D01*
X177606622Y-58567175D02*
X175464089Y-56424642D01*
X174424642Y-57464089D02*
X176567175Y-59606622D01*
%TO.C,D27*%
X153424642Y-129464089D02*
X155567175Y-131606622D01*
X154464089Y-128424642D02*
X153424642Y-129464089D01*
X156606622Y-130567175D02*
X154464089Y-128424642D01*
%TO.C,D36*%
X160106622Y-76067175D02*
X157964089Y-73924642D01*
X156924642Y-74964089D02*
X159067175Y-77106622D01*
X157964089Y-73924642D02*
X156924642Y-74964089D01*
%TO.C,D6*%
X147464089Y-124924642D02*
X146424642Y-125964089D01*
X149606622Y-127067175D02*
X147464089Y-124924642D01*
X146424642Y-125964089D02*
X148567175Y-128106622D01*
%TO.C,D19*%
X150964089Y-84424642D02*
X149924642Y-85464089D01*
X153106622Y-86567175D02*
X150964089Y-84424642D01*
X149924642Y-85464089D02*
X152067175Y-87606622D01*
%TO.C,D44*%
X163606622Y-69067175D02*
X161464089Y-66924642D01*
X160424642Y-67964089D02*
X162567175Y-70106622D01*
X161464089Y-66924642D02*
X160424642Y-67964089D01*
%TO.C,D91*%
X177924642Y-108464089D02*
X180067175Y-110606622D01*
X181106622Y-109567175D02*
X178964089Y-107424642D01*
X178964089Y-107424642D02*
X177924642Y-108464089D01*
%TO.C,D12*%
X149924642Y-111964089D02*
X152067175Y-114106622D01*
X150964089Y-110924642D02*
X149924642Y-111964089D01*
X153106622Y-113067175D02*
X150964089Y-110924642D01*
%TO.C,D60*%
X167106622Y-90067175D02*
X164964089Y-87924642D01*
X164964089Y-87924642D02*
X163924642Y-88964089D01*
X163924642Y-88964089D02*
X166067175Y-91106622D01*
%TO.C,D84*%
X175464089Y-66924642D02*
X174424642Y-67964089D01*
X174424642Y-67964089D02*
X176567175Y-70106622D01*
X177606622Y-69067175D02*
X175464089Y-66924642D01*
%TO.C,D83*%
X177606622Y-65567175D02*
X175464089Y-63424642D01*
X175464089Y-63424642D02*
X174424642Y-64464089D01*
X174424642Y-64464089D02*
X176567175Y-66606622D01*
%TO.C,D52*%
X163924642Y-60964089D02*
X166067175Y-63106622D01*
X164964089Y-59924642D02*
X163924642Y-60964089D01*
X167106622Y-62067175D02*
X164964089Y-59924642D01*
%TO.C,D101*%
X182464089Y-107424642D02*
X181424642Y-108464089D01*
X181424642Y-108464089D02*
X183567175Y-110606622D01*
X184606622Y-109567175D02*
X182464089Y-107424642D01*
%TO.C,D7*%
X147464089Y-128424642D02*
X146424642Y-129464089D01*
X146424642Y-129464089D02*
X148567175Y-131606622D01*
X149606622Y-130567175D02*
X147464089Y-128424642D01*
%TO.C,D43*%
X163606622Y-65567175D02*
X161464089Y-63424642D01*
X161464089Y-63424642D02*
X160424642Y-64464089D01*
X160424642Y-64464089D02*
X162567175Y-66606622D01*
%TO.C,D57*%
X164964089Y-77424642D02*
X163924642Y-78464089D01*
X167106622Y-79567175D02*
X164964089Y-77424642D01*
X163924642Y-78464089D02*
X166067175Y-80606622D01*
%TO.C,D88*%
X177606622Y-83067175D02*
X175464089Y-80924642D01*
X175464089Y-80924642D02*
X174424642Y-81964089D01*
X174424642Y-81964089D02*
X176567175Y-84106622D01*
%TO.C,D4*%
X147464089Y-66924642D02*
X146424642Y-67964089D01*
X149606622Y-69067175D02*
X147464089Y-66924642D01*
X146424642Y-67964089D02*
X148567175Y-70106622D01*
%TO.C,D16*%
X149924642Y-74964089D02*
X152067175Y-77106622D01*
X150964089Y-73924642D02*
X149924642Y-74964089D01*
X153106622Y-76067175D02*
X150964089Y-73924642D01*
%TO.C,D96*%
X178964089Y-124924642D02*
X177924642Y-125964089D01*
X181106622Y-127067175D02*
X178964089Y-124924642D01*
X177924642Y-125964089D02*
X180067175Y-128106622D01*
%TO.C,D102*%
X182464089Y-59924642D02*
X181424642Y-60964089D01*
X181424642Y-60964089D02*
X183567175Y-63106622D01*
X184606622Y-62067175D02*
X182464089Y-59924642D01*
%TO.C,D95*%
X177924642Y-122464089D02*
X180067175Y-124606622D01*
X181106622Y-123567175D02*
X178964089Y-121424642D01*
X178964089Y-121424642D02*
X177924642Y-122464089D01*
%TO.C,D106*%
X182464089Y-73924642D02*
X181424642Y-74964089D01*
X184606622Y-76067175D02*
X182464089Y-73924642D01*
X181424642Y-74964089D02*
X183567175Y-77106622D01*
%TO.C,D99*%
X177924642Y-136464089D02*
X180067175Y-138606622D01*
X178964089Y-135424642D02*
X177924642Y-136464089D01*
X181106622Y-137567175D02*
X178964089Y-135424642D01*
%TO.C,D46*%
X161464089Y-73924642D02*
X160424642Y-74964089D01*
X160424642Y-74964089D02*
X162567175Y-77106622D01*
X163606622Y-76067175D02*
X161464089Y-73924642D01*
%TO.C,D40*%
X156924642Y-88964089D02*
X159067175Y-91106622D01*
X160106622Y-90067175D02*
X157964089Y-87924642D01*
X157964089Y-87924642D02*
X156924642Y-88964089D01*
%TO.C,D97*%
X181106622Y-130567175D02*
X178964089Y-128424642D01*
X177924642Y-129464089D02*
X180067175Y-131606622D01*
X178964089Y-128424642D02*
X177924642Y-129464089D01*
%TO.C,D99*%
X177924642Y-85464089D02*
X180067175Y-87606622D01*
X178964089Y-84424642D02*
X177924642Y-85464089D01*
X181106622Y-86567175D02*
X178964089Y-84424642D01*
%TO.C,D11*%
X153106622Y-58567175D02*
X150964089Y-56424642D01*
X149924642Y-57464089D02*
X152067175Y-59606622D01*
X150964089Y-56424642D02*
X149924642Y-57464089D01*
%TO.C,D1*%
X147464089Y-107424642D02*
X146424642Y-108464089D01*
X149606622Y-109567175D02*
X147464089Y-107424642D01*
X146424642Y-108464089D02*
X148567175Y-110606622D01*
%TO.C,D10*%
X149606622Y-141067175D02*
X147464089Y-138924642D01*
X147464089Y-138924642D02*
X146424642Y-139964089D01*
X146424642Y-139964089D02*
X148567175Y-142106622D01*
%TO.C,D109*%
X182464089Y-135424642D02*
X181424642Y-136464089D01*
X184606622Y-137567175D02*
X182464089Y-135424642D01*
X181424642Y-136464089D02*
X183567175Y-138606622D01*
%TO.C,D68*%
X170606622Y-83067175D02*
X168464089Y-80924642D01*
X167424642Y-81964089D02*
X169567175Y-84106622D01*
X168464089Y-80924642D02*
X167424642Y-81964089D01*
%TO.C,R16*%
X159380000Y-145017621D02*
X159380000Y-144682379D01*
X158620000Y-145017621D02*
X158620000Y-144682379D01*
%TO.C,R10*%
X180380000Y-145017621D02*
X180380000Y-144682379D01*
X179620000Y-145017621D02*
X179620000Y-144682379D01*
%TO.C,R11*%
X176120000Y-94017621D02*
X176120000Y-93682379D01*
X176880000Y-94017621D02*
X176880000Y-93682379D01*
%TO.C,R17*%
X155120000Y-145017621D02*
X155120000Y-144682379D01*
X155880000Y-145017621D02*
X155880000Y-144682379D01*
%TO.C,R14*%
X165620000Y-145017621D02*
X165620000Y-144682379D01*
X166380000Y-145017621D02*
X166380000Y-144682379D01*
%TO.C,R3*%
X142400175Y-119387227D02*
X142637227Y-119150175D01*
X141862773Y-118849825D02*
X142099825Y-118612773D01*
%TO.C,R16*%
X159380000Y-94017621D02*
X159380000Y-93682379D01*
X158620000Y-94017621D02*
X158620000Y-93682379D01*
%TO.C,R12*%
X173380000Y-145017621D02*
X173380000Y-144682379D01*
X172620000Y-145017621D02*
X172620000Y-144682379D01*
%TO.C,R19*%
X148120000Y-94017621D02*
X148120000Y-93682379D01*
X148880000Y-94017621D02*
X148880000Y-93682379D01*
%TO.C,C3*%
X103315835Y-119790000D02*
X103084165Y-119790000D01*
X103315835Y-120510000D02*
X103084165Y-120510000D01*
%TO.C,R8*%
X124900175Y-70612773D02*
X125137227Y-70849825D01*
X124362773Y-71150175D02*
X124599825Y-71387227D01*
%TO.C,R15*%
X162880000Y-145017621D02*
X162880000Y-144682379D01*
X162120000Y-145017621D02*
X162120000Y-144682379D01*
%TO.C,R1*%
X122137227Y-59650175D02*
X121900175Y-59887227D01*
X121599825Y-59112773D02*
X121362773Y-59349825D01*
%TO.C,R10*%
X180380000Y-94017621D02*
X180380000Y-93682379D01*
X179620000Y-94017621D02*
X179620000Y-93682379D01*
%TO.C,R4*%
X127900175Y-73612773D02*
X128137227Y-73849825D01*
X127362773Y-74150175D02*
X127599825Y-74387227D01*
%TO.C,R13*%
X169120000Y-94017621D02*
X169120000Y-93682379D01*
X169880000Y-94017621D02*
X169880000Y-93682379D01*
%TO.C,R2*%
X136637227Y-53349825D02*
X136400175Y-53112773D01*
X136099825Y-53887227D02*
X135862773Y-53650175D01*
%TO.C,R15*%
X162880000Y-94017621D02*
X162880000Y-93682379D01*
X162120000Y-94017621D02*
X162120000Y-93682379D01*
%TO.C,R2*%
X136637227Y-104349825D02*
X136400175Y-104112773D01*
X136099825Y-104887227D02*
X135862773Y-104650175D01*
%TO.C,R7*%
X139400175Y-71387227D02*
X139637227Y-71150175D01*
X138862773Y-70849825D02*
X139099825Y-70612773D01*
%TO.C,R18*%
X152380000Y-94017621D02*
X152380000Y-93682379D01*
X151620000Y-94017621D02*
X151620000Y-93682379D01*
%TO.C,R4*%
X127900175Y-124612773D02*
X128137227Y-124849825D01*
X127362773Y-125150175D02*
X127599825Y-125387227D01*
%TO.C,R9*%
X183880000Y-145017621D02*
X183880000Y-144682379D01*
X183120000Y-145017621D02*
X183120000Y-144682379D01*
%TO.C,R1*%
X122137227Y-110650175D02*
X121900175Y-110887227D01*
X121599825Y-110112773D02*
X121362773Y-110349825D01*
%TO.C,C2*%
X103315835Y-119010000D02*
X103084165Y-119010000D01*
X103315835Y-118290000D02*
X103084165Y-118290000D01*
%TO.C,C1*%
X102360000Y-122798335D02*
X102360000Y-122566665D01*
X101640000Y-122798335D02*
X101640000Y-122566665D01*
X102360000Y-71798335D02*
X102360000Y-71566665D01*
X101640000Y-71798335D02*
X101640000Y-71566665D01*
%TO.C,R5*%
X124599825Y-56112773D02*
X124362773Y-56349825D01*
X125137227Y-56650175D02*
X124900175Y-56887227D01*
%TO.C,R12*%
X173380000Y-94017621D02*
X173380000Y-93682379D01*
X172620000Y-94017621D02*
X172620000Y-93682379D01*
%TO.C,R6*%
X139637227Y-107349825D02*
X139400175Y-107112773D01*
X139099825Y-107887227D02*
X138862773Y-107650175D01*
%TO.C,R9*%
X183880000Y-94017621D02*
X183880000Y-93682379D01*
X183120000Y-94017621D02*
X183120000Y-93682379D01*
%TO.C,R6*%
X139637227Y-56349825D02*
X139400175Y-56112773D01*
X139099825Y-56887227D02*
X138862773Y-56650175D01*
%TO.C,R13*%
X169120000Y-145017621D02*
X169120000Y-144682379D01*
X169880000Y-145017621D02*
X169880000Y-144682379D01*
%TO.C,C2*%
X103315835Y-68010000D02*
X103084165Y-68010000D01*
X103315835Y-67290000D02*
X103084165Y-67290000D01*
%TO.C,R19*%
X148120000Y-145017621D02*
X148120000Y-144682379D01*
X148880000Y-145017621D02*
X148880000Y-144682379D01*
%TO.C,R11*%
X176120000Y-145017621D02*
X176120000Y-144682379D01*
X176880000Y-145017621D02*
X176880000Y-144682379D01*
%TO.C,R8*%
X124900175Y-121612773D02*
X125137227Y-121849825D01*
X124362773Y-122150175D02*
X124599825Y-122387227D01*
%TO.C,R5*%
X124599825Y-107112773D02*
X124362773Y-107349825D01*
X125137227Y-107650175D02*
X124900175Y-107887227D01*
%TO.C,R18*%
X152380000Y-145017621D02*
X152380000Y-144682379D01*
X151620000Y-145017621D02*
X151620000Y-144682379D01*
%TO.C,R14*%
X165620000Y-94017621D02*
X165620000Y-93682379D01*
X166380000Y-94017621D02*
X166380000Y-93682379D01*
%TO.C,C3*%
X103315835Y-68790000D02*
X103084165Y-68790000D01*
X103315835Y-69510000D02*
X103084165Y-69510000D01*
%TO.C,R17*%
X155120000Y-94017621D02*
X155120000Y-93682379D01*
X155880000Y-94017621D02*
X155880000Y-93682379D01*
%TO.C,R7*%
X139400175Y-122387227D02*
X139637227Y-122150175D01*
X138862773Y-121849825D02*
X139099825Y-121612773D01*
%TO.C,R3*%
X142400175Y-68387227D02*
X142637227Y-68150175D01*
X141862773Y-67849825D02*
X142099825Y-67612773D01*
%TD*%
M02*
