%TF.GenerationSoftware,KiCad,Pcbnew,(6.0.9)*%
%TF.CreationDate,2023-01-07T05:09:31-05:00*%
%TF.ProjectId,businesscard,62757369-6e65-4737-9363-6172642e6b69,rev?*%
%TF.SameCoordinates,Original*%
%TF.FileFunction,Soldermask,Bot*%
%TF.FilePolarity,Negative*%
%FSLAX46Y46*%
G04 Gerber Fmt 4.6, Leading zero omitted, Abs format (unit mm)*
G04 Created by KiCad (PCBNEW (6.0.9)) date 2023-01-07 05:09:31*
%MOMM*%
%LPD*%
G01*
G04 APERTURE LIST*
G04 Aperture macros list*
%AMRoundRect*
0 Rectangle with rounded corners*
0 $1 Rounding radius*
0 $2 $3 $4 $5 $6 $7 $8 $9 X,Y pos of 4 corners*
0 Add a 4 corners polygon primitive as box body*
4,1,4,$2,$3,$4,$5,$6,$7,$8,$9,$2,$3,0*
0 Add four circle primitives for the rounded corners*
1,1,$1+$1,$2,$3*
1,1,$1+$1,$4,$5*
1,1,$1+$1,$6,$7*
1,1,$1+$1,$8,$9*
0 Add four rect primitives between the rounded corners*
20,1,$1+$1,$2,$3,$4,$5,0*
20,1,$1+$1,$4,$5,$6,$7,0*
20,1,$1+$1,$6,$7,$8,$9,0*
20,1,$1+$1,$8,$9,$2,$3,0*%
%AMRotRect*
0 Rectangle, with rotation*
0 The origin of the aperture is its center*
0 $1 length*
0 $2 width*
0 $3 Rotation angle, in degrees counterclockwise*
0 Add horizontal line*
21,1,$1,$2,0,0,$3*%
%AMFreePoly0*
4,1,22,0.550000,-0.750000,0.000000,-0.750000,0.000000,-0.745033,-0.079941,-0.743568,-0.215256,-0.701293,-0.333266,-0.622738,-0.424486,-0.514219,-0.481581,-0.384460,-0.499164,-0.250000,-0.500000,-0.250000,-0.500000,0.250000,-0.499164,0.250000,-0.499963,0.256109,-0.478152,0.396186,-0.417904,0.524511,-0.324060,0.630769,-0.204165,0.706417,-0.067858,0.745374,0.000000,0.744959,0.000000,0.750000,
0.550000,0.750000,0.550000,-0.750000,0.550000,-0.750000,$1*%
%AMFreePoly1*
4,1,20,0.000000,0.744959,0.073905,0.744508,0.209726,0.703889,0.328688,0.626782,0.421226,0.519385,0.479903,0.390333,0.500000,0.250000,0.500000,-0.250000,0.499851,-0.262216,0.476331,-0.402017,0.414519,-0.529596,0.319384,-0.634700,0.198574,-0.708877,0.061801,-0.746166,0.000000,-0.745033,0.000000,-0.750000,-0.550000,-0.750000,-0.550000,0.750000,0.000000,0.750000,0.000000,0.744959,
0.000000,0.744959,$1*%
G04 Aperture macros list end*
%ADD10RoundRect,0.100000X0.100000X-1.337500X0.100000X1.337500X-0.100000X1.337500X-0.100000X-1.337500X0*%
%ADD11RoundRect,0.375000X0.808223X-0.277893X-0.277893X0.808223X-0.808223X0.277893X0.277893X-0.808223X0*%
%ADD12RotRect,3.000000X6.000000X45.000000*%
%ADD13C,0.300000*%
%ADD14C,1.000000*%
%ADD15C,0.750000*%
%ADD16R,0.737000X0.800000*%
%ADD17RotRect,0.800000X0.737000X315.000000*%
%ADD18RotRect,0.800000X0.737000X45.000000*%
%ADD19RotRect,0.800000X0.737000X135.000000*%
%ADD20RotRect,0.800000X0.737000X225.000000*%
%ADD21R,0.800000X0.737000*%
%ADD22FreePoly0,270.000000*%
%ADD23R,1.500000X1.000000*%
%ADD24FreePoly1,270.000000*%
%ADD25RotRect,1.700000X1.500000X225.000000*%
%ADD26RotRect,1.700000X1.500000X315.000000*%
%ADD27RotRect,1.700000X1.500000X45.000000*%
%ADD28RotRect,1.700000X1.500000X135.000000*%
%ADD29R,1.700000X1.500000*%
%ADD30C,1.500000*%
%ADD31RoundRect,0.237500X-0.618718X0.282843X0.282843X-0.618718X0.618718X-0.282843X-0.282843X0.618718X0*%
%ADD32O,0.800000X1.500000*%
%ADD33C,0.600000*%
G04 APERTURE END LIST*
D10*
%TO.C,U1*%
X101075000Y-65762500D03*
X101725000Y-65762500D03*
X102375000Y-65762500D03*
X103025000Y-65762500D03*
X103675000Y-65762500D03*
X104325000Y-65762500D03*
X104975000Y-65762500D03*
X105625000Y-65762500D03*
X106275000Y-65762500D03*
X106925000Y-65762500D03*
X106925000Y-58637500D03*
X106275000Y-58637500D03*
X105625000Y-58637500D03*
X104975000Y-58637500D03*
X104325000Y-58637500D03*
X103675000Y-58637500D03*
X103025000Y-58637500D03*
X102375000Y-58637500D03*
X101725000Y-58637500D03*
X101075000Y-58637500D03*
%TD*%
D11*
%TO.C,SW1*%
X101444544Y-72305456D03*
X97555456Y-76194544D03*
%TD*%
D12*
%TO.C,BT1*%
X114659902Y-78590098D03*
X98750000Y-94500000D03*
%TD*%
D13*
%TO.C,R19*%
X143250000Y-93600000D03*
X143250000Y-92600000D03*
D14*
X143250000Y-93100000D03*
D15*
X143500000Y-93600000D03*
D16*
X143500000Y-94000000D03*
X143500000Y-92200000D03*
D15*
X143500000Y-92600000D03*
%TD*%
D13*
%TO.C,R18*%
X146750000Y-93600000D03*
X146750000Y-92600000D03*
D14*
X146750000Y-93100000D03*
D15*
X147000000Y-93600000D03*
D16*
X147000000Y-94000000D03*
X147000000Y-92200000D03*
D15*
X147000000Y-92600000D03*
%TD*%
D13*
%TO.C,R17*%
X150250000Y-93600000D03*
X150250000Y-92600000D03*
D14*
X150250000Y-93100000D03*
D15*
X150500000Y-93600000D03*
D16*
X150500000Y-94000000D03*
X150500000Y-92200000D03*
D15*
X150500000Y-92600000D03*
%TD*%
D13*
%TO.C,R16*%
X153750000Y-93600000D03*
X153750000Y-92600000D03*
D14*
X153750000Y-93100000D03*
D15*
X154000000Y-93600000D03*
D16*
X154000000Y-94000000D03*
X154000000Y-92200000D03*
D15*
X154000000Y-92600000D03*
%TD*%
D13*
%TO.C,R15*%
X157250000Y-93600000D03*
X157250000Y-92600000D03*
D14*
X157250000Y-93100000D03*
D15*
X157500000Y-93600000D03*
D16*
X157500000Y-94000000D03*
X157500000Y-92200000D03*
D15*
X157500000Y-92600000D03*
%TD*%
D13*
%TO.C,R14*%
X160750000Y-93600000D03*
X160750000Y-92600000D03*
D14*
X160750000Y-93100000D03*
D15*
X161000000Y-93600000D03*
D16*
X161000000Y-94000000D03*
X161000000Y-92200000D03*
D15*
X161000000Y-92600000D03*
%TD*%
D13*
%TO.C,R13*%
X164250000Y-93600000D03*
X164250000Y-92600000D03*
D14*
X164250000Y-93100000D03*
D15*
X164500000Y-93600000D03*
D16*
X164500000Y-94000000D03*
X164500000Y-92200000D03*
D15*
X164500000Y-92600000D03*
%TD*%
D13*
%TO.C,R12*%
X167750000Y-93600000D03*
X167750000Y-92600000D03*
D14*
X167750000Y-93100000D03*
D15*
X168000000Y-93600000D03*
D16*
X168000000Y-94000000D03*
X168000000Y-92200000D03*
D15*
X168000000Y-92600000D03*
%TD*%
D13*
%TO.C,R11*%
X171250000Y-93600000D03*
X171250000Y-92600000D03*
D14*
X171250000Y-93100000D03*
D15*
X171500000Y-93600000D03*
D16*
X171500000Y-94000000D03*
X171500000Y-92200000D03*
D15*
X171500000Y-92600000D03*
%TD*%
D13*
%TO.C,R10*%
X174750000Y-93600000D03*
X174750000Y-92600000D03*
D14*
X174750000Y-93100000D03*
D15*
X175000000Y-93600000D03*
D16*
X175000000Y-94000000D03*
X175000000Y-92200000D03*
D15*
X175000000Y-92600000D03*
%TD*%
D13*
%TO.C,R9*%
X178250000Y-93600000D03*
X178250000Y-92600000D03*
D14*
X178250000Y-93100000D03*
D15*
X178500000Y-93600000D03*
D16*
X178500000Y-94000000D03*
X178500000Y-92200000D03*
D15*
X178500000Y-92600000D03*
%TD*%
D13*
%TO.C,R8*%
X122573223Y-72719670D03*
X123280330Y-73426777D03*
D14*
X122926777Y-73073223D03*
D15*
X122396447Y-72896447D03*
D17*
X122113604Y-72613604D03*
X123386396Y-73886396D03*
D15*
X123103553Y-73603553D03*
%TD*%
D13*
%TO.C,R7*%
X136719670Y-67426777D03*
X137426777Y-66719670D03*
D14*
X137073223Y-67073223D03*
D15*
X136896447Y-67603553D03*
D18*
X136613604Y-67886396D03*
X137886396Y-66613604D03*
D15*
X137603553Y-66896447D03*
%TD*%
D13*
%TO.C,R6*%
X131426777Y-53280330D03*
X130719670Y-52573223D03*
D14*
X131073223Y-52926777D03*
D15*
X131603553Y-53103553D03*
D19*
X131886396Y-53386396D03*
X130613604Y-52113604D03*
D15*
X130896447Y-52396447D03*
%TD*%
%TO.C,R5*%
X116396447Y-59103553D03*
D20*
X116113604Y-59386396D03*
X117386396Y-58113604D03*
D15*
X117103553Y-58396447D03*
D14*
X116926777Y-58926777D03*
D13*
X116573223Y-59280330D03*
X117280330Y-58573223D03*
%TD*%
D15*
%TO.C,R4*%
X120103553Y-70603553D03*
D17*
X120386396Y-70886396D03*
X119113604Y-69613604D03*
D15*
X119396447Y-69896447D03*
D14*
X119926777Y-70073223D03*
D13*
X120280330Y-70426777D03*
X119573223Y-69719670D03*
%TD*%
%TO.C,R3*%
X133719670Y-70426777D03*
X134426777Y-69719670D03*
D14*
X134073223Y-70073223D03*
D15*
X133896447Y-70603553D03*
D18*
X133613604Y-70886396D03*
X134886396Y-69613604D03*
D15*
X134603553Y-69896447D03*
%TD*%
%TO.C,R2*%
X133896447Y-55396447D03*
D19*
X133613604Y-55113604D03*
X134886396Y-56386396D03*
D15*
X134603553Y-56103553D03*
D14*
X134073223Y-55926777D03*
D13*
X133719670Y-55573223D03*
X134426777Y-56280330D03*
%TD*%
%TO.C,R1*%
X120280330Y-55573223D03*
X119573223Y-56280330D03*
D14*
X119926777Y-55926777D03*
D15*
X120103553Y-55396447D03*
D20*
X120386396Y-55113604D03*
X119113604Y-56386396D03*
D15*
X119396447Y-56103553D03*
%TD*%
%TO.C,C3*%
X97700000Y-68400000D03*
D21*
X97300000Y-68400000D03*
X99100000Y-68400000D03*
D15*
X98700000Y-68400000D03*
D14*
X98200000Y-68650000D03*
D13*
X97700000Y-68650000D03*
X98700000Y-68650000D03*
%TD*%
D15*
%TO.C,C2*%
X97700000Y-66900000D03*
D21*
X97300000Y-66900000D03*
X99100000Y-66900000D03*
D15*
X98700000Y-66900000D03*
D14*
X98200000Y-67150000D03*
D13*
X97700000Y-67150000D03*
X98700000Y-67150000D03*
%TD*%
%TO.C,C1*%
X112200000Y-53600000D03*
X112200000Y-54600000D03*
D14*
X112200000Y-54100000D03*
D15*
X111950000Y-53600000D03*
D16*
X111950000Y-53200000D03*
X111950000Y-55000000D03*
D15*
X111950000Y-54600000D03*
%TD*%
D22*
%TO.C,JP1*%
X97800000Y-60900000D03*
D23*
X97800000Y-62200000D03*
D24*
X97800000Y-63500000D03*
%TD*%
D25*
%TO.C,SW7*%
X131101219Y-67373654D03*
X125373654Y-73101219D03*
X122898781Y-70626346D03*
X128626346Y-64898781D03*
%TD*%
D26*
%TO.C,SW6*%
X131373654Y-58898781D03*
X137101219Y-64626346D03*
X134626346Y-67101219D03*
X128898781Y-61373654D03*
%TD*%
D27*
%TO.C,SW5*%
X122898781Y-58626346D03*
X128626346Y-52898781D03*
X131101219Y-55373654D03*
X125373654Y-61101219D03*
%TD*%
D28*
%TO.C,SW4*%
X122626346Y-67101219D03*
X116898781Y-61373654D03*
X119373654Y-58898781D03*
X125101219Y-64626346D03*
%TD*%
D29*
%TO.C,SW3*%
X133050000Y-82750000D03*
X124950000Y-82750000D03*
X124950000Y-79250000D03*
X133050000Y-79250000D03*
%TD*%
%TO.C,SW2*%
X135050000Y-91750000D03*
X126950000Y-91750000D03*
X126950000Y-88250000D03*
X135050000Y-88250000D03*
%TD*%
D30*
%TO.C,D33*%
X154000000Y-64750000D03*
D31*
X153133794Y-63883794D03*
X154866206Y-65616206D03*
%TD*%
D30*
%TO.C,D110*%
X178500000Y-89250000D03*
D31*
X177633794Y-88383794D03*
X179366206Y-90116206D03*
%TD*%
D30*
%TO.C,D109*%
X178500000Y-85750000D03*
D31*
X177633794Y-84883794D03*
X179366206Y-86616206D03*
%TD*%
D30*
%TO.C,D108*%
X178500000Y-82250000D03*
D31*
X177633794Y-81383794D03*
X179366206Y-83116206D03*
%TD*%
D30*
%TO.C,D107*%
X178500000Y-78750000D03*
D31*
X177633794Y-77883794D03*
X179366206Y-79616206D03*
%TD*%
D30*
%TO.C,D106*%
X178500000Y-75250000D03*
D31*
X177633794Y-74383794D03*
X179366206Y-76116206D03*
%TD*%
D30*
%TO.C,D105*%
X178500000Y-71750000D03*
D31*
X177633794Y-70883794D03*
X179366206Y-72616206D03*
%TD*%
D30*
%TO.C,D104*%
X178500000Y-68250000D03*
D31*
X177633794Y-67383794D03*
X179366206Y-69116206D03*
%TD*%
D30*
%TO.C,D103*%
X178500000Y-64750000D03*
D31*
X177633794Y-63883794D03*
X179366206Y-65616206D03*
%TD*%
D30*
%TO.C,D102*%
X178500000Y-61250000D03*
D31*
X177633794Y-60383794D03*
X179366206Y-62116206D03*
%TD*%
D30*
%TO.C,D101*%
X178500000Y-57750000D03*
D31*
X177633794Y-56883794D03*
X179366206Y-58616206D03*
%TD*%
D30*
%TO.C,D100*%
X175000000Y-89250000D03*
D31*
X174133794Y-88383794D03*
X175866206Y-90116206D03*
%TD*%
D30*
%TO.C,D99*%
X175000000Y-85750000D03*
D31*
X174133794Y-84883794D03*
X175866206Y-86616206D03*
%TD*%
D30*
%TO.C,D98*%
X175000000Y-82250000D03*
D31*
X174133794Y-81383794D03*
X175866206Y-83116206D03*
%TD*%
D30*
%TO.C,D97*%
X175000000Y-78750000D03*
D31*
X174133794Y-77883794D03*
X175866206Y-79616206D03*
%TD*%
D30*
%TO.C,D96*%
X175000000Y-75250000D03*
D31*
X174133794Y-74383794D03*
X175866206Y-76116206D03*
%TD*%
D30*
%TO.C,D95*%
X175000000Y-71750000D03*
D31*
X174133794Y-70883794D03*
X175866206Y-72616206D03*
%TD*%
D30*
%TO.C,D94*%
X175000000Y-68250000D03*
D31*
X174133794Y-67383794D03*
X175866206Y-69116206D03*
%TD*%
D30*
%TO.C,D93*%
X175000000Y-64750000D03*
D31*
X174133794Y-63883794D03*
X175866206Y-65616206D03*
%TD*%
D30*
%TO.C,D92*%
X175000000Y-61250000D03*
D31*
X174133794Y-60383794D03*
X175866206Y-62116206D03*
%TD*%
D30*
%TO.C,D91*%
X175000000Y-57750000D03*
D31*
X174133794Y-56883794D03*
X175866206Y-58616206D03*
%TD*%
D30*
%TO.C,D90*%
X171500000Y-89250000D03*
D31*
X170633794Y-88383794D03*
X172366206Y-90116206D03*
%TD*%
D30*
%TO.C,D89*%
X171500000Y-85750000D03*
D31*
X170633794Y-84883794D03*
X172366206Y-86616206D03*
%TD*%
D30*
%TO.C,D88*%
X171500000Y-82250000D03*
D31*
X170633794Y-81383794D03*
X172366206Y-83116206D03*
%TD*%
D30*
%TO.C,D87*%
X171500000Y-78750000D03*
D31*
X170633794Y-77883794D03*
X172366206Y-79616206D03*
%TD*%
D30*
%TO.C,D86*%
X171500000Y-75250000D03*
D31*
X170633794Y-74383794D03*
X172366206Y-76116206D03*
%TD*%
D30*
%TO.C,D85*%
X171500000Y-71750000D03*
D31*
X170633794Y-70883794D03*
X172366206Y-72616206D03*
%TD*%
D30*
%TO.C,D84*%
X171500000Y-68250000D03*
D31*
X170633794Y-67383794D03*
X172366206Y-69116206D03*
%TD*%
D30*
%TO.C,D83*%
X171500000Y-64750000D03*
D31*
X170633794Y-63883794D03*
X172366206Y-65616206D03*
%TD*%
D30*
%TO.C,D82*%
X171500000Y-61250000D03*
D31*
X170633794Y-60383794D03*
X172366206Y-62116206D03*
%TD*%
D30*
%TO.C,D81*%
X171500000Y-57750000D03*
D31*
X170633794Y-56883794D03*
X172366206Y-58616206D03*
%TD*%
D30*
%TO.C,D80*%
X168000000Y-89250000D03*
D31*
X167133794Y-88383794D03*
X168866206Y-90116206D03*
%TD*%
D30*
%TO.C,D79*%
X168000000Y-85750000D03*
D31*
X167133794Y-84883794D03*
X168866206Y-86616206D03*
%TD*%
D30*
%TO.C,D78*%
X168000000Y-82250000D03*
D31*
X167133794Y-81383794D03*
X168866206Y-83116206D03*
%TD*%
D30*
%TO.C,D77*%
X168000000Y-78750000D03*
D31*
X167133794Y-77883794D03*
X168866206Y-79616206D03*
%TD*%
D30*
%TO.C,D76*%
X168000000Y-75250000D03*
D31*
X167133794Y-74383794D03*
X168866206Y-76116206D03*
%TD*%
D30*
%TO.C,D75*%
X168000000Y-71750000D03*
D31*
X167133794Y-70883794D03*
X168866206Y-72616206D03*
%TD*%
D30*
%TO.C,D74*%
X168000000Y-68250000D03*
D31*
X167133794Y-67383794D03*
X168866206Y-69116206D03*
%TD*%
D30*
%TO.C,D73*%
X168000000Y-64750000D03*
D31*
X167133794Y-63883794D03*
X168866206Y-65616206D03*
%TD*%
D30*
%TO.C,D72*%
X168000000Y-61250000D03*
D31*
X167133794Y-60383794D03*
X168866206Y-62116206D03*
%TD*%
D30*
%TO.C,D71*%
X168000000Y-57750000D03*
D31*
X167133794Y-56883794D03*
X168866206Y-58616206D03*
%TD*%
D30*
%TO.C,D70*%
X164500000Y-89250000D03*
D31*
X163633794Y-88383794D03*
X165366206Y-90116206D03*
%TD*%
D30*
%TO.C,D69*%
X164500000Y-85750000D03*
D31*
X163633794Y-84883794D03*
X165366206Y-86616206D03*
%TD*%
D30*
%TO.C,D68*%
X164500000Y-82250000D03*
D31*
X163633794Y-81383794D03*
X165366206Y-83116206D03*
%TD*%
D30*
%TO.C,D67*%
X164500000Y-78750000D03*
D31*
X163633794Y-77883794D03*
X165366206Y-79616206D03*
%TD*%
D30*
%TO.C,D66*%
X164500000Y-75250000D03*
D31*
X163633794Y-74383794D03*
X165366206Y-76116206D03*
%TD*%
D30*
%TO.C,D65*%
X164500000Y-71750000D03*
D31*
X163633794Y-70883794D03*
X165366206Y-72616206D03*
%TD*%
D30*
%TO.C,D64*%
X164500000Y-68250000D03*
D31*
X163633794Y-67383794D03*
X165366206Y-69116206D03*
%TD*%
D30*
%TO.C,D63*%
X164500000Y-64750000D03*
D31*
X163633794Y-63883794D03*
X165366206Y-65616206D03*
%TD*%
D30*
%TO.C,D62*%
X164500000Y-61250000D03*
D31*
X163633794Y-60383794D03*
X165366206Y-62116206D03*
%TD*%
D30*
%TO.C,D61*%
X164500000Y-57750000D03*
D31*
X163633794Y-56883794D03*
X165366206Y-58616206D03*
%TD*%
D30*
%TO.C,D60*%
X161000000Y-89250000D03*
D31*
X160133794Y-88383794D03*
X161866206Y-90116206D03*
%TD*%
D30*
%TO.C,D59*%
X161000000Y-85750000D03*
D31*
X160133794Y-84883794D03*
X161866206Y-86616206D03*
%TD*%
D30*
%TO.C,D58*%
X161000000Y-82250000D03*
D31*
X160133794Y-81383794D03*
X161866206Y-83116206D03*
%TD*%
D30*
%TO.C,D57*%
X161000000Y-78750000D03*
D31*
X160133794Y-77883794D03*
X161866206Y-79616206D03*
%TD*%
D30*
%TO.C,D56*%
X161000000Y-75250000D03*
D31*
X160133794Y-74383794D03*
X161866206Y-76116206D03*
%TD*%
D30*
%TO.C,D55*%
X161000000Y-71750000D03*
D31*
X160133794Y-70883794D03*
X161866206Y-72616206D03*
%TD*%
D30*
%TO.C,D54*%
X161000000Y-68250000D03*
D31*
X160133794Y-67383794D03*
X161866206Y-69116206D03*
%TD*%
D30*
%TO.C,D53*%
X161000000Y-64750000D03*
D31*
X160133794Y-63883794D03*
X161866206Y-65616206D03*
%TD*%
D30*
%TO.C,D52*%
X161000000Y-61250000D03*
D31*
X160133794Y-60383794D03*
X161866206Y-62116206D03*
%TD*%
D30*
%TO.C,D51*%
X161000000Y-57750000D03*
D31*
X160133794Y-56883794D03*
X161866206Y-58616206D03*
%TD*%
D30*
%TO.C,D50*%
X157500000Y-89250000D03*
D31*
X156633794Y-88383794D03*
X158366206Y-90116206D03*
%TD*%
D30*
%TO.C,D49*%
X157500000Y-85750000D03*
D31*
X156633794Y-84883794D03*
X158366206Y-86616206D03*
%TD*%
D30*
%TO.C,D48*%
X157500000Y-82250000D03*
D31*
X156633794Y-81383794D03*
X158366206Y-83116206D03*
%TD*%
D30*
%TO.C,D47*%
X157500000Y-78750000D03*
D31*
X156633794Y-77883794D03*
X158366206Y-79616206D03*
%TD*%
D30*
%TO.C,D46*%
X157500000Y-75250000D03*
D31*
X156633794Y-74383794D03*
X158366206Y-76116206D03*
%TD*%
D30*
%TO.C,D45*%
X157500000Y-71750000D03*
D31*
X156633794Y-70883794D03*
X158366206Y-72616206D03*
%TD*%
D30*
%TO.C,D44*%
X157500000Y-68250000D03*
D31*
X156633794Y-67383794D03*
X158366206Y-69116206D03*
%TD*%
D30*
%TO.C,D43*%
X157500000Y-64750000D03*
D31*
X156633794Y-63883794D03*
X158366206Y-65616206D03*
%TD*%
D30*
%TO.C,D42*%
X157500000Y-61250000D03*
D31*
X156633794Y-60383794D03*
X158366206Y-62116206D03*
%TD*%
D30*
%TO.C,D41*%
X157500000Y-57750000D03*
D31*
X156633794Y-56883794D03*
X158366206Y-58616206D03*
%TD*%
D30*
%TO.C,D40*%
X154000000Y-89250000D03*
D31*
X153133794Y-88383794D03*
X154866206Y-90116206D03*
%TD*%
D30*
%TO.C,D39*%
X154000000Y-85750000D03*
D31*
X153133794Y-84883794D03*
X154866206Y-86616206D03*
%TD*%
D30*
%TO.C,D38*%
X154000000Y-82250000D03*
D31*
X153133794Y-81383794D03*
X154866206Y-83116206D03*
%TD*%
D30*
%TO.C,D37*%
X154000000Y-78750000D03*
D31*
X153133794Y-77883794D03*
X154866206Y-79616206D03*
%TD*%
D30*
%TO.C,D36*%
X154000000Y-75250000D03*
D31*
X153133794Y-74383794D03*
X154866206Y-76116206D03*
%TD*%
D30*
%TO.C,D35*%
X154000000Y-71750000D03*
D31*
X153133794Y-70883794D03*
X154866206Y-72616206D03*
%TD*%
D30*
%TO.C,D34*%
X154000000Y-68250000D03*
D31*
X153133794Y-67383794D03*
X154866206Y-69116206D03*
%TD*%
D30*
%TO.C,D32*%
X154000000Y-61250000D03*
D31*
X153133794Y-60383794D03*
X154866206Y-62116206D03*
%TD*%
D30*
%TO.C,D31*%
X154000000Y-57750000D03*
D31*
X153133794Y-56883794D03*
X154866206Y-58616206D03*
%TD*%
D30*
%TO.C,D30*%
X150500000Y-89250000D03*
D31*
X149633794Y-88383794D03*
X151366206Y-90116206D03*
%TD*%
D30*
%TO.C,D29*%
X150500000Y-85750000D03*
D31*
X149633794Y-84883794D03*
X151366206Y-86616206D03*
%TD*%
D30*
%TO.C,D28*%
X150500000Y-82250000D03*
D31*
X149633794Y-81383794D03*
X151366206Y-83116206D03*
%TD*%
D30*
%TO.C,D27*%
X150500000Y-78750000D03*
D31*
X149633794Y-77883794D03*
X151366206Y-79616206D03*
%TD*%
D30*
%TO.C,D26*%
X150500000Y-75250000D03*
D31*
X149633794Y-74383794D03*
X151366206Y-76116206D03*
%TD*%
D30*
%TO.C,D25*%
X150500000Y-71750000D03*
D31*
X149633794Y-70883794D03*
X151366206Y-72616206D03*
%TD*%
D30*
%TO.C,D24*%
X150500000Y-68250000D03*
D31*
X149633794Y-67383794D03*
X151366206Y-69116206D03*
%TD*%
D30*
%TO.C,D23*%
X150500000Y-64750000D03*
D31*
X149633794Y-63883794D03*
X151366206Y-65616206D03*
%TD*%
D30*
%TO.C,D22*%
X150500000Y-61250000D03*
D31*
X149633794Y-60383794D03*
X151366206Y-62116206D03*
%TD*%
D30*
%TO.C,D21*%
X150500000Y-57750000D03*
D31*
X149633794Y-56883794D03*
X151366206Y-58616206D03*
%TD*%
D30*
%TO.C,D20*%
X147000000Y-89250000D03*
D31*
X146133794Y-88383794D03*
X147866206Y-90116206D03*
%TD*%
D30*
%TO.C,D19*%
X147000000Y-85750000D03*
D31*
X146133794Y-84883794D03*
X147866206Y-86616206D03*
%TD*%
D30*
%TO.C,D18*%
X147000000Y-82250000D03*
D31*
X146133794Y-81383794D03*
X147866206Y-83116206D03*
%TD*%
D30*
%TO.C,D17*%
X147000000Y-78750000D03*
D31*
X146133794Y-77883794D03*
X147866206Y-79616206D03*
%TD*%
D30*
%TO.C,D16*%
X147000000Y-75250000D03*
D31*
X146133794Y-74383794D03*
X147866206Y-76116206D03*
%TD*%
D30*
%TO.C,D15*%
X147000000Y-71750000D03*
D31*
X146133794Y-70883794D03*
X147866206Y-72616206D03*
%TD*%
D30*
%TO.C,D14*%
X147000000Y-68250000D03*
D31*
X146133794Y-67383794D03*
X147866206Y-69116206D03*
%TD*%
D30*
%TO.C,D13*%
X147000000Y-64750000D03*
D31*
X146133794Y-63883794D03*
X147866206Y-65616206D03*
%TD*%
D30*
%TO.C,D12*%
X147000000Y-61250000D03*
D31*
X146133794Y-60383794D03*
X147866206Y-62116206D03*
%TD*%
D30*
%TO.C,D11*%
X147000000Y-57750000D03*
D31*
X146133794Y-56883794D03*
X147866206Y-58616206D03*
%TD*%
D30*
%TO.C,D10*%
X143500000Y-89250000D03*
D31*
X142633794Y-88383794D03*
X144366206Y-90116206D03*
%TD*%
D30*
%TO.C,D9*%
X143500000Y-85750000D03*
D31*
X142633794Y-84883794D03*
X144366206Y-86616206D03*
%TD*%
D30*
%TO.C,D8*%
X143500000Y-82250000D03*
D31*
X142633794Y-81383794D03*
X144366206Y-83116206D03*
%TD*%
D30*
%TO.C,D7*%
X143500000Y-78750000D03*
D31*
X142633794Y-77883794D03*
X144366206Y-79616206D03*
%TD*%
D30*
%TO.C,D6*%
X143500000Y-75250000D03*
D31*
X142633794Y-74383794D03*
X144366206Y-76116206D03*
%TD*%
D30*
%TO.C,D5*%
X143500000Y-71750000D03*
D31*
X142633794Y-70883794D03*
X144366206Y-72616206D03*
%TD*%
D30*
%TO.C,D4*%
X143500000Y-68250000D03*
D31*
X142633794Y-67383794D03*
X144366206Y-69116206D03*
%TD*%
D30*
%TO.C,D3*%
X143500000Y-64750000D03*
D31*
X142633794Y-63883794D03*
X144366206Y-65616206D03*
%TD*%
D30*
%TO.C,D2*%
X143500000Y-61250000D03*
D31*
X142633794Y-60383794D03*
X144366206Y-62116206D03*
%TD*%
D30*
%TO.C,D1*%
X143500000Y-57750000D03*
D31*
X142633794Y-56883794D03*
X144366206Y-58616206D03*
%TD*%
D32*
%TO.C,J1*%
X108095000Y-50250000D03*
X109365000Y-50250000D03*
X110635000Y-50250000D03*
X111905000Y-50250000D03*
D33*
X112540000Y-51405000D03*
X110000000Y-51405000D03*
X107460000Y-51405000D03*
X111270000Y-51405000D03*
X108730000Y-51405000D03*
%TD*%
M02*
