M48
; DRILL file {KiCad (6.0.9)} date Sat Jan  7 05:09:33 2023
; FORMAT={-:-/ absolute / inch / decimal}
; #@! TF.CreationDate,2023-01-07T05:09:33-05:00
; #@! TF.GenerationSoftware,Kicad,Pcbnew,(6.0.9)
; #@! TF.FileFunction,NonPlated,1,2,NPTH
FMAT,2
INCH
; #@! TA.AperFunction,NonPlated,NPTH,ComponentDrill
T1C0.0118
; #@! TA.AperFunction,NonPlated,NPTH,ComponentDrill
T2C0.0236
; #@! TA.AperFunction,NonPlated,NPTH,ComponentDrill
T3C0.0394
; #@! TA.AperFunction,NonPlated,NPTH,ComponentDrill
T4C0.0591
%
G90
G05
T1
X3.8465Y-2.6437
X3.8465Y-2.7028
X3.8858Y-2.6437
X3.8858Y-2.7028
X4.4173Y-2.1102
X4.4173Y-2.1496
X4.5895Y-2.3339
X4.6173Y-2.306
X4.7076Y-2.2158
X4.7076Y-2.7449
X4.7354Y-2.1879
X4.7354Y-2.7727
X4.8257Y-2.863
X4.8536Y-2.8908
X5.1464Y-2.0698
X5.1743Y-2.0977
X5.2646Y-2.1879
X5.2646Y-2.7727
X5.2924Y-2.2158
X5.2924Y-2.7449
X5.3827Y-2.6546
X5.4105Y-2.6268
X5.6398Y-3.6457
X5.6398Y-3.685
X5.7776Y-3.6457
X5.7776Y-3.685
X5.9154Y-3.6457
X5.9154Y-3.685
X6.0531Y-3.6457
X6.0531Y-3.685
X6.1909Y-3.6457
X6.1909Y-3.685
X6.3287Y-3.6457
X6.3287Y-3.685
X6.4665Y-3.6457
X6.4665Y-3.685
X6.6043Y-3.6457
X6.6043Y-3.685
X6.7421Y-3.6457
X6.7421Y-3.685
X6.8799Y-3.6457
X6.8799Y-3.685
X7.0177Y-3.6457
X7.0177Y-3.685
T2
X4.2307Y-2.0238
X4.2807Y-2.0238
X4.3307Y-2.0238
X4.3807Y-2.0238
X4.4307Y-2.0238
T3
X3.8661Y-2.6437
X3.8661Y-2.7028
X4.4173Y-2.1299
X4.6034Y-2.32
X4.7215Y-2.2018
X4.7215Y-2.7588
X4.8396Y-2.8769
X5.1604Y-2.0837
X5.2785Y-2.2018
X5.2785Y-2.7588
X5.3966Y-2.6407
X5.6398Y-3.6654
X5.7776Y-3.6654
X5.9154Y-3.6654
X6.0531Y-3.6654
X6.1909Y-3.6654
X6.3287Y-3.6654
X6.4665Y-3.6654
X6.6043Y-3.6654
X6.7421Y-3.6654
X6.8799Y-3.6654
X7.0177Y-3.6654
T4
X5.6496Y-2.2736
X5.6496Y-2.4114
X5.6496Y-2.5492
X5.6496Y-2.687
X5.6496Y-2.8248
X5.6496Y-2.9626
X5.6496Y-3.1004
X5.6496Y-3.2382
X5.6496Y-3.376
X5.6496Y-3.5138
X5.7874Y-2.2736
X5.7874Y-2.4114
X5.7874Y-2.5492
X5.7874Y-2.687
X5.7874Y-2.8248
X5.7874Y-2.9626
X5.7874Y-3.1004
X5.7874Y-3.2382
X5.7874Y-3.376
X5.7874Y-3.5138
X5.9252Y-2.2736
X5.9252Y-2.4114
X5.9252Y-2.5492
X5.9252Y-2.687
X5.9252Y-2.8248
X5.9252Y-2.9626
X5.9252Y-3.1004
X5.9252Y-3.2382
X5.9252Y-3.376
X5.9252Y-3.5138
X6.063Y-2.2736
X6.063Y-2.4114
X6.063Y-2.5492
X6.063Y-2.687
X6.063Y-2.8248
X6.063Y-2.9626
X6.063Y-3.1004
X6.063Y-3.2382
X6.063Y-3.376
X6.063Y-3.5138
X6.2008Y-2.2736
X6.2008Y-2.4114
X6.2008Y-2.5492
X6.2008Y-2.687
X6.2008Y-2.8248
X6.2008Y-2.9626
X6.2008Y-3.1004
X6.2008Y-3.2382
X6.2008Y-3.376
X6.2008Y-3.5138
X6.3386Y-2.2736
X6.3386Y-2.4114
X6.3386Y-2.5492
X6.3386Y-2.687
X6.3386Y-2.8248
X6.3386Y-2.9626
X6.3386Y-3.1004
X6.3386Y-3.2382
X6.3386Y-3.376
X6.3386Y-3.5138
X6.4764Y-2.2736
X6.4764Y-2.4114
X6.4764Y-2.5492
X6.4764Y-2.687
X6.4764Y-2.8248
X6.4764Y-2.9626
X6.4764Y-3.1004
X6.4764Y-3.2382
X6.4764Y-3.376
X6.4764Y-3.5138
X6.6142Y-2.2736
X6.6142Y-2.4114
X6.6142Y-2.5492
X6.6142Y-2.687
X6.6142Y-2.8248
X6.6142Y-2.9626
X6.6142Y-3.1004
X6.6142Y-3.2382
X6.6142Y-3.376
X6.6142Y-3.5138
X6.752Y-2.2736
X6.752Y-2.4114
X6.752Y-2.5492
X6.752Y-2.687
X6.752Y-2.8248
X6.752Y-2.9626
X6.752Y-3.1004
X6.752Y-3.2382
X6.752Y-3.376
X6.752Y-3.5138
X6.8898Y-2.2736
X6.8898Y-2.4114
X6.8898Y-2.5492
X6.8898Y-2.687
X6.8898Y-2.8248
X6.8898Y-2.9626
X6.8898Y-3.1004
X6.8898Y-3.2382
X6.8898Y-3.376
X6.8898Y-3.5138
X7.0276Y-2.2736
X7.0276Y-2.4114
X7.0276Y-2.5492
X7.0276Y-2.687
X7.0276Y-2.8248
X7.0276Y-2.9626
X7.0276Y-3.1004
X7.0276Y-3.2382
X7.0276Y-3.376
X7.0276Y-3.5138
T0
M30
