%TF.GenerationSoftware,KiCad,Pcbnew,(6.0.9)*%
%TF.CreationDate,2023-01-07T05:09:31-05:00*%
%TF.ProjectId,businesscard,62757369-6e65-4737-9363-6172642e6b69,rev?*%
%TF.SameCoordinates,Original*%
%TF.FileFunction,Paste,Bot*%
%TF.FilePolarity,Positive*%
%FSLAX46Y46*%
G04 Gerber Fmt 4.6, Leading zero omitted, Abs format (unit mm)*
G04 Created by KiCad (PCBNEW (6.0.9)) date 2023-01-07 05:09:31*
%MOMM*%
%LPD*%
G01*
G04 APERTURE LIST*
G04 Aperture macros list*
%AMRoundRect*
0 Rectangle with rounded corners*
0 $1 Rounding radius*
0 $2 $3 $4 $5 $6 $7 $8 $9 X,Y pos of 4 corners*
0 Add a 4 corners polygon primitive as box body*
4,1,4,$2,$3,$4,$5,$6,$7,$8,$9,$2,$3,0*
0 Add four circle primitives for the rounded corners*
1,1,$1+$1,$2,$3*
1,1,$1+$1,$4,$5*
1,1,$1+$1,$6,$7*
1,1,$1+$1,$8,$9*
0 Add four rect primitives between the rounded corners*
20,1,$1+$1,$2,$3,$4,$5,0*
20,1,$1+$1,$4,$5,$6,$7,0*
20,1,$1+$1,$6,$7,$8,$9,0*
20,1,$1+$1,$8,$9,$2,$3,0*%
%AMRotRect*
0 Rectangle, with rotation*
0 The origin of the aperture is its center*
0 $1 length*
0 $2 width*
0 $3 Rotation angle, in degrees counterclockwise*
0 Add horizontal line*
21,1,$1,$2,0,0,$3*%
G04 Aperture macros list end*
%ADD10RoundRect,0.100000X0.100000X-1.337500X0.100000X1.337500X-0.100000X1.337500X-0.100000X-1.337500X0*%
%ADD11RoundRect,0.375000X0.808223X-0.277893X-0.277893X0.808223X-0.808223X0.277893X0.277893X-0.808223X0*%
%ADD12RotRect,3.000000X6.000000X45.000000*%
%ADD13R,0.737000X0.800000*%
%ADD14RotRect,0.800000X0.737000X315.000000*%
%ADD15RotRect,0.800000X0.737000X45.000000*%
%ADD16RotRect,0.800000X0.737000X135.000000*%
%ADD17RotRect,0.800000X0.737000X225.000000*%
%ADD18R,0.800000X0.737000*%
%ADD19RotRect,1.700000X1.500000X225.000000*%
%ADD20RotRect,1.700000X1.500000X315.000000*%
%ADD21RotRect,1.700000X1.500000X45.000000*%
%ADD22RotRect,1.700000X1.500000X135.000000*%
%ADD23R,1.700000X1.500000*%
%ADD24RoundRect,0.237500X-0.618718X0.282843X0.282843X-0.618718X0.618718X-0.282843X-0.282843X0.618718X0*%
G04 APERTURE END LIST*
D10*
%TO.C,U1*%
X101075000Y-65762500D03*
X101725000Y-65762500D03*
X102375000Y-65762500D03*
X103025000Y-65762500D03*
X103675000Y-65762500D03*
X104325000Y-65762500D03*
X104975000Y-65762500D03*
X105625000Y-65762500D03*
X106275000Y-65762500D03*
X106925000Y-65762500D03*
X106925000Y-58637500D03*
X106275000Y-58637500D03*
X105625000Y-58637500D03*
X104975000Y-58637500D03*
X104325000Y-58637500D03*
X103675000Y-58637500D03*
X103025000Y-58637500D03*
X102375000Y-58637500D03*
X101725000Y-58637500D03*
X101075000Y-58637500D03*
%TD*%
D11*
%TO.C,SW1*%
X101444544Y-72305456D03*
X97555456Y-76194544D03*
%TD*%
D12*
%TO.C,BT1*%
X114659902Y-78590098D03*
X98750000Y-94500000D03*
%TD*%
D13*
%TO.C,R19*%
X143500000Y-94000000D03*
X143500000Y-92200000D03*
%TD*%
%TO.C,R18*%
X147000000Y-94000000D03*
X147000000Y-92200000D03*
%TD*%
%TO.C,R17*%
X150500000Y-94000000D03*
X150500000Y-92200000D03*
%TD*%
%TO.C,R16*%
X154000000Y-94000000D03*
X154000000Y-92200000D03*
%TD*%
%TO.C,R15*%
X157500000Y-94000000D03*
X157500000Y-92200000D03*
%TD*%
%TO.C,R14*%
X161000000Y-94000000D03*
X161000000Y-92200000D03*
%TD*%
%TO.C,R13*%
X164500000Y-94000000D03*
X164500000Y-92200000D03*
%TD*%
%TO.C,R12*%
X168000000Y-94000000D03*
X168000000Y-92200000D03*
%TD*%
%TO.C,R11*%
X171500000Y-94000000D03*
X171500000Y-92200000D03*
%TD*%
%TO.C,R10*%
X175000000Y-94000000D03*
X175000000Y-92200000D03*
%TD*%
%TO.C,R9*%
X178500000Y-94000000D03*
X178500000Y-92200000D03*
%TD*%
D14*
%TO.C,R8*%
X122113604Y-72613604D03*
X123386396Y-73886396D03*
%TD*%
D15*
%TO.C,R7*%
X136613604Y-67886396D03*
X137886396Y-66613604D03*
%TD*%
D16*
%TO.C,R6*%
X131886396Y-53386396D03*
X130613604Y-52113604D03*
%TD*%
D17*
%TO.C,R5*%
X116113604Y-59386396D03*
X117386396Y-58113604D03*
%TD*%
D14*
%TO.C,R4*%
X120386396Y-70886396D03*
X119113604Y-69613604D03*
%TD*%
D15*
%TO.C,R3*%
X133613604Y-70886396D03*
X134886396Y-69613604D03*
%TD*%
D16*
%TO.C,R2*%
X133613604Y-55113604D03*
X134886396Y-56386396D03*
%TD*%
D17*
%TO.C,R1*%
X120386396Y-55113604D03*
X119113604Y-56386396D03*
%TD*%
D18*
%TO.C,C3*%
X97300000Y-68400000D03*
X99100000Y-68400000D03*
%TD*%
%TO.C,C2*%
X97300000Y-66900000D03*
X99100000Y-66900000D03*
%TD*%
D13*
%TO.C,C1*%
X111950000Y-53200000D03*
X111950000Y-55000000D03*
%TD*%
D19*
%TO.C,SW7*%
X131101219Y-67373654D03*
X125373654Y-73101219D03*
X122898781Y-70626346D03*
X128626346Y-64898781D03*
%TD*%
D20*
%TO.C,SW6*%
X131373654Y-58898781D03*
X137101219Y-64626346D03*
X134626346Y-67101219D03*
X128898781Y-61373654D03*
%TD*%
D21*
%TO.C,SW5*%
X122898781Y-58626346D03*
X128626346Y-52898781D03*
X131101219Y-55373654D03*
X125373654Y-61101219D03*
%TD*%
D22*
%TO.C,SW4*%
X122626346Y-67101219D03*
X116898781Y-61373654D03*
X119373654Y-58898781D03*
X125101219Y-64626346D03*
%TD*%
D23*
%TO.C,SW3*%
X133050000Y-82750000D03*
X124950000Y-82750000D03*
X124950000Y-79250000D03*
X133050000Y-79250000D03*
%TD*%
%TO.C,SW2*%
X135050000Y-91750000D03*
X126950000Y-91750000D03*
X126950000Y-88250000D03*
X135050000Y-88250000D03*
%TD*%
D24*
%TO.C,D33*%
X153133794Y-63883794D03*
X154866206Y-65616206D03*
%TD*%
%TO.C,D110*%
X177633794Y-88383794D03*
X179366206Y-90116206D03*
%TD*%
%TO.C,D109*%
X177633794Y-84883794D03*
X179366206Y-86616206D03*
%TD*%
%TO.C,D108*%
X177633794Y-81383794D03*
X179366206Y-83116206D03*
%TD*%
%TO.C,D107*%
X177633794Y-77883794D03*
X179366206Y-79616206D03*
%TD*%
%TO.C,D106*%
X177633794Y-74383794D03*
X179366206Y-76116206D03*
%TD*%
%TO.C,D105*%
X177633794Y-70883794D03*
X179366206Y-72616206D03*
%TD*%
%TO.C,D104*%
X177633794Y-67383794D03*
X179366206Y-69116206D03*
%TD*%
%TO.C,D103*%
X177633794Y-63883794D03*
X179366206Y-65616206D03*
%TD*%
%TO.C,D102*%
X177633794Y-60383794D03*
X179366206Y-62116206D03*
%TD*%
%TO.C,D101*%
X177633794Y-56883794D03*
X179366206Y-58616206D03*
%TD*%
%TO.C,D100*%
X174133794Y-88383794D03*
X175866206Y-90116206D03*
%TD*%
%TO.C,D99*%
X174133794Y-84883794D03*
X175866206Y-86616206D03*
%TD*%
%TO.C,D98*%
X174133794Y-81383794D03*
X175866206Y-83116206D03*
%TD*%
%TO.C,D97*%
X174133794Y-77883794D03*
X175866206Y-79616206D03*
%TD*%
%TO.C,D96*%
X174133794Y-74383794D03*
X175866206Y-76116206D03*
%TD*%
%TO.C,D95*%
X174133794Y-70883794D03*
X175866206Y-72616206D03*
%TD*%
%TO.C,D94*%
X174133794Y-67383794D03*
X175866206Y-69116206D03*
%TD*%
%TO.C,D93*%
X174133794Y-63883794D03*
X175866206Y-65616206D03*
%TD*%
%TO.C,D92*%
X174133794Y-60383794D03*
X175866206Y-62116206D03*
%TD*%
%TO.C,D91*%
X174133794Y-56883794D03*
X175866206Y-58616206D03*
%TD*%
%TO.C,D90*%
X170633794Y-88383794D03*
X172366206Y-90116206D03*
%TD*%
%TO.C,D89*%
X170633794Y-84883794D03*
X172366206Y-86616206D03*
%TD*%
%TO.C,D88*%
X170633794Y-81383794D03*
X172366206Y-83116206D03*
%TD*%
%TO.C,D87*%
X170633794Y-77883794D03*
X172366206Y-79616206D03*
%TD*%
%TO.C,D86*%
X170633794Y-74383794D03*
X172366206Y-76116206D03*
%TD*%
%TO.C,D85*%
X170633794Y-70883794D03*
X172366206Y-72616206D03*
%TD*%
%TO.C,D84*%
X170633794Y-67383794D03*
X172366206Y-69116206D03*
%TD*%
%TO.C,D83*%
X170633794Y-63883794D03*
X172366206Y-65616206D03*
%TD*%
%TO.C,D82*%
X170633794Y-60383794D03*
X172366206Y-62116206D03*
%TD*%
%TO.C,D81*%
X170633794Y-56883794D03*
X172366206Y-58616206D03*
%TD*%
%TO.C,D80*%
X167133794Y-88383794D03*
X168866206Y-90116206D03*
%TD*%
%TO.C,D79*%
X167133794Y-84883794D03*
X168866206Y-86616206D03*
%TD*%
%TO.C,D78*%
X167133794Y-81383794D03*
X168866206Y-83116206D03*
%TD*%
%TO.C,D77*%
X167133794Y-77883794D03*
X168866206Y-79616206D03*
%TD*%
%TO.C,D76*%
X167133794Y-74383794D03*
X168866206Y-76116206D03*
%TD*%
%TO.C,D75*%
X167133794Y-70883794D03*
X168866206Y-72616206D03*
%TD*%
%TO.C,D74*%
X167133794Y-67383794D03*
X168866206Y-69116206D03*
%TD*%
%TO.C,D73*%
X167133794Y-63883794D03*
X168866206Y-65616206D03*
%TD*%
%TO.C,D72*%
X167133794Y-60383794D03*
X168866206Y-62116206D03*
%TD*%
%TO.C,D71*%
X167133794Y-56883794D03*
X168866206Y-58616206D03*
%TD*%
%TO.C,D70*%
X163633794Y-88383794D03*
X165366206Y-90116206D03*
%TD*%
%TO.C,D69*%
X163633794Y-84883794D03*
X165366206Y-86616206D03*
%TD*%
%TO.C,D68*%
X163633794Y-81383794D03*
X165366206Y-83116206D03*
%TD*%
%TO.C,D67*%
X163633794Y-77883794D03*
X165366206Y-79616206D03*
%TD*%
%TO.C,D66*%
X163633794Y-74383794D03*
X165366206Y-76116206D03*
%TD*%
%TO.C,D65*%
X163633794Y-70883794D03*
X165366206Y-72616206D03*
%TD*%
%TO.C,D64*%
X163633794Y-67383794D03*
X165366206Y-69116206D03*
%TD*%
%TO.C,D63*%
X163633794Y-63883794D03*
X165366206Y-65616206D03*
%TD*%
%TO.C,D62*%
X163633794Y-60383794D03*
X165366206Y-62116206D03*
%TD*%
%TO.C,D61*%
X163633794Y-56883794D03*
X165366206Y-58616206D03*
%TD*%
%TO.C,D60*%
X160133794Y-88383794D03*
X161866206Y-90116206D03*
%TD*%
%TO.C,D59*%
X160133794Y-84883794D03*
X161866206Y-86616206D03*
%TD*%
%TO.C,D58*%
X160133794Y-81383794D03*
X161866206Y-83116206D03*
%TD*%
%TO.C,D57*%
X160133794Y-77883794D03*
X161866206Y-79616206D03*
%TD*%
%TO.C,D56*%
X160133794Y-74383794D03*
X161866206Y-76116206D03*
%TD*%
%TO.C,D55*%
X160133794Y-70883794D03*
X161866206Y-72616206D03*
%TD*%
%TO.C,D54*%
X160133794Y-67383794D03*
X161866206Y-69116206D03*
%TD*%
%TO.C,D53*%
X160133794Y-63883794D03*
X161866206Y-65616206D03*
%TD*%
%TO.C,D52*%
X160133794Y-60383794D03*
X161866206Y-62116206D03*
%TD*%
%TO.C,D51*%
X160133794Y-56883794D03*
X161866206Y-58616206D03*
%TD*%
%TO.C,D50*%
X156633794Y-88383794D03*
X158366206Y-90116206D03*
%TD*%
%TO.C,D49*%
X156633794Y-84883794D03*
X158366206Y-86616206D03*
%TD*%
%TO.C,D48*%
X156633794Y-81383794D03*
X158366206Y-83116206D03*
%TD*%
%TO.C,D47*%
X156633794Y-77883794D03*
X158366206Y-79616206D03*
%TD*%
%TO.C,D46*%
X156633794Y-74383794D03*
X158366206Y-76116206D03*
%TD*%
%TO.C,D45*%
X156633794Y-70883794D03*
X158366206Y-72616206D03*
%TD*%
%TO.C,D44*%
X156633794Y-67383794D03*
X158366206Y-69116206D03*
%TD*%
%TO.C,D43*%
X156633794Y-63883794D03*
X158366206Y-65616206D03*
%TD*%
%TO.C,D42*%
X156633794Y-60383794D03*
X158366206Y-62116206D03*
%TD*%
%TO.C,D41*%
X156633794Y-56883794D03*
X158366206Y-58616206D03*
%TD*%
%TO.C,D40*%
X153133794Y-88383794D03*
X154866206Y-90116206D03*
%TD*%
%TO.C,D39*%
X153133794Y-84883794D03*
X154866206Y-86616206D03*
%TD*%
%TO.C,D38*%
X153133794Y-81383794D03*
X154866206Y-83116206D03*
%TD*%
%TO.C,D37*%
X153133794Y-77883794D03*
X154866206Y-79616206D03*
%TD*%
%TO.C,D36*%
X153133794Y-74383794D03*
X154866206Y-76116206D03*
%TD*%
%TO.C,D35*%
X153133794Y-70883794D03*
X154866206Y-72616206D03*
%TD*%
%TO.C,D34*%
X153133794Y-67383794D03*
X154866206Y-69116206D03*
%TD*%
%TO.C,D32*%
X153133794Y-60383794D03*
X154866206Y-62116206D03*
%TD*%
%TO.C,D31*%
X153133794Y-56883794D03*
X154866206Y-58616206D03*
%TD*%
%TO.C,D30*%
X149633794Y-88383794D03*
X151366206Y-90116206D03*
%TD*%
%TO.C,D29*%
X149633794Y-84883794D03*
X151366206Y-86616206D03*
%TD*%
%TO.C,D28*%
X149633794Y-81383794D03*
X151366206Y-83116206D03*
%TD*%
%TO.C,D27*%
X149633794Y-77883794D03*
X151366206Y-79616206D03*
%TD*%
%TO.C,D26*%
X149633794Y-74383794D03*
X151366206Y-76116206D03*
%TD*%
%TO.C,D25*%
X149633794Y-70883794D03*
X151366206Y-72616206D03*
%TD*%
%TO.C,D24*%
X149633794Y-67383794D03*
X151366206Y-69116206D03*
%TD*%
%TO.C,D23*%
X149633794Y-63883794D03*
X151366206Y-65616206D03*
%TD*%
%TO.C,D22*%
X149633794Y-60383794D03*
X151366206Y-62116206D03*
%TD*%
%TO.C,D21*%
X149633794Y-56883794D03*
X151366206Y-58616206D03*
%TD*%
%TO.C,D20*%
X146133794Y-88383794D03*
X147866206Y-90116206D03*
%TD*%
%TO.C,D19*%
X146133794Y-84883794D03*
X147866206Y-86616206D03*
%TD*%
%TO.C,D18*%
X146133794Y-81383794D03*
X147866206Y-83116206D03*
%TD*%
%TO.C,D17*%
X146133794Y-77883794D03*
X147866206Y-79616206D03*
%TD*%
%TO.C,D16*%
X146133794Y-74383794D03*
X147866206Y-76116206D03*
%TD*%
%TO.C,D15*%
X146133794Y-70883794D03*
X147866206Y-72616206D03*
%TD*%
%TO.C,D14*%
X146133794Y-67383794D03*
X147866206Y-69116206D03*
%TD*%
%TO.C,D13*%
X146133794Y-63883794D03*
X147866206Y-65616206D03*
%TD*%
%TO.C,D12*%
X146133794Y-60383794D03*
X147866206Y-62116206D03*
%TD*%
%TO.C,D11*%
X146133794Y-56883794D03*
X147866206Y-58616206D03*
%TD*%
%TO.C,D10*%
X142633794Y-88383794D03*
X144366206Y-90116206D03*
%TD*%
%TO.C,D9*%
X142633794Y-84883794D03*
X144366206Y-86616206D03*
%TD*%
%TO.C,D8*%
X142633794Y-81383794D03*
X144366206Y-83116206D03*
%TD*%
%TO.C,D7*%
X142633794Y-77883794D03*
X144366206Y-79616206D03*
%TD*%
%TO.C,D6*%
X142633794Y-74383794D03*
X144366206Y-76116206D03*
%TD*%
%TO.C,D5*%
X142633794Y-70883794D03*
X144366206Y-72616206D03*
%TD*%
%TO.C,D4*%
X142633794Y-67383794D03*
X144366206Y-69116206D03*
%TD*%
%TO.C,D3*%
X142633794Y-63883794D03*
X144366206Y-65616206D03*
%TD*%
%TO.C,D2*%
X142633794Y-60383794D03*
X144366206Y-62116206D03*
%TD*%
%TO.C,D1*%
X142633794Y-56883794D03*
X144366206Y-58616206D03*
%TD*%
M02*
