%TF.GenerationSoftware,KiCad,Pcbnew,(6.0.9)*%
%TF.CreationDate,2023-01-07T05:09:31-05:00*%
%TF.ProjectId,businesscard,62757369-6e65-4737-9363-6172642e6b69,rev?*%
%TF.SameCoordinates,Original*%
%TF.FileFunction,Profile,NP*%
%FSLAX46Y46*%
G04 Gerber Fmt 4.6, Leading zero omitted, Abs format (unit mm)*
G04 Created by KiCad (PCBNEW (6.0.9)) date 2023-01-07 05:09:31*
%MOMM*%
%LPD*%
G01*
G04 APERTURE LIST*
%TA.AperFunction,Profile*%
%ADD10C,0.100000*%
%TD*%
%TA.AperFunction,Profile*%
%ADD11C,0.120000*%
%TD*%
G04 APERTURE END LIST*
D10*
X95000000Y-49250000D02*
X182500000Y-49250000D01*
X182500000Y-49250000D02*
X182500000Y-98250000D01*
X182500000Y-98250000D02*
X95000000Y-98250000D01*
X95000000Y-98250000D02*
X95000000Y-49250000D01*
D11*
%TO.C,U1*%
X107500000Y-64950000D02*
X100500000Y-64950000D01*
X107500000Y-59450000D02*
X107500000Y-64950000D01*
X100500000Y-59450000D02*
X107500000Y-59450000D01*
X100500000Y-64950000D02*
X100500000Y-59450000D01*
%TO.C,SW1*%
X102116295Y-74037868D02*
X99287868Y-76866295D01*
X99287868Y-76866295D02*
X96883705Y-74462132D01*
X96883705Y-74462132D02*
X99712132Y-71633705D01*
X99712132Y-71633705D02*
X102116295Y-74037868D01*
%TO.C,BT1*%
X116954952Y-86545049D02*
G75*
G03*
X116954952Y-86545049I-10250001J0D01*
G01*
%TO.C,SW7*%
X131772971Y-69106066D02*
X127106066Y-73772971D01*
X127106066Y-73772971D02*
X122227029Y-68893934D01*
X122227029Y-68893934D02*
X126893934Y-64227029D01*
X126893934Y-64227029D02*
X131772971Y-69106066D01*
%TO.C,SW6*%
X133106066Y-58227029D02*
X137772971Y-62893934D01*
X137772971Y-62893934D02*
X132893934Y-67772971D01*
X132893934Y-67772971D02*
X128227029Y-63106066D01*
X128227029Y-63106066D02*
X133106066Y-58227029D01*
%TO.C,SW5*%
X122227029Y-56893934D02*
X126893934Y-52227029D01*
X126893934Y-52227029D02*
X131772971Y-57106066D01*
X131772971Y-57106066D02*
X127106066Y-61772971D01*
X127106066Y-61772971D02*
X122227029Y-56893934D01*
%TO.C,SW4*%
X120893934Y-67772971D02*
X116227029Y-63106066D01*
X116227029Y-63106066D02*
X121106066Y-58227029D01*
X121106066Y-58227029D02*
X125772971Y-62893934D01*
X125772971Y-62893934D02*
X120893934Y-67772971D01*
%TO.C,SW3*%
X132300000Y-84450000D02*
X125700000Y-84450000D01*
X125700000Y-84450000D02*
X125700000Y-77550000D01*
X125700000Y-77550000D02*
X132300000Y-77550000D01*
X132300000Y-77550000D02*
X132300000Y-84450000D01*
%TO.C,SW2*%
X134300000Y-93450000D02*
X127700000Y-93450000D01*
X127700000Y-93450000D02*
X127700000Y-86550000D01*
X127700000Y-86550000D02*
X134300000Y-86550000D01*
X134300000Y-86550000D02*
X134300000Y-93450000D01*
%TD*%
M02*
