M48
; DRILL file {KiCad (6.0.9)} date Sat Jan  7 05:09:33 2023
; FORMAT={-:-/ absolute / inch / decimal}
; #@! TF.CreationDate,2023-01-07T05:09:33-05:00
; #@! TF.GenerationSoftware,Kicad,Pcbnew,(6.0.9)
; #@! TF.FileFunction,Plated,1,2,PTH
FMAT,2
INCH
; #@! TA.AperFunction,Plated,PTH,ViaDrill
T1C0.0118
; #@! TA.AperFunction,Plated,PTH,ComponentDrill
T2C0.0138
%
G90
G05
T1
X3.9469Y-2.1161
X3.9793Y-2.1555
X3.9961Y-2.7461
X4.0049Y-2.186
X4.0256Y-2.7165
X4.0305Y-2.2146
X4.0551Y-2.687
X4.0748Y-2.7756
X4.0846Y-2.1279
X4.1043Y-2.7756
X4.1339Y-2.1457
X4.1339Y-2.7756
X4.1634Y-2.7756
X4.1929Y-2.7756
X4.2224Y-2.7756
X4.252Y-2.687
X4.252Y-2.7165
X4.252Y-2.7461
X4.2815Y-2.2736
X4.2815Y-2.7756
X4.311Y-2.2736
X4.311Y-2.7756
X4.3406Y-2.2736
X4.3406Y-2.7756
X4.3701Y-2.7756
X4.3996Y-2.7756
X4.4291Y-2.7756
X4.4685Y-1.9803
X4.4685Y-2.0669
X4.4961Y-2.2165
X5.7185Y-2.2736
X5.7185Y-2.4114
X5.7185Y-2.5492
X5.7185Y-2.687
X5.7185Y-2.8248
X5.7185Y-2.9626
X5.7185Y-3.1004
X5.7185Y-3.2382
X5.7185Y-3.376
X5.7185Y-3.5138
X5.8563Y-2.2736
X5.8563Y-2.4114
X5.8563Y-2.5492
X5.8563Y-2.687
X5.8563Y-2.8248
X5.8563Y-2.9626
X5.8563Y-3.1004
X5.8563Y-3.2382
X5.8563Y-3.376
X5.8563Y-3.5138
X5.9941Y-2.2736
X5.9941Y-2.4114
X5.9941Y-2.5492
X5.9941Y-2.687
X5.9941Y-2.8248
X5.9941Y-2.9626
X5.9941Y-3.1004
X5.9941Y-3.2382
X5.9941Y-3.376
X5.9941Y-3.5138
X6.1319Y-2.2736
X6.1319Y-2.4114
X6.1319Y-2.5492
X6.1319Y-2.687
X6.1319Y-2.8248
X6.1319Y-2.9626
X6.1319Y-3.1004
X6.1319Y-3.2382
X6.1319Y-3.376
X6.1319Y-3.5138
X6.2697Y-2.2736
X6.2697Y-2.4114
X6.2697Y-2.5492
X6.2697Y-2.687
X6.2697Y-2.8248
X6.2697Y-2.9626
X6.2697Y-3.1004
X6.2697Y-3.2382
X6.2697Y-3.376
X6.2697Y-3.5138
X6.4075Y-2.2736
X6.4075Y-2.4114
X6.4075Y-2.5492
X6.4075Y-2.687
X6.4075Y-2.8248
X6.4075Y-2.9626
X6.4075Y-3.1004
X6.4075Y-3.2382
X6.4075Y-3.376
X6.4075Y-3.5138
X6.5453Y-2.2736
X6.5453Y-2.4114
X6.5453Y-2.5492
X6.5453Y-2.687
X6.5453Y-2.8248
X6.5453Y-2.9626
X6.5453Y-3.1004
X6.5453Y-3.2382
X6.5453Y-3.376
X6.5453Y-3.5138
X6.6831Y-2.2736
X6.6831Y-2.4114
X6.6831Y-2.5492
X6.6831Y-2.687
X6.6831Y-2.8248
X6.6831Y-2.9626
X6.6831Y-3.1004
X6.6831Y-3.2382
X6.6831Y-3.376
X6.6831Y-3.5138
X6.8209Y-2.2736
X6.8209Y-2.4114
X6.8209Y-2.5492
X6.8209Y-2.687
X6.8209Y-2.8248
X6.8209Y-2.9626
X6.8209Y-3.1004
X6.8209Y-3.2382
X6.8209Y-3.376
X6.8209Y-3.5138
X6.9193Y-2.2244
X6.9587Y-2.2736
X6.9587Y-2.4114
X6.9587Y-2.5492
X6.9587Y-2.687
X6.9587Y-2.8248
X6.9587Y-2.9626
X6.9587Y-3.1004
X6.9587Y-3.2382
X6.9587Y-3.376
X6.9587Y-3.5138
X7.0965Y-2.2736
X7.0965Y-2.4114
X7.0965Y-2.5492
X7.0965Y-2.687
X7.0965Y-2.8248
X7.0965Y-2.9626
X7.0965Y-3.1004
X7.0965Y-3.2382
X7.0965Y-3.376
X7.0965Y-3.5138
T2
X3.8465Y-2.6339
X3.8465Y-2.6929
X3.8858Y-2.6339
X3.8858Y-2.6929
X4.4075Y-2.1102
X4.4075Y-2.1496
X4.5825Y-2.3269
X4.6104Y-2.2991
X4.7006Y-2.2088
X4.7006Y-2.7518
X4.7285Y-2.181
X4.7285Y-2.7797
X4.8188Y-2.8699
X4.8466Y-2.8978
X5.1534Y-2.0629
X5.1812Y-2.0907
X5.2715Y-2.181
X5.2715Y-2.7797
X5.2994Y-2.2088
X5.2994Y-2.7518
X5.3896Y-2.6616
X5.4175Y-2.6337
X5.6496Y-3.6457
X5.6496Y-3.685
X5.7874Y-3.6457
X5.7874Y-3.685
X5.9252Y-3.6457
X5.9252Y-3.685
X6.063Y-3.6457
X6.063Y-3.685
X6.2008Y-3.6457
X6.2008Y-3.685
X6.3386Y-3.6457
X6.3386Y-3.685
X6.4764Y-3.6457
X6.4764Y-3.685
X6.6142Y-3.6457
X6.6142Y-3.685
X6.752Y-3.6457
X6.752Y-3.685
X6.8898Y-3.6457
X6.8898Y-3.685
X7.0276Y-3.6457
X7.0276Y-3.685
T0
M30
